Bold-Italic.sfdir
StartChar: exclam
Encoding: 33 33 1
Width: 386
Flags: MW
LayerCount: 2
Fore
SplineSet
135 61 m 0
 135 107 179 148 224 148 c 0
 261 148 286 121 286 87 c 0
 286 43 244 0 197 0 c 0
 160 0 135 27 135 61 c 0
223 237 m 0
 223 243 225 252 226 259 c 2
 278 636 l 2
 287 702 343 716 367 716 c 0
 402 716 429 694 429 660 c 0
 429 647 425 637 422 627 c 2
 285 249 l 2
 274 217 270 220 249 219 c 0
 235 219 223 221 223 237 c 0
EndSplineSet
EndChar
StartChar: quotedbl
Encoding: 34 34 2
Width: 591
Flags: MW
LayerCount: 2
Fore
SplineSet
278 361 m 0
 278 369 307 645 311 658 c 0
 319 683 346 706 377 706 c 0
 396 706 428 696 428 656 c 0
 428 649 427 645 415 613 c 0
 352 452 328 386 315 360 c 0
 306 342 302 342 295 342 c 0
 286 342 278 350 278 361 c 0
455 361 m 0
 455 369 484 645 488 658 c 0
 496 683 523 706 554 706 c 0
 573 706 605 696 605 656 c 0
 605 649 604 645 592 613 c 0
 527 448 504 383 491 358 c 4
 483 342 479 342 472 342 c 0
 463 342 455 350 455 361 c 0
EndSplineSet
EndChar
StartChar: numbersign
Encoding: 35 35 3
Width: 944
Flags: MW
LayerCount: 2
Fore
SplineSet
124 139 m 0
 124 156 142 157 153 157 c 2
 340 157 l 1
 439 343 l 1
 210 343 l 2
 197 343 180 343 180 361 c 0
 180 378 196 379 208 379 c 2
 460 379 l 1
 465 391 471 402 477 413 c 2
 611 661 l 2
 623 683 628 693 640 693 c 0
 650 693 657 686 657 676 c 0
 657 666 649 654 644 645 c 2
 501 379 l 1
 706 379 l 1
 712 391 718 402 724 413 c 2
 858 661 l 2
 869 683 875 693 887 693 c 0
 896 693 903 686 903 676 c 0
 903 666 896 654 891 645 c 2
 747 379 l 1
 916 379 l 2
 938 379 942 368 942 361 c 0
 942 344 925 343 914 343 c 2
 727 343 l 1
 627 157 l 1
 858 157 l 2
 870 157 886 156 886 139 c 0
 886 122 871 120 859 120 c 2
 607 120 l 1
 456 -160 l 2
 443 -184 438 -193 427 -193 c 0
 417 -193 410 -185 410 -175 c 0
 410 -166 417 -155 422 -146 c 2
 452 -90 l 1
 566 120 l 1
 361 120 l 1
 210 -160 l 2
 197 -184 192 -193 180 -193 c 0
 170 -193 163 -185 163 -175 c 0
 163 -166 171 -155 176 -146 c 2
 213 -78 l 5
 319 120 l 1
 151 120 l 2
 128 120 124 131 124 139 c 0
381 157 m 1
 586 157 l 1
 686 343 l 1
 480 343 l 1
 381 157 l 1
EndSplineSet
EndChar
StartChar: dollar
Encoding: 36 36 4
Width: 591
Flags: MW
LayerCount: 2
Fore
SplineSet
128 133 m 0
 128 226 174 245 204 245 c 0
 238 245 253 224 253 199 c 0
 253 186 246 142 196 130 c 0
 193 129 189 129 185 128 c 1
 185 123 186 118 187 114 c 0
 200 48 257 41 279 37 c 1
 345 297 l 1
 316 304 208 329 208 455 c 0
 208 542 276 691 446 705 c 1
 454 735 455 750 477 750 c 0
 495 750 500 741 500 730 c 0
 500 721 497 712 495 704 c 1
 581 696 637 650 637 569 c 0
 637 483 592 463 561 463 c 0
 535 463 512 481 512 509 c 0
 512 534 528 568 568 578 c 4
 571 579 575 580 579 580 c 1
 571 633 527 652 483 657 c 1
 425 424 l 1
 555 395 559 288 559 260 c 0
 559 156 482 7 316 -10 c 1
 309 -41 307 -55 285 -55 c 0
 268 -55 263 -47 263 -36 c 0
 263 -28 265 -19 268 -10 c 1
 145 4 128 88 128 133 c 0
301 519 m 0
 301 469 337 446 379 436 c 1
 434 656 l 1
 342 643 301 569 301 519 c 0
329 39 m 1
 424 55 466 141 466 196 c 0
 466 210 463 270 390 286 c 1
 329 39 l 1
EndSplineSet
EndChar
StartChar: percent
Encoding: 37 37 5
Width: 944
Flags: MW
LayerCount: 2
Fore
SplineSet
171 -25 m 0
 171 -9 186 4 196 14 c 2
 784 627 l 1
 784 627 l 1
 755 618 723 610 682 610 c 0
 623 610 577 625 529 651 c 1
 530 643 531 634 531 626 c 0
 531 524 464 347 335 347 c 0
 289 347 216 373 216 479 c 0
 216 586 290 750 428 750 c 0
 477 750 500 720 512 710 c 0
 540 684 597 646 682 646 c 0
 758 646 832 679 876 723 c 0
 889 736 899 749 914 749 c 0
 930 749 944 738 944 720 c 0
 944 704 930 692 920 681 c 2
 233 -35 l 2
 224 -45 214 -55 200 -55 c 0
 183 -55 171 -40 171 -25 c 0
303 436 m 0
 303 394 325 384 340 384 c 0
 417 384 476 543 476 633 c 0
 476 687 455 713 428 713 c 0
 364 713 337 602 327 563 c 0
 317 522 303 471 303 436 c 0
586 77 m 0
 586 187 663 347 798 347 c 0
 840 347 901 323 901 223 c 0
 901 117 832 -55 706 -55 c 0
 658 -55 586 -29 586 77 c 0
673 33 m 0
 673 -2 689 -19 710 -19 c 0
 719 -19 729 -16 740 -10 c 0
 813 31 846 172 846 231 c 0
 846 297 817 310 798 310 c 0
 781 310 742 298 716 222 c 0
 700 177 673 71 673 33 c 0
EndSplineSet
EndChar
StartChar: ampersand
Encoding: 38 38 6
Width: 885
Flags: MW
LayerCount: 2
Fore
SplineSet
139 178 m 0
 139 229 168 322 224 384 c 0
 227 387 230 390 233 393 c 1
 232 396 231 399 230 402 c 0
 224 425 224 440 224 451 c 0
 224 566 312 716 460 716 c 0
 534 716 588 669 588 599 c 0
 588 533 544 511 515 511 c 0
 488 511 466 529 466 557 c 0
 466 585 485 619 529 627 c 1
 515 668 484 680 460 680 c 0
 437 680 415 667 398 651 c 0
 371 624 355 589 325 455 c 1
 344 462 375 471 407 471 c 0
 468 471 483 433 483 407 c 0
 483 360 444 306 373 306 c 0
 342 306 315 313 294 323 c 1
 268 248 255 185 255 150 c 0
 255 69 309 14 447 14 c 0
 603 14 718 70 764 222 c 0
 771 245 776 269 776 294 c 0
 776 353 749 391 725 429 c 1
 643 390 621 363 614 342 c 0
 611 334 611 327 610 321 c 1
 623 339 642 356 672 356 c 0
 702 356 722 337 722 308 c 0
 722 279 697 236 647 236 c 0
 600 236 554 268 554 320 c 0
 554 384 613 426 668 458 c 4
 694 473 719 486 736 498 c 0
 766 518 792 545 812 576 c 1
 788 581 773 598 773 622 c 0
 773 662 809 694 845 694 c 0
 873 694 896 677 896 647 c 0
 896 610 858 522 775 460 c 1
 803 422 833 369 833 300 c 0
 833 209 782 99 695 42 c 0
 611 -14 514 -22 436 -22 c 0
 294 -22 139 26 139 178 c 0
323 382 m 1
 330 363 345 343 377 343 c 0
 423 343 428 406 428 414 c 0
 428 429 418 434 405 434 c 0
 389 434 357 425 323 382 c 1
EndSplineSet
EndChar
StartChar: quotesingle
Encoding: 39 39 7
Width: 355
Flags: MW
LayerCount: 2
Fore
SplineSet
249 361 m 0
 249 369 278 645 282 658 c 0
 290 683 317 706 348 706 c 0
 367 706 399 696 399 656 c 0
 399 649 398 645 386 613 c 0
 330 471 305 403 291 371 c 4
 278 342 275 342 266 342 c 0
 257 342 249 350 249 361 c 0
EndSplineSet
EndChar
StartChar: parenleft
Encoding: 40 40 8
Width: 473
Flags: MW
LayerCount: 2
Fore
SplineSet
168 72 m 0
 168 221 221 401 328 550 c 0
 380 622 444 687 521 738 c 0
 528 743 537 749 548 749 c 0
 556 749 564 746 565 736 c 1
 565 729 559 723 549 714 c 4
 528 696 487 665 431 585 c 0
 300 399 252 142 252 14 c 0
 252 -129 298 -191 315 -220 c 0
 319 -227 322 -232 322 -236 c 0
 322 -245 314 -250 305 -250 c 0
 287 -250 232 -198 197 -101 c 0
 180 -54 168 4 168 72 c 0
EndSplineSet
EndChar
StartChar: parenright
Encoding: 41 41 9
Width: 473
Flags: MW
LayerCount: 2
Fore
SplineSet
32 -237 m 0
 32 -229 38 -223 51 -212 c 0
 69 -197 100 -171 145 -113 c 0
 291 75 344 349 344 486 c 0
 344 614 308 678 288 710 c 4
 282 719 278 726 276 730 c 0
 272 741 280 749 291 749 c 0
 306 749 346 714 379 649 c 0
 406 595 428 521 428 428 c 0
 428 293 383 122 285 -26 c 0
 231 -107 161 -182 73 -240 c 0
 67 -244 58 -250 49 -250 c 0
 40 -250 32 -245 32 -237 c 0
EndSplineSet
EndChar
StartChar: asterisk
Encoding: 42 42 10
Width: 591
Flags: MW
LayerCount: 2
Fore
SplineSet
206 429 m 0
 206 449 212 459 236 471 c 0
 261 484 307 499 388 528 c 1
 322 557 288 571 270 580 c 0
 251 590 251 595 251 607 c 0
 251 634 280 660 304 660 c 0
 312 660 320 656 330 647 c 0
 346 633 370 605 416 561 c 1
 425 645 428 682 430 700 c 0
 432 713 433 717 436 723 c 0
 445 739 463 750 481 750 c 0
 498 750 515 738 515 721 c 0
 515 715 514 708 508 694 c 0
 500 673 484 637 454 562 c 1
 529 612 566 637 585 649 c 0
 603 660 607 660 614 660 c 0
 634 660 647 644 647 626 c 0
 647 604 639 593 604 578 c 0
 577 566 533 553 465 528 c 1
 528 501 562 487 580 477 c 4
 602 466 602 461 602 449 c 0
 602 422 572 395 548 395 c 0
 539 395 531 400 519 411 c 0
 502 427 478 455 437 494 c 1
 430 430 428 386 424 360 c 0
 422 346 420 337 417 333 c 0
 408 317 390 306 372 306 c 0
 354 306 338 317 338 334 c 0
 338 340 340 346 345 360 c 0
 353 381 368 418 399 494 c 1
 312 436 277 412 260 402 c 0
 248 395 244 395 238 395 c 0
 219 395 206 412 206 429 c 0
EndSplineSet
EndChar
StartChar: plus
Encoding: 43 43 11
Width: 885
Flags: MW
LayerCount: 2
Fore
SplineSet
152 250 m 0
 152 262 162 266 173 267 c 0
 177 267 182 268 186 268 c 2
 490 268 l 1
 564 566 l 2
 568 580 571 602 588 602 c 0
 598 602 606 592 605 580 c 0
 605 577 602 566 598 550 c 0
 582 484 542 332 528 268 c 1
 817 268 l 2
 823 268 829 268 834 267 c 4
 846 266 856 262 856 250 c 0
 856 234 838 232 825 232 c 2
 518 232 l 1
 512 204 468 32 444 -66 c 0
 440 -81 437 -102 420 -102 c 0
 406 -102 403 -90 403 -80 c 0
 403 -78 404 -74 417 -21 c 2
 481 232 l 1
 189 232 l 2
 184 232 179 232 174 232 c 0
 162 233 152 237 152 250 c 0
EndSplineSet
EndChar
StartChar: hyphen
Encoding: 45 45 13
Width: 414
Flags: MW
LayerCount: 2
Fore
SplineSet
91 195 m 0
 91 203 98 229 102 245 c 0
 107 262 112 269 134 269 c 2
 360 269 l 2
 377 269 386 262 386 249 c 0
 386 244 379 216 373 195 c 0
 369 181 361 176 345 176 c 2
 118 176 l 2
 104 176 91 179 91 195 c 0
EndSplineSet
EndChar
StartChar: period
Encoding: 46 46 14
Width: 355
Flags: MW
LayerCount: 2
Fore
SplineSet
120 60 m 0
 120 103 162 148 210 148 c 0
 247 148 271 121 271 88 c 0
 271 45 229 0 181 0 c 0
 145 0 120 27 120 60 c 0
EndSplineSet
EndChar
StartChar: slash
Encoding: 47 47 15
Width: 591
Flags: MW
LayerCount: 2
Fore
SplineSet
32 -231 m 0
 32 -224 37 -216 39 -213 c 2
 623 700 l 2
 644 732 652 749 665 749 c 0
 674 749 682 740 682 731 c 0
 682 726 681 722 669 703 c 2
 78 -220 l 2
 67 -238 61 -249 49 -249 c 0
 40 -249 32 -240 32 -231 c 0
EndSplineSet
EndChar
StartChar: zero
Encoding: 48 48 16
Width: 591
Flags: MW
LayerCount: 2
Fore
SplineSet
112 156 m 0
 112 211 140 414 230 543 c 0
 255 579 285 609 320 629 c 1
 355 650 405 666 461 666 c 0
 548 666 637 630 637 486 c 0
 637 435 615 294 567 183 c 4
 556 156 542 131 528 110 c 0
 448 -11 338 -22 289 -22 c 0
 201 -22 112 14 112 156 c 0
216 103 m 0
 216 48 251 15 299 15 c 0
 351 15 403 54 429 113 c 0
 457 177 535 468 535 545 c 0
 535 600 498 630 451 630 c 0
 404 630 364 600 341 570 c 0
 292 504 216 160 216 103 c 0
EndSplineSet
EndChar
StartChar: one
Encoding: 49 49 17
Width: 591
Flags: MW
LayerCount: 2
Fore
SplineSet
124 20 m 0
 124 34 130 48 154 48 c 2
 170 48 l 2
 263 48 256 48 263 78 c 2
 371 509 l 1
 349 500 302 480 257 480 c 0
 238 480 232 490 232 501 c 0
 232 516 239 522 250 526 c 0
 264 530 283 530 300 534 c 0
 367 548 428 591 470 640 c 0
 477 647 485 656 496 656 c 0
 508 656 515 648 515 637 c 0
 515 630 513 620 509 604 c 2
 385 108 l 1
 370 50 l 1
 379 49 388 48 397 48 c 4
 439 48 l 2
 464 48 l 2
 478 48 492 46 492 27 c 0
 492 16 487 0 464 0 c 0
 449 0 403 3 311 3 c 0
 188 3 163 0 150 0 c 0
 127 0 124 12 124 20 c 0
EndSplineSet
EndChar
StartChar: two
Encoding: 50 50 18
Width: 591
Flags: MW
LayerCount: 2
Fore
SplineSet
89 -6 m 0
 89 3 97 25 103 38 c 0
 125 92 158 135 192 169 c 0
 255 230 323 260 346 274 c 0
 472 352 487 423 501 484 c 0
 505 503 508 523 508 543 c 0
 508 612 462 630 426 630 c 0
 308 630 224 480 224 412 c 0
 224 397 228 384 244 384 c 0
 293 384 340 462 340 499 c 0
 340 513 334 522 330 529 c 0
 328 533 326 536 326 540 c 0
 326 548 334 559 346 559 c 0
 362 559 377 527 377 501 c 0
 377 451 322 347 239 347 c 0
 197 347 169 378 169 420 c 0
 169 503 274 666 431 666 c 0
 537 666 618 610 618 500 c 0
 618 391 564 328 376 229 c 0
 306 192 262 171 201 99 c 1
 210 99 219 98 228 98 c 4
 259 97 291 94 322 91 c 0
 358 87 393 84 424 84 c 0
 490 84 528 128 541 163 c 0
 547 179 550 183 570 183 c 0
 592 183 599 178 599 168 c 0
 599 136 533 -22 409 -22 c 0
 365 -22 331 -1 298 20 c 0
 266 41 236 62 201 62 c 0
 192 62 182 60 171 48 c 0
 154 28 150 10 146 -3 c 0
 142 -15 137 -22 119 -22 c 2
 113 -22 l 2
 104 -22 89 -21 89 -6 c 0
EndSplineSet
EndChar
StartChar: three
Encoding: 51 51 19
Width: 591
Flags: MW
LayerCount: 2
Fore
SplineSet
106 114 m 0
 106 186 150 206 180 206 c 0
 209 206 229 187 229 160 c 0
 229 132 208 96 164 90 c 1
 180 32 224 15 266 15 c 0
 316 15 364 38 391 83 c 0
 412 117 436 214 436 250 c 0
 436 311 385 311 363 311 c 2
 332 311 l 2
 318 311 304 311 304 328 c 0
 304 361 328 359 330 359 c 2
 371 359 l 2
 407 359 432 365 455 382 c 1
 521 427 529 563 529 563 c 1
 529 616 487 630 454 630 c 0
 360 630 267 553 267 478 c 0
 267 462 272 450 288 450 c 0
 313 450 339 476 339 500 c 0
 339 513 333 522 329 530 c 4
 327 534 326 537 326 541 c 0
 326 551 338 560 345 560 c 0
 358 560 377 533 377 502 c 0
 377 455 330 412 282 412 c 0
 239 412 212 445 212 483 c 0
 212 559 308 666 458 666 c 0
 554 666 628 623 628 532 c 0
 628 487 605 395 509 343 c 0
 498 337 486 332 474 327 c 1
 538 296 546 239 546 206 c 0
 546 94 445 -22 266 -22 c 0
 173 -22 106 32 106 114 c 0
EndSplineSet
EndChar
StartChar: four
Encoding: 52 52 20
Width: 591
Flags: MW
LayerCount: 2
Fore
SplineSet
54 28 m 0
 54 43 68 48 97 68 c 0
 118 83 148 105 186 146 c 0
 223 185 255 227 282 269 c 0
 387 434 418 603 430 629 c 0
 439 648 460 666 487 666 c 0
 513 666 532 648 532 624 c 0
 532 598 499 510 491 490 c 0
 417 305 300 172 185 76 c 1
 197 76 l 2
 231 76 254 72 279 65 c 0
 297 60 316 54 341 46 c 1
 358 115 367 153 373 175 c 4
 381 204 383 204 390 212 c 1
 401 226 420 236 438 236 c 0
 463 236 483 219 483 194 c 0
 483 188 482 181 479 168 c 0
 474 147 463 108 442 24 c 1
 449 24 455 25 460 25 c 0
 482 27 496 30 506 33 c 0
 513 35 518 36 522 36 c 0
 532 36 545 19 545 10 c 0
 545 -7 501 -19 457 -23 c 0
 448 -24 439 -24 430 -24 c 1
 417 -83 407 -117 401 -138 c 0
 391 -171 388 -169 384 -174 c 0
 372 -186 355 -194 338 -194 c 0
 313 -194 294 -177 294 -152 c 0
 294 -147 296 -136 299 -122 c 0
 307 -86 323 -30 329 -1 c 1
 308 5 289 12 268 18 c 0
 246 24 222 28 191 28 c 0
 145 28 122 23 109 18 c 0
 92 11 92 2 78 2 c 0
 65 2 54 18 54 28 c 0
EndSplineSet
EndChar
StartChar: five
Encoding: 53 53 21
Width: 591
Flags: MW
LayerCount: 2
Fore
SplineSet
118 120 m 0
 118 203 167 225 199 225 c 0
 229 225 252 205 252 175 c 0
 252 156 240 108 184 99 c 0
 182 99 179 98 176 98 c 1
 192 24 248 22 265 22 c 0
 302 22 336 40 357 60 c 0
 372 75 385 98 396 125 c 0
 430 207 443 321 443 328 c 0
 443 349 432 384 391 384 c 0
 379 384 318 382 262 326 c 0
 250 315 246 305 228 305 c 0
 215 305 204 311 204 325 c 0
 204 332 207 340 208 347 c 2
 282 643 l 2
 285 652 288 665 301 665 c 0
 305 665 311 663 320 659 c 0
 343 650 384 634 449 634 c 0
 521 634 575 654 600 662 c 4
 606 664 610 665 613 665 c 0
 621 665 627 659 627 651 c 0
 627 635 610 621 600 612 c 0
 545 561 465 517 374 517 c 0
 358 517 342 518 326 521 c 0
 322 522 319 522 315 523 c 1
 315 523 l 1
 282 389 l 1
 314 407 349 420 398 420 c 0
 495 420 564 365 564 264 c 0
 564 139 464 -22 263 -22 c 0
 173 -22 118 40 118 120 c 0
EndSplineSet
EndChar
StartChar: six
Encoding: 54 54 22
Width: 591
Flags: MW
LayerCount: 2
Fore
SplineSet
130 165 m 0
 130 230 151 331 179 402 c 0
 199 452 224 496 254 532 c 0
 325 619 420 666 515 666 c 0
 608 666 629 611 629 573 c 0
 629 516 593 485 555 485 c 0
 527 485 506 504 506 532 c 0
 506 556 524 592 567 601 c 1
 556 617 542 627 512 627 c 0
 487 627 417 616 363 537 c 0
 329 489 311 426 294 364 c 1
 339 424 387 429 414 429 c 0
 544 429 577 332 577 275 c 0
 577 241 563 162 526 105 c 0
 500 65 450 18 397 -4 c 0
 369 -15 337 -22 297 -22 c 0
 212 -22 130 21 130 165 c 0
236 93 m 0
 236 63 251 22 299 22 c 0
 350 22 379 48 399 85 c 0
 419 123 429 172 441 218 c 0
 448 246 463 306 463 333 c 0
 463 348 459 364 448 376 c 4
 439 386 425 392 403 392 c 0
 269 392 236 118 236 93 c 0
EndSplineSet
EndChar
StartChar: seven
Encoding: 55 55 23
Width: 591
Flags: MW
LayerCount: 2
Fore
SplineSet
144 446 m 0
 144 450 145 452 158 477 c 4
 171 502 195 549 243 642 c 0
 252 661 255 666 274 666 c 2
 280 666 l 2
 299 666 304 660 304 652 c 0
 304 642 296 629 292 622 c 1
 348 659 398 666 424 666 c 0
 459 666 473 646 481 624 c 0
 492 596 495 563 525 563 c 0
 576 563 629 632 647 653 c 0
 653 660 657 664 662 665 c 0
 666 666 670 666 675 666 c 2
 683 666 l 2
 695 666 705 664 705 652 c 0
 705 643 697 635 692 629 c 0
 644 565 605 500 572 437 c 0
 467 234 434 55 422 24 c 1
 405 -14 367 -22 352 -22 c 0
 324 -22 300 -4 300 27 c 0
 300 45 314 89 323 115 c 0
 339 163 365 226 407 303 c 0
 443 368 490 444 555 531 c 1
 543 528 531 526 519 526 c 0
 492 526 474 537 454 547 c 0
 439 555 423 561 401 561 c 0
 377 561 263 548 199 442 c 0
 193 431 184 431 174 431 c 2
 165 431 l 2
 150 431 144 437 144 446 c 0
EndSplineSet
EndChar
StartChar: eight
Encoding: 56 56 24
Width: 591
Flags: MW
LayerCount: 2
Fore
SplineSet
107 114 m 0
 107 201 162 278 277 330 c 1
 260 343 247 357 238 373 c 0
 225 395 219 420 219 446 c 0
 219 534 296 666 458 666 c 0
 541 666 618 633 618 547 c 0
 618 476 572 411 481 369 c 1
 481 368 l 1
 496 358 522 341 541 312 c 4
 555 290 566 262 566 226 c 0
 566 124 477 -22 290 -22 c 0
 197 -22 107 16 107 114 c 0
194 113 m 0
 194 66 219 21 298 21 c 0
 404 21 464 95 464 156 c 0
 464 197 435 217 426 223 c 2
 317 302 l 1
 241 262 194 182 194 113 c 0
312 521 m 0
 312 499 322 485 346 465 c 0
 367 448 398 428 443 396 c 1
 444 396 l 1
 528 449 542 515 542 550 c 0
 542 603 504 627 453 627 c 0
 363 627 312 572 312 521 c 0
EndSplineSet
EndChar
StartChar: nine
Encoding: 57 57 25
Width: 591
Flags: MW
LayerCount: 2
Fore
SplineSet
122 72 m 0
 122 125 154 159 195 159 c 0
 223 159 244 141 244 113 c 0
 244 91 230 55 189 44 c 1
 197 36 213 22 251 22 c 0
 307 22 359 61 390 107 c 0
 410 137 435 191 456 280 c 1
 411 221 363 215 336 215 c 0
 206 215 174 313 174 370 c 0
 174 403 187 480 222 536 c 0
 258 593 337 667 458 667 c 0
 542 667 621 625 621 482 c 0
 621 433 605 326 569 237 c 1
 555 201 538 168 518 139 c 4
 448 35 349 -22 249 -22 c 0
 186 -22 122 2 122 72 c 0
288 309 m 0
 288 284 300 252 347 252 c 0
 485 252 517 539 517 557 c 0
 517 605 490 627 454 627 c 0
 397 627 363 591 338 527 c 0
 322 486 310 433 296 370 c 0
 289 338 288 322 288 309 c 0
EndSplineSet
EndChar
StartChar: colon
Encoding: 58 58 26
Width: 355
Flags: MW
LayerCount: 2
Fore
SplineSet
120 60 m 0
 120 103 162 148 210 148 c 0
 247 148 271 121 271 88 c 0
 271 45 229 0 181 0 c 0
 145 0 120 27 120 60 c 0
195 357 m 0
 195 403 239 445 285 445 c 0
 321 445 345 419 345 385 c 0
 345 341 303 297 255 297 c 0
 219 297 195 324 195 357 c 0
EndSplineSet
EndChar
StartChar: semicolon
Encoding: 59 59 27
Width: 355
Flags: MW
LayerCount: 2
Fore
SplineSet
195 357 m 0
 195 403 239 445 285 445 c 0
 321 445 345 419 345 385 c 0
 345 341 303 297 255 297 c 0
 219 297 195 324 195 357 c 0
89 -175 m 0
 89 -169 96 -162 106 -154 c 4
 134 -131 190 -92 229 14 c 1
 216 7 200 0 181 0 c 0
 143 0 120 25 120 58 c 0
 120 103 160 148 210 148 c 0
 255 148 275 110 275 68 c 0
 275 11 237 -97 136 -176 c 0
 117 -190 112 -193 106 -193 c 0
 96 -193 89 -182 89 -175 c 0
EndSplineSet
EndChar
StartChar: less
Encoding: 60 60 28
Width: 885
Flags: MW
LayerCount: 2
Fore
SplineSet
182 250 m 0
 182 264 199 270 207 273 c 2
 862 565 l 2
 869 568 877 572 885 572 c 0
 893 572 903 566 903 555 c 0
 903 541 886 536 878 532 c 2
 302 276 l 1
 240 248 l 1
 240 248 l 1
 271 230 l 1
 728 -32 l 2
 737 -37 750 -44 750 -56 c 0
 750 -64 743 -73 733 -73 c 0
 728 -73 726 -73 706 -62 c 0
 692 -54 669 -41 631 -19 c 2
 204 226 l 2
 195 231 182 238 182 250 c 0
EndSplineSet
EndChar
StartChar: equal
Encoding: 61 61 29
Width: 885
Flags: MW
LayerCount: 2
Fore
SplineSet
124 139 m 0
 124 155 140 157 153 157 c 2
 786 157 l 2
 810 157 815 156 820 153 c 0
 829 147 830 135 823 127 c 0
 817 121 810 121 802 120 c 1
 152 120 l 2
 128 120 124 131 124 139 c 0
180 361 m 0
 180 377 195 379 209 379 c 2
 842 379 l 2
 863 379 883 379 883 361 c 0
 883 345 868 343 858 343 c 2
 249 343 l 5
 218 343 l 1
 208 343 l 2
 184 343 180 354 180 361 c 0
EndSplineSet
EndChar
StartChar: greater
Encoding: 62 62 30
Width: 885
Flags: MW
LayerCount: 2
Fore
SplineSet
105 -56 m 0
 105 -42 122 -36 130 -32 c 2
 704 223 l 2
 725 233 747 242 768 252 c 1
 768 252 l 1
 768 252 l 1
 280 531 l 2
 271 536 258 543 258 555 c 0
 258 565 266 572 275 572 c 0
 285 572 294 565 301 561 c 2
 807 272 l 2
 816 267 826 260 826 250 c 0
 826 236 810 230 802 226 c 2
 146 -65 l 2
 139 -68 131 -73 123 -73 c 0
 113 -73 105 -66 105 -56 c 0
EndSplineSet
EndChar
StartChar: question
Encoding: 63 63 31
Width: 591
Flags: MW
LayerCount: 2
Fore
SplineSet
214 490 m 0
 214 558 316 716 471 716 c 0
 556 716 614 672 614 592 c 0
 614 563 607 489 526 428 c 0
 470 385 421 360 388 338 c 4
 359 318 342 301 342 276 c 0
 342 266 346 257 360 257 c 0
 381 257 416 274 431 310 c 0
 436 321 439 328 456 328 c 2
 462 328 l 2
 471 328 489 328 489 313 c 0
 489 277 428 219 356 219 c 0
 311 219 284 247 284 292 c 0
 284 322 296 362 323 391 c 0
 352 422 482 494 516 526 c 0
 538 547 556 577 556 611 c 0
 556 659 517 680 469 680 c 0
 435 680 358 666 295 560 c 1
 315 555 333 542 333 515 c 0
 333 476 298 444 263 444 c 0
 237 444 214 462 214 490 c 0
238 60 m 0
 238 103 280 148 328 148 c 0
 365 148 389 121 389 88 c 0
 389 45 347 0 299 0 c 0
 263 0 238 27 238 60 c 0
EndSplineSet
EndChar
StartChar: at
Encoding: 64 64 32
Width: 885
Flags: MW
LayerCount: 2
Fore
SplineSet
162 244 m 0
 162 347 206 480 299 575 c 0
 387 665 504 706 615 706 c 0
 783 705 895 614 895 450 c 0
 895 405 880 310 843 234 c 0
 813 173 769 125 705 125 c 0
 630 125 609 163 605 168 c 1
 564 141 526 125 475 125 c 0
 407 125 308 156 308 283 c 0
 308 412 408 570 579 570 c 0
 650 570 695 535 714 483 c 1
 721 483 728 484 736 484 c 2
 742 484 l 2
 757 484 770 482 770 469 c 0
 770 467 769 459 766 447 c 4
 754 394 719 264 707 208 c 0
 705 196 703 188 703 184 c 0
 703 167 710 162 719 162 c 0
 795 162 839 381 839 453 c 0
 839 626 711 669 612 669 c 0
 364 669 217 433 217 241 c 0
 217 100 306 25 450 25 c 0
 605 25 731 84 747 87 c 1
 757 90 768 89 778 89 c 2
 792 89 l 1
 806 88 811 82 811 76 c 0
 811 61 786 55 776 51 c 0
 735 36 695 24 656 15 c 0
 583 -2 513 -11 449 -11 c 0
 226 -11 162 124 162 244 c 0
410 259 m 1
 411 177 452 162 480 162 c 0
 541 162 592 211 603 232 c 0
 606 236 648 401 659 453 c 0
 661 461 662 466 662 468 c 0
 662 494 629 533 580 533 c 0
 476 533 411 364 410 259 c 1
EndSplineSet
EndChar
StartChar: B
Encoding: 66 66 34
Width: 816
Flags: MW
LayerCount: 2
Fore
SplineSet
65 20 m 0
 65 46 86 48 94 48 c 2
 114 48 l 2
 147 48 167 49 180 52 c 1
 326 636 l 1
 326 636 l 1
 307 638 289 638 271 638 c 2
 251 638 l 2
 236 638 225 643 225 659 c 0
 225 672 231 686 255 686 c 2
 618 686 l 2
 657 686 696 685 734 672 c 0
 777 658 830 624 830 551 c 0
 830 479 775 405 679 372 c 0
 661 366 644 363 626 358 c 1
 713 350 778 305 778 225 c 0
 778 152 713 18 529 2 c 0
 512 0 494 0 477 0 c 2
 92 0 l 2
 77 0 65 4 65 20 c 0
305 49 m 1
 317 48 328 48 340 48 c 2
 462 48 l 2
 503 48 532 54 564 77 c 0
 616 116 642 186 642 246 c 0
 642 339 575 339 549 339 c 2
 378 339 l 1
 305 49 l 1
 305 49 l 1
387 375 m 1
 519 375 l 2
 661 375 697 504 697 557 c 0
 697 622 657 638 611 638 c 2
 497 638 l 2
 482 638 467 638 452 637 c 1
 387 375 l 1
EndSplineSet
EndChar
StartChar: D
Encoding: 68 68 36
Width: 875
Flags: MW
LayerCount: 2
Fore
SplineSet
65 20 m 0
 65 46 86 48 94 48 c 2
 114 48 l 2
 147 48 167 49 180 52 c 1
 326 636 l 1
 326 636 l 1
 306 638 287 638 267 638 c 2
 250 638 l 2
 231 638 225 648 225 659 c 0
 225 685 246 686 254 686 c 2
 620 686 l 2
 831 686 884 559 884 447 c 0
 884 277 765 0 453 0 c 2
 93 0 l 2
 81 0 65 2 65 20 c 0
311 49 m 1
 324 48 336 48 349 48 c 2
 427 48 l 2
 468 48 581 50 658 154 c 1
 721 241 755 436 755 484 c 0
 755 607 668 638 572 638 c 2
 504 638 l 2
 489 638 473 638 458 637 c 1
 311 49 l 1
 311 49 l 1
EndSplineSet
EndChar
StartChar: F
Encoding: 70 70 38
Width: 727
Flags: MW
LayerCount: 2
Fore
SplineSet
64 20 m 0
 64 46 84 48 93 48 c 2
 113 48 l 2
 146 48 166 49 179 52 c 1
 323 630 l 1
 323 630 l 1
 305 632 287 633 269 633 c 2
 249 633 l 2
 234 633 222 637 222 653 c 0
 222 666 228 680 251 680 c 2
 760 680 l 2
 776 680 788 676 788 658 c 0
 788 647 770 504 766 469 c 1
 765 449 760 438 736 438 c 0
 715 438 710 446 710 462 c 0
 710 466 711 471 711 477 c 4
 712 491 714 508 714 528 c 0
 714 616 670 633 570 633 c 2
 509 633 l 2
 493 633 477 632 461 631 c 1
 395 364 l 1
 423 364 l 2
 459 364 488 365 511 387 c 0
 537 413 539 441 546 460 c 0
 550 472 552 480 575 480 c 0
 595 480 602 472 602 460 c 0
 602 455 600 448 599 444 c 2
 547 236 l 2
 539 200 530 200 514 200 c 0
 493 200 487 207 487 219 c 0
 487 224 488 229 489 235 c 0
 492 247 496 261 496 276 c 0
 496 316 460 316 416 316 c 2
 383 316 l 1
 316 50 l 1
 316 50 l 1
 341 49 365 48 390 48 c 2
 414 48 l 2
 427 48 445 47 445 28 c 0
 445 15 439 0 417 0 c 0
 401 0 322 3 258 3 c 0
 138 3 107 0 91 0 c 0
 76 0 64 4 64 20 c 0
EndSplineSet
EndChar
StartChar: I
Encoding: 73 73 41
Width: 472
Flags: MW
LayerCount: 2
Fore
SplineSet
59 20 m 0
 59 32 64 47 88 48 c 1
 105 48 l 2
 143 48 165 49 180 52 c 1
 325 636 l 1
 325 636 l 1
 305 638 285 638 264 638 c 2
 245 638 l 2
 226 638 219 648 219 659 c 0
 219 669 224 686 247 686 c 0
 262 686 306 683 395 683 c 0
 494 683 543 686 559 686 c 0
 580 686 583 673 583 666 c 0
 583 641 565 638 552 638 c 2
 533 638 l 2
 498 638 476 637 462 633 c 1
 317 50 l 1
 317 50 l 1
 337 49 358 48 378 48 c 2
 397 48 l 2
 417 48 424 38 424 28 c 0
 424 21 420 0 396 0 c 0
 380 0 333 3 239 3 c 0
 128 3 100 0 86 0 c 0
 72 0 59 4 59 20 c 0
EndSplineSet
EndChar
StartChar: J
Encoding: 74 74 42
Width: 610
Flags: MW
LayerCount: 2
Fore
SplineSet
70 91 m 0
 70 148 112 188 160 188 c 0
 196 188 222 165 222 130 c 0
 222 101 203 59 157 45 c 0
 155 44 153 44 150 43 c 1
 169 26 194 15 221 15 c 0
 329 15 355 180 357 186 c 2
 469 636 l 5
 469 636 l 1
 456 637 443 637 430 637 c 0
 414 637 399 638 386 638 c 0
 379 638 372 638 366 638 c 0
 352 638 336 639 336 658 c 0
 336 672 341 686 365 686 c 0
 369 686 459 683 506 683 c 2
 560 683 l 2
 623 683 655 686 665 686 c 0
 677 686 689 682 689 666 c 0
 689 655 684 638 662 638 c 2
 648 638 l 2
 632 638 616 638 601 635 c 1
 486 174 l 2
 474 128 467 92 425 51 c 0
 371 -3 292 -22 228 -22 c 0
 131 -22 70 25 70 91 c 0
EndSplineSet
EndChar
StartChar: K
Encoding: 75 75 43
Width: 895
Flags: MW
LayerCount: 2
Fore
SplineSet
65 20 m 0
 65 32 70 48 93 48 c 2
 110 48 l 2
 145 48 167 49 180 52 c 1
 326 636 l 1
 326 636 l 1
 307 638 289 638 271 638 c 2
 252 638 l 2
 236 638 225 643 225 659 c 0
 225 671 230 686 253 686 c 0
 267 686 311 683 397 683 c 0
 513 683 538 686 551 686 c 0
 566 686 578 682 578 665 c 0
 578 653 572 638 549 638 c 2
 535 638 l 2
 463 638 463 636 459 616 c 1
 387 331 l 1
 782 630 l 1
 782 630 l 1
 760 636 742 636 730 638 c 0
 717 640 710 644 710 659 c 0
 710 672 715 686 738 686 c 0
 751 686 789 683 866 683 c 0
 905 683 934 685 947 685 c 0
 958 685 970 682 970 666 c 0
 970 640 949 638 941 638 c 0
 889 638 858 626 811 589 c 1
 811 589 608 435 585 419 c 1
 618 349 741 67 741 67 c 2
 750 48 764 48 791 48 c 0
 809 48 825 47 825 28 c 0
 825 16 820 0 798 0 c 0
 786 0 751 3 681 3 c 0
 597 3 555 0 541 0 c 0
 529 0 513 2 513 19 c 0
 513 41 524 46 541 48 c 0
 557 50 579 49 601 55 c 1
 601 55 l 1
 477 336 l 1
 369 255 l 1
 331 104 l 5
 317 50 l 1
 336 48 356 48 375 48 c 2
 394 48 l 2
 412 48 419 38 419 27 c 0
 419 17 414 0 392 0 c 0
 376 0 331 3 239 3 c 0
 122 3 105 0 90 0 c 0
 79 0 65 4 65 20 c 0
EndSplineSet
EndChar
StartChar: L
Encoding: 76 76 44
Width: 698
Flags: MW
LayerCount: 2
Fore
SplineSet
64 20 m 0
 64 46 84 48 92 48 c 2
 113 48 l 2
 146 48 166 49 179 52 c 1
 325 636 l 1
 325 636 l 1
 306 638 286 638 267 638 c 2
 249 638 l 2
 230 638 223 649 223 659 c 0
 223 670 229 686 251 686 c 0
 286 686 286 683 427 683 c 0
 518 683 564 686 579 686 c 0
 598 686 604 676 604 666 c 0
 604 640 583 638 574 638 c 2
 554 638 l 2
 508 638 480 637 462 633 c 1
 316 49 l 1
 316 49 l 1
 328 48 340 48 352 48 c 2
 390 48 l 2
 532 48 586 145 627 253 c 0
 633 269 640 275 656 275 c 0
 671 275 684 271 684 255 c 0
 684 250 680 241 674 223 c 2
 601 22 l 2
 594 4 588 0 570 0 c 2
 88 0 l 2
 68 0 64 12 64 20 c 0
EndSplineSet
EndChar
StartChar: M
Encoding: 77 77 45
Width: 1073
Flags: MW
LayerCount: 2
Fore
SplineSet
64 20 m 0
 64 31 70 45 83 47 c 0
 97 50 166 46 180 65 c 0
 186 73 194 109 210 175 c 2
 325 636 l 1
 325 636 l 1
 307 638 289 638 270 638 c 2
 251 638 l 2
 235 638 224 643 224 659 c 0
 224 684 245 686 253 686 c 2
 453 686 l 2
 474 686 485 683 489 655 c 2
 570 140 l 1
 909 655 l 2
 926 682 936 686 959 686 c 2
 1150 686 l 2
 1165 686 1177 682 1177 666 c 0
 1177 638 1156 638 1139 638 c 2
 1127 638 l 2
 1069 638 1063 637 1059 620 c 1
 1053 601 1049 581 1044 562 c 2
 916 50 l 1
 916 50 l 1
 935 48 955 48 974 48 c 2
 993 48 l 2
 1011 48 1018 38 1018 27 c 0
 1018 2 997 0 990 0 c 2
 987 0 l 2
 971 0 956 3 829 3 c 0
 756 3 719 0 707 0 c 0
 686 0 680 9 680 19 c 0
 680 29 685 48 709 48 c 2
 726 48 l 2
 761 48 782 49 796 52 c 1
 938 623 l 1
 938 623 l 1
 545 25 l 2
 534 9 523 0 503 0 c 0
 474 0 474 22 471 40 c 2
 382 610 l 1
 382 610 l 1
 244 58 l 1
 244 58 l 1
 263 50 288 48 314 48 c 0
 338 48 343 38 343 28 c 0
 343 20 340 0 315 0 c 0
 304 0 270 3 202 3 c 0
 134 3 101 0 90 0 c 0
 76 0 64 4 64 20 c 0
EndSplineSet
EndChar
StartChar: O
Encoding: 79 79 47
Width: 855
Flags: MW
LayerCount: 2
Fore
SplineSet
159 226 m 0
 159 431 315 708 605 708 c 0
 715 708 865 658 865 457 c 0
 865 331 803 149 658 51 c 0
 592 6 510 -22 421 -22 c 0
 309 -22 159 28 159 226 c 0
296 187 m 0
 296 47 382 21 432 21 c 0
 494 21 549 55 586 93 c 0
 613 120 636 155 654 193 c 4
 714 317 733 472 733 506 c 0
 733 642 645 667 593 667 c 0
 565 667 486 659 417 573 c 0
 329 464 296 249 296 187 c 0
EndSplineSet
EndChar
StartChar: P
Encoding: 80 80 48
Width: 787
Flags: MW
LayerCount: 2
Fore
SplineSet
64 20 m 0
 64 32 69 48 92 48 c 2
 109 48 l 2
 144 48 166 49 179 52 c 1
 325 636 l 1
 325 636 l 1
 306 638 288 638 270 638 c 2
 250 638 l 2
 235 638 224 643 224 659 c 0
 224 683 241 686 255 686 c 2
 616 686 l 2
 708 686 824 656 824 536 c 0
 824 443 748 327 580 305 c 0
 553 301 526 301 499 301 c 2
 379 301 l 1
 316 50 l 5
 316 50 l 1
 335 48 355 48 374 48 c 2
 393 48 l 2
 411 48 418 38 418 27 c 0
 418 17 413 0 390 0 c 0
 375 0 329 3 238 3 c 0
 119 3 98 0 88 0 c 0
 69 0 64 12 64 20 c 0
384 343 m 1
 484 343 l 2
 552 343 594 354 622 380 c 0
 646 402 660 436 672 484 c 0
 684 532 687 549 687 565 c 0
 687 639 605 638 557 638 c 2
 507 638 l 2
 490 638 474 638 457 637 c 1
 384 343 l 1
EndSplineSet
EndChar
StartChar: Q
Encoding: 81 81 49
Width: 855
Flags: MW
LayerCount: 2
Fore
SplineSet
159 226 m 0
 159 435 319 708 604 708 c 0
 715 708 865 658 865 457 c 0
 865 321 799 154 670 59 c 0
 641 38 609 21 576 7 c 1
 589 -28 602 -50 639 -50 c 0
 671 -50 711 -37 728 -10 c 0
 733 -2 738 17 753 17 c 0
 761 17 769 11 769 1 c 0
 769 -36 710 -194 599 -194 c 0
 527 -194 509 -139 509 -78 c 0
 509 -57 511 -34 513 -12 c 1
 475 -19 454 -22 421 -22 c 0
 258 -22 159 71 159 226 c 0
289 186 m 0
 289 122 307 72 351 42 c 1
 351 42 350 48 350 50 c 0
 350 111 410 155 462 155 c 0
 521 155 545 109 559 64 c 1
 693 153 735 431 735 498 c 0
 735 637 650 667 594 667 c 0
 554 667 468 652 397 549 c 0
 325 444 289 255 289 186 c 0
387 52 m 0
 387 21 414 19 430 19 c 0
 464 19 490 27 516 38 c 1
 516 46 516 53 515 61 c 4
 512 91 502 119 462 119 c 0
 417 119 387 80 387 52 c 0
EndSplineSet
EndChar
StartChar: T
Encoding: 84 84 52
Width: 796
Flags: MW
LayerCount: 2
Fore
SplineSet
182 452 m 0
 182 453 183 459 186 467 c 0
 200 514 249 653 249 653 c 2
 256 672 264 675 281 675 c 2
 841 675 l 2
 858 675 869 671 869 653 c 0
 869 652 869 649 868 643 c 0
 864 612 848 516 840 463 c 0
 837 443 835 433 810 433 c 0
 794 433 783 438 783 454 c 0
 783 458 785 466 786 476 c 0
 789 494 792 520 792 547 c 0
 792 623 740 627 679 627 c 2
 670 627 l 2
 654 627 638 627 622 625 c 1
 622 625 l 1
 479 51 l 1
 479 51 l 1
 493 49 508 48 522 48 c 0
 535 48 549 48 563 48 c 2
 596 48 l 2
 609 48 625 46 625 27 c 0
 625 15 619 0 596 0 c 0
 577 0 521 3 408 3 c 2
 357 3 l 2
 307 3 212 0 207 0 c 0
 194 0 181 4 181 20 c 0
 181 46 202 48 211 48 c 2
 243 48 l 2
 351 48 340 48 349 82 c 2
 472 575 l 2
 476 592 480 609 485 626 c 1
 472 627 460 627 447 627 c 2
 438 627 l 2
 325 627 291 599 241 460 c 0
 235 445 231 438 222 435 c 0
 218 434 214 433 208 433 c 0
 189 433 182 441 182 452 c 0
EndSplineSet
EndChar
StartChar: U
Encoding: 85 85 53
Width: 881
Flags: MW
LayerCount: 2
Fore
SplineSet
216 170 m 0
 216 204 224 231 230 256 c 2
 325 636 l 1
 325 636 l 1
 305 638 286 638 266 638 c 2
 249 638 l 2
 230 638 223 648 223 659 c 0
 223 669 229 686 252 686 c 0
 265 686 309 683 390 683 c 0
 477 683 529 686 553 686 c 0
 571 686 577 676 577 666 c 0
 577 653 571 638 546 638 c 2
 531 638 l 2
 454 638 463 636 456 609 c 2
 378 296 l 2
 364 243 344 174 344 129 c 0
 344 46 407 26 461 26 c 0
 506 26 661 36 712 252 c 1
 806 628 l 1
 806 628 l 1
 786 636 761 638 735 638 c 0
 715 638 706 646 706 658 c 0
 706 670 712 686 734 686 c 0
 746 686 782 683 853 683 c 0
 918 683 951 685 962 685 c 0
 973 685 985 682 985 666 c 0
 985 653 979 638 956 638 c 0
 860 638 868 620 861 597 c 1
 774 247 l 2
 768 226 763 205 755 185 c 0
 714 76 612 -22 453 -22 c 0
 326 -22 216 36 216 170 c 0
EndSplineSet
EndChar
StartChar: V
Encoding: 86 86 54
Width: 865
Flags: MW
LayerCount: 2
Fore
SplineSet
218 658 m 0
 218 671 224 686 247 686 c 0
 261 686 275 683 388 683 c 0
 468 683 509 686 522 686 c 0
 540 686 546 676 546 665 c 0
 546 639 525 638 514 638 c 2
 508 638 l 2
 495 638 470 637 445 633 c 1
 511 168 l 1
 806 628 l 1
 806 628 l 1
 781 637 759 637 744 639 c 0
 731 641 723 645 723 659 c 0
 723 669 728 686 750 686 c 0
 761 686 795 683 863 683 c 0
 917 683 944 686 953 686 c 0
 965 686 976 681 976 666 c 0
 976 648 969 638 940 638 c 0
 885 638 867 621 851 595 c 2
 479 15 l 2
 464 -10 451 -13 433 -13 c 2
 424 -13 l 2
 390 -13 394 7 389 30 c 1
 313 573 l 2
 310 594 308 615 304 636 c 1
 288 637 272 638 255 638 c 2
 246 638 l 2
 232 638 218 641 218 658 c 0
EndSplineSet
EndChar
StartChar: W
Encoding: 87 87 55
Width: 1160
Flags: MW
LayerCount: 2
Fore
SplineSet
217 658 m 0
 217 671 223 686 246 686 c 0
 259 686 273 683 380 683 c 0
 461 683 501 686 514 686 c 0
 532 686 538 676 538 665 c 0
 538 644 523 638 507 638 c 2
 499 638 l 2
 461 638 436 633 436 633 c 1
 477 188 l 1
 484 200 492 213 498 224 c 2
 683 536 l 1
 683 536 l 1
 673 636 l 1
 659 638 644 638 629 638 c 2
 622 638 l 2
 607 638 594 641 594 659 c 0
 594 671 600 686 623 686 c 0
 636 686 663 683 756 683 c 0
 837 683 864 686 891 686 c 0
 908 686 915 676 915 665 c 0
 915 655 909 644 901 641 c 0
 891 637 857 641 812 633 c 1
 812 633 l 1
 854 189 l 1
 1115 627 l 1
 1115 627 l 1
 1082 636 1058 636 1042 638 c 0
 1026 640 1019 643 1019 659 c 0
 1019 670 1024 686 1046 686 c 0
 1058 686 1095 683 1169 683 c 0
 1217 683 1241 686 1249 686 c 0
 1260 686 1272 681 1272 666 c 0
 1272 648 1259 638 1246 638 c 0
 1181 638 1172 621 1154 594 c 1
 811 16 l 2
 796 -10 785 -13 763 -13 c 0
 736 -13 733 -2 731 21 c 2
 695 401 l 2
 694 417 692 432 691 448 c 1
 434 15 l 2
 419 -9 408 -13 387 -13 c 0
 355 -13 356 5 354 27 c 2
 302 579 l 2
 300 598 299 617 296 636 c 1
 282 638 267 638 252 638 c 2
 246 638 l 2
 231 638 217 640 217 658 c 0
EndSplineSet
EndChar
StartChar: X
Encoding: 88 88 56
Width: 865
Flags: MW
LayerCount: 2
Fore
SplineSet
66 20 m 0
 66 46 87 48 95 48 c 0
 189 48 204 67 233 100 c 1
 452 337 l 1
 340 615 l 2
 331 638 331 638 295 638 c 2
 278 638 l 2
 252 638 240 640 240 659 c 0
 240 686 263 686 271 686 c 0
 297 686 297 683 398 683 c 0
 488 683 544 686 546 686 c 0
 566 686 573 676 573 666 c 0
 573 656 566 644 559 641 c 0
 546 635 551 642 484 632 c 1
 484 632 l 1
 556 450 l 1
 720 627 l 1
 720 627 l 1
 693 637 671 637 657 639 c 0
 643 641 636 644 636 659 c 0
 636 672 642 686 665 686 c 0
 677 686 715 683 791 683 c 0
 856 683 889 685 900 685 c 0
 913 685 924 682 924 666 c 0
 924 640 903 638 895 638 c 0
 829 638 802 627 783 612 c 0
 776 606 770 600 763 593 c 2
 580 394 l 1
 711 66 l 2
 718 49 716 48 781 48 c 0
 795 48 810 46 810 27 c 0
 810 3 791 0 783 0 c 0
 772 0 738 3 673 3 c 0
 537 3 520 0 503 0 c 0
 483 0 477 10 477 20 c 0
 477 38 485 44 499 47 c 0
 515 50 538 49 566 54 c 1
 566 54 l 1
 475 280 l 1
 301 92 l 1
 301 92 l 1
 301 92 l 1
 270 59 l 1
 295 51 316 50 330 48 c 0
 346 46 355 43 355 27 c 0
 355 14 349 0 326 0 c 0
 313 0 276 3 200 3 c 0
 147 3 111 0 92 0 c 0
 78 0 66 4 66 20 c 0
EndSplineSet
EndChar
StartChar: bracketleft
Encoding: 91 91 59
Width: 356
Flags: MW
LayerCount: 2
Fore
SplineSet
69 -230 m 0
 69 -222 76 -199 79 -183 c 2
 305 719 l 2
 310 738 311 750 338 750 c 2
 455 750 l 2
 469 750 482 747 482 732 c 0
 482 724 478 714 458 713 c 1
 405 713 l 1
 174 -213 l 1
 218 -213 l 1
 234 -214 241 -223 241 -231 c 0
 241 -249 224 -250 215 -250 c 2
 96 -250 l 2
 81 -250 69 -246 69 -230 c 0
EndSplineSet
EndChar
StartChar: backslash
Encoding: 92 92 60
Width: 591
Flags: MW
LayerCount: 2
Fore
SplineSet
275 711 m 6
 274 716 273 722 273 728 c 0
 273 740 280 749 290 749 c 0
 306 749 309 732 310 719 c 2
 440 -211 l 2
 441 -216 442 -222 442 -228 c 0
 442 -240 435 -249 425 -249 c 0
 408 -249 406 -232 404 -219 c 2
 275 711 l 6
EndSplineSet
EndChar
StartChar: bracketright
Encoding: 93 93 61
Width: 356
Flags: MW
LayerCount: 2
Fore
SplineSet
-2 -232 m 0
 -2 -224 2 -214 23 -213 c 1
 75 -213 l 1
 307 713 l 1
 263 713 l 1
 246 714 239 722 239 731 c 0
 239 748 254 750 266 750 c 2
 385 750 l 2
 399 750 411 746 411 730 c 0
 411 722 405 698 401 683 c 2
 176 -219 l 2
 170 -239 169 -250 143 -250 c 2
 25 -250 l 2
 11 -250 -2 -247 -2 -232 c 0
EndSplineSet
EndChar
StartChar: asciicircum
Encoding: 94 94 62
Width: 709
Flags: MW
LayerCount: 2
Fore
SplineSet
263 489 m 0
 263 505 282 512 296 520 c 0
 457 607 490 626 501 630 c 4
 504 631 505 631 507 631 c 0
 518 631 532 617 552 603 c 2
 669 516 l 2
 681 506 689 500 689 490 c 0
 689 478 671 456 658 456 c 0
 653 456 641 462 625 471 c 0
 581 497 510 546 497 548 c 1
 496 548 l 2
 478 548 366 488 313 465 c 0
 300 459 291 456 287 456 c 0
 268 456 263 485 263 489 c 0
EndSplineSet
EndChar
StartChar: underscore
Encoding: 95 95 63
Width: 885
Flags: MW
LayerCount: 2
Fore
SplineSet
50 -278 m 0
 50 -267 56 -247 89 -247 c 2
 657 -247 l 2
 692 -247 695 -270 695 -278 c 0
 695 -290 689 -308 656 -308 c 2
 91 -308 l 2
 69 -308 50 -302 50 -278 c 0
EndSplineSet
EndChar
StartChar: grave
Encoding: 96 96 64
Width: 591
Flags: MW
LayerCount: 2
Fore
SplineSet
294 611 m 0
 294 643 325 675 357 675 c 0
 379 675 393 659 405 646 c 0
 422 627 436 612 446 600 c 4
 483 558 483 556 483 549 c 0
 483 537 465 515 451 515 c 0
 447 515 438 518 412 530 c 0
 396 537 373 548 340 562 c 0
 317 573 294 582 294 611 c 0
EndSplineSet
EndChar
StartChar: b
Encoding: 98 98 66
Width: 532
Flags: MW
LayerCount: 2
Fore
SplineSet
111 147 m 0
 111 184 119 216 126 247 c 2
 195 520 l 2
 203 553 212 585 220 618 c 0
 221 624 223 630 224 636 c 1
 206 638 189 638 177 639 c 0
 163 641 155 645 155 659 c 0
 155 689 184 686 198 687 c 2
 297 693 l 2
 309 694 313 694 316 694 c 0
 335 694 339 683 339 676 c 0
 339 673 338 667 335 652 c 4
 329 624 313 563 279 427 c 1
 305 443 338 456 378 456 c 0
 441 456 538 423 538 295 c 0
 538 162 440 -11 266 -11 c 0
 176 -11 111 43 111 147 c 0
207 103 m 0
 207 41 244 26 268 26 c 0
 308 26 343 60 359 86 c 0
 395 144 430 302 430 348 c 0
 430 405 396 419 373 419 c 0
 316 419 268 365 260 348 c 0
 259 346 254 330 247 302 c 2
 220 191 l 2
 214 168 207 135 207 103 c 0
EndSplineSet
EndChar
StartChar: e
Encoding: 101 101 69
Width: 532
Flags: MW
LayerCount: 2
Fore
SplineSet
108 164 m 0
 108 317 226 456 402 456 c 0
 479 456 532 417 532 358 c 0
 532 344 528 297 481 263 c 0
 448 238 396 218 255 218 c 2
 233 218 l 1
 228 196 217 154 217 117 c 0
 217 57 249 25 302 25 c 0
 354 25 424 46 474 93 c 0
 488 105 496 116 506 116 c 0
 517 116 534 95 534 86 c 0
 534 66 461 -11 299 -11 c 0
 181 -11 108 53 108 164 c 0
243 254 m 1
 251 254 260 254 268 254 c 4
 376 257 466 281 466 359 c 0
 466 396 439 419 402 419 c 0
 370 419 278 406 243 254 c 1
EndSplineSet
EndChar
StartChar: f
Encoding: 102 102 70
Width: 400
Flags: MW
LayerCount: 2
Fore
SplineSet
-19 -123 m 0
 -19 -83 14 -49 53 -49 c 0
 81 -49 102 -67 102 -95 c 0
 102 -111 94 -142 58 -160 c 1
 67 -164 78 -169 89 -169 c 0
 118 -169 131 -148 154 -39 c 0
 163 4 174 61 188 136 c 2
 236 397 l 1
 148 397 l 2
 135 397 119 397 119 417 c 0
 119 442 139 444 149 444 c 2
 244 444 l 1
 245 445 l 1
 252 492 259 528 266 555 c 4
 279 609 291 630 302 645 c 0
 330 685 379 706 425 706 c 0
 489 706 537 673 537 623 c 0
 537 586 509 549 466 549 c 0
 438 549 417 567 417 595 c 0
 417 611 424 641 460 659 c 1
 448 666 437 668 429 668 c 0
 407 668 396 653 391 642 c 0
 383 624 352 447 351 444 c 1
 459 444 l 2
 481 444 487 433 487 424 c 0
 487 398 466 396 457 396 c 0
 456 396 455 397 455 397 c 1
 342 397 l 1
 342 396 288 85 265 -3 c 0
 248 -68 227 -129 171 -174 c 0
 131 -205 101 -206 89 -206 c 0
 41 -206 -19 -181 -19 -123 c 0
EndSplineSet
EndChar
StartChar: h
Encoding: 104 104 72
Width: 591
Flags: MW
LayerCount: 2
Fore
SplineSet
74 32 m 0
 74 44 78 55 81 67 c 2
 207 571 l 2
 212 593 218 614 223 636 c 1
 205 638 189 638 177 639 c 0
 163 641 155 645 155 659 c 0
 155 675 161 682 179 686 c 0
 200 690 238 690 300 693 c 0
 305 693 310 694 315 694 c 0
 326 694 339 690 339 674 c 0
 339 667 336 659 335 653 c 2
 273 404 l 1
 307 433 347 456 408 456 c 0
 471 456 544 433 544 342 c 0
 544 279 506 186 482 118 c 4
 471 86 462 60 462 45 c 0
 462 34 465 26 477 26 c 0
 495 26 536 41 565 140 c 0
 571 162 579 162 597 162 c 2
 598 162 l 2
 609 162 622 162 622 146 c 0
 622 119 569 -11 470 -11 c 0
 413 -11 366 25 366 79 c 0
 366 92 373 114 382 140 c 0
 405 204 443 296 443 364 c 0
 443 391 434 419 398 419 c 0
 364 419 311 404 264 334 c 0
 253 319 252 320 240 274 c 0
 236 259 231 240 225 214 c 0
 216 177 203 127 186 57 c 0
 182 43 173 -11 120 -11 c 0
 95 -11 74 6 74 32 c 0
EndSplineSet
EndChar
StartChar: j
Encoding: 106 106 74
Width: 355
Flags: MW
LayerCount: 2
Fore
SplineSet
-30 -132 m 0
 -30 -92 3 -58 41 -58 c 0
 70 -58 91 -77 91 -104 c 0
 91 -120 85 -146 51 -167 c 1
 54 -168 58 -168 63 -168 c 0
 109 -168 151 -128 177 -24 c 2
 263 321 l 2
 273 361 275 375 275 389 c 0
 275 410 267 418 253 418 c 0
 230 418 179 399 139 307 c 0
 128 283 125 282 107 282 c 2
 99 282 l 1
 83 283 79 289 79 297 c 0
 79 320 147 455 260 455 c 0
 324 455 376 416 376 356 c 0
 376 334 368 311 364 297 c 2
 282 -34 l 2
 275 -61 272 -76 258 -99 c 0
 216 -169 132 -206 64 -206 c 0
 9 -206 -30 -176 -30 -132 c 0
293 625 m 0
 293 661 328 693 363 693 c 0
 392 693 412 672 412 645 c 0
 412 612 379 577 342 577 c 0
 315 577 293 596 293 625 c 0
EndSplineSet
EndChar
StartChar: n
Encoding: 110 110 78
Width: 650
Flags: MW
LayerCount: 2
Fore
SplineSet
77 299 m 0
 77 307 89 349 104 379 c 0
 131 435 163 455 202 455 c 0
 232 455 292 443 312 385 c 1
 344 418 392 456 465 456 c 0
 545 456 604 423 604 342 c 0
 604 282 567 190 542 122 c 4
 530 88 521 61 521 45 c 0
 521 31 528 26 537 26 c 0
 554 26 595 42 624 140 c 0
 631 161 637 162 656 162 c 0
 668 162 682 161 682 146 c 0
 682 122 631 -11 530 -11 c 0
 473 -11 425 25 425 79 c 0
 425 93 433 118 444 148 c 0
 467 212 502 301 502 363 c 0
 502 408 481 419 456 419 c 0
 430 419 374 409 324 336 c 0
 312 318 311 323 293 252 c 0
 288 233 282 208 274 176 c 0
 266 145 258 107 246 61 c 0
 243 51 234 -11 178 -11 c 0
 153 -11 133 6 133 31 c 0
 133 41 136 51 138 60 c 2
 201 312 l 2
 208 337 215 368 215 389 c 0
 215 403 211 418 197 418 c 0
 155 418 137 302 129 290 c 0
 124 283 118 282 104 282 c 0
 89 282 77 284 77 299 c 0
EndSplineSet
EndChar
StartChar: p
Encoding: 112 112 80
Width: 591
Flags: MW
LayerCount: 2
Fore
SplineSet
24 -174 m 0
 24 -157 31 -151 42 -148 c 0
 54 -145 70 -147 86 -145 c 1
 91 -127 96 -108 100 -90 c 2
 204 326 l 2
 213 362 215 376 215 388 c 0
 215 414 203 418 196 418 c 0
 155 418 137 304 130 292 c 0
 125 283 116 282 106 282 c 0
 84 282 77 287 77 298 c 0
 77 303 78 308 80 315 c 0
 93 363 110 394 126 415 c 0
 156 453 186 455 202 455 c 0
 245 455 282 436 303 403 c 1
 336 429 377 456 435 456 c 0
 500 456 596 423 596 295 c 0
 596 160 495 -11 326 -11 c 0
 290 -11 263 -2 235 21 c 1
 206 -96 l 25
 194 -145 l 1
 213 -146 228 -146 240 -147 c 0
 254 -149 262 -153 262 -167 c 0
 262 -178 257 -194 235 -194 c 0
 224 -194 193 -192 131 -192 c 0
 65 -192 56 -194 48 -194 c 0
 36 -194 24 -190 24 -174 c 0
254 89 m 0
 254 76 271 26 326 26 c 0
 365 26 399 56 417 86 c 0
 452 141 488 299 488 348 c 0
 488 387 470 419 431 419 c 0
 389 419 349 389 326 360 c 0
 320 353 318 349 314 335 c 0
 312 327 309 315 304 297 c 0
 303 294 267 152 257 104 c 4
 255 96 254 91 254 89 c 0
EndSplineSet
EndChar
StartChar: q
Encoding: 113 113 81
Width: 532
Flags: MW
LayerCount: 2
Fore
SplineSet
104 150 m 0
 104 278 199 456 373 456 c 0
 414 456 442 445 471 417 c 1
 501 443 547 454 555 454 c 0
 570 454 574 444 574 436 c 0
 574 435 573 431 572 425 c 0
 565 391 539 293 538 288 c 2
 430 -145 l 1
 430 -145 l 1
 449 -146 464 -146 476 -147 c 4
 490 -149 498 -153 498 -167 c 0
 498 -179 493 -194 470 -194 c 0
 448 -194 448 -192 360 -192 c 2
 342 -192 l 2
 309 -192 285 -194 269 -194 c 0
 252 -194 241 -191 241 -174 c 0
 241 -162 245 -156 252 -152 c 0
 268 -143 299 -149 323 -143 c 1
 323 -143 l 1
 363 17 l 1
 332 0 302 -11 264 -11 c 0
 200 -11 104 21 104 150 c 0
212 97 m 0
 212 38 247 26 270 26 c 0
 306 26 339 48 359 68 c 0
 372 81 376 82 386 113 c 0
 396 144 410 205 443 339 c 0
 445 344 446 349 446 354 c 0
 446 368 437 390 418 404 c 0
 407 413 392 419 374 419 c 0
 337 419 303 391 282 357 c 0
 253 310 212 153 212 97 c 0
EndSplineSet
EndChar
StartChar: t
Encoding: 116 116 84
Width: 385
Flags: MW
LayerCount: 2
Fore
SplineSet
91 417 m 0
 91 428 96 444 119 444 c 2
 206 444 l 1
 209 458 233 557 240 585 c 0
 255 643 293 646 306 646 c 0
 330 646 350 629 350 604 c 0
 350 599 348 588 345 573 c 4
 337 536 321 479 313 444 c 1
 388 444 l 2
 409 444 415 435 415 425 c 0
 415 415 411 397 387 397 c 2
 300 397 l 1
 233 126 l 2
 225 95 221 71 221 55 c 0
 221 35 227 26 242 26 c 0
 265 26 316 46 357 138 c 0
 365 156 368 162 385 162 c 2
 391 162 l 2
 404 162 417 161 417 147 c 0
 417 127 349 -11 236 -11 c 0
 170 -11 120 29 120 88 c 0
 120 107 126 126 132 150 c 2
 193 397 l 1
 118 397 l 1
 103 396 91 401 91 417 c 0
EndSplineSet
EndChar
StartChar: u
Encoding: 117 117 85
Width: 620
Flags: MW
LayerCount: 2
Fore
SplineSet
77 299 m 0
 77 325 131 456 230 456 c 0
 281 456 334 424 334 365 c 0
 334 352 329 334 321 312 c 0
 300 253 261 168 261 93 c 0
 261 35 293 26 314 26 c 0
 345 26 372 43 392 65 c 0
 416 91 412 96 418 118 c 2
 484 385 l 2
 497 434 529 444 549 444 c 0
 573 444 593 428 593 402 c 0
 593 397 590 384 586 366 c 0
 571 303 537 178 522 106 c 4
 517 83 514 66 514 57 c 0
 514 30 526 26 533 26 c 0
 569 26 588 112 595 139 c 0
 600 160 606 162 628 162 c 0
 638 162 652 161 652 146 c 0
 652 133 636 90 634 83 c 0
 606 15 570 -11 528 -11 c 0
 490 -11 451 4 426 40 c 1
 394 12 361 -11 306 -11 c 0
 239 -11 160 14 160 116 c 0
 160 176 189 247 211 306 c 0
 226 345 238 378 238 398 c 0
 238 409 235 418 222 418 c 0
 206 418 187 403 174 389 c 1
 138 343 139 297 126 287 c 0
 123 284 113 282 103 282 c 0
 90 282 77 286 77 299 c 0
EndSplineSet
EndChar
StartChar: v
Encoding: 118 118 86
Width: 532
Flags: MW
LayerCount: 2
Fore
SplineSet
78 299 m 0
 78 323 129 455 230 455 c 0
 283 455 334 423 334 365 c 0
 334 353 330 336 323 316 c 0
 303 257 263 172 263 99 c 0
 263 34 305 26 326 26 c 0
 435 26 480 261 480 276 c 0
 480 311 458 327 440 344 c 0
 428 355 419 366 419 384 c 0
 419 417 453 456 491 456 c 0
 516 456 554 435 554 369 c 0
 554 310 495 -11 321 -11 c 0
 245 -11 161 15 161 119 c 0
 161 172 187 241 209 300 c 4
 225 342 238 379 238 400 c 0
 238 411 234 418 222 418 c 0
 162 418 135 296 128 288 c 0
 121 281 109 282 100 282 c 0
 88 282 78 285 78 299 c 0
EndSplineSet
EndChar
StartChar: w
Encoding: 119 119 87
Width: 768
Flags: MW
LayerCount: 2
Fore
SplineSet
77 299 m 0
 77 321 128 455 229 455 c 0
 287 455 334 419 334 365 c 0
 334 352 328 334 321 313 c 0
 301 255 263 173 263 104 c 0
 263 41 302 26 334 26 c 0
 379 26 411 81 411 105 c 0
 411 110 410 116 410 121 c 0
 410 130 412 145 416 165 c 4
 432 248 473 401 479 411 c 0
 490 430 512 444 534 444 c 0
 557 444 579 428 579 401 c 0
 579 392 573 367 565 334 c 0
 552 284 533 216 522 164 c 0
 516 137 513 114 513 100 c 0
 513 40 546 26 577 26 c 0
 613 26 638 51 659 91 c 0
 680 132 696 187 711 245 c 0
 713 255 716 265 716 276 c 0
 716 309 697 325 680 340 c 0
 666 352 654 364 654 384 c 0
 654 417 686 456 726 456 c 0
 751 456 789 436 789 369 c 0
 789 313 750 145 697 65 c 0
 652 -2 605 -11 570 -11 c 0
 481 -11 448 23 434 40 c 1
 433 40 l 1
 392 -9 354 -11 327 -11 c 0
 286 -11 241 -4 209 19 c 0
 180 39 161 72 161 122 c 0
 161 177 190 250 212 310 c 0
 226 348 238 381 238 400 c 0
 238 412 234 418 223 418 c 0
 203 418 163 400 135 306 c 0
 130 289 129 282 106 282 c 0
 93 282 77 282 77 299 c 0
EndSplineSet
EndChar
StartChar: x
Encoding: 120 120 88
Width: 560
Flags: MW
LayerCount: 2
Fore
SplineSet
66 78 m 0
 66 120 96 155 138 155 c 0
 165 155 187 137 187 109 c 0
 187 90 176 57 136 42 c 1
 149 31 163 25 176 25 c 0
 226 25 247 83 270 176 c 0
 279 212 289 254 300 299 c 0
 310 341 312 356 312 370 c 0
 312 409 283 419 262 419 c 0
 207 419 157 367 137 310 c 0
 130 291 130 283 108 282 c 1
 103 282 l 2
 83 282 77 288 77 298 c 0
 77 324 138 455 268 455 c 0
 347 455 379 418 391 402 c 1
 413 425 444 456 494 456 c 0
 546 456 603 426 603 366 c 0
 603 324 572 289 531 289 c 0
 503 289 482 308 482 336 c 0
 482 356 493 387 533 403 c 1
 518 414 505 419 492 419 c 0
 476 419 435 411 411 316 c 0
 400 271 391 235 384 206 c 4
 361 113 356 93 356 75 c 0
 356 35 385 26 407 26 c 0
 457 26 508 71 532 134 c 0
 538 150 537 162 560 162 c 2
 566 162 l 2
 586 162 592 156 592 147 c 0
 592 115 526 -11 402 -11 c 0
 349 -11 304 5 277 43 c 1
 276 43 l 1
 250 10 215 -11 174 -11 c 0
 123 -11 66 18 66 78 c 0
EndSplineSet
EndChar
StartChar: y
Encoding: 121 121 89
Width: 562
Flags: MW
LayerCount: 2
Fore
SplineSet
77 299 m 0
 77 322 128 456 230 456 c 0
 287 456 334 418 334 365 c 0
 334 352 328 332 319 308 c 4
 298 248 261 162 261 96 c 0
 261 34 293 25 314 25 c 0
 339 25 368 39 391 63 c 0
 411 85 410 89 417 116 c 2
 482 376 l 2
 486 390 495 444 549 444 c 0
 573 444 593 428 593 402 c 0
 593 393 592 386 590 378 c 2
 500 20 l 2
 493 -8 477 -100 370 -165 c 0
 323 -194 274 -206 232 -206 c 0
 159 -206 107 -170 107 -115 c 0
 107 -71 140 -39 178 -39 c 0
 207 -39 227 -58 227 -85 c 0
 227 -102 218 -136 180 -151 c 1
 180 -152 l 1
 195 -162 210 -169 233 -169 c 0
 296 -169 365 -102 391 13 c 1
 362 -4 338 -11 306 -11 c 0
 239 -11 160 14 160 115 c 0
 160 171 187 243 209 302 c 0
 225 344 238 379 238 400 c 0
 238 412 234 418 221 418 c 0
 209 418 192 410 174 388 c 0
 139 343 138 297 127 287 c 0
 123 284 113 282 103 282 c 0
 90 282 77 286 77 299 c 0
EndSplineSet
EndChar
StartChar: braceleft
Encoding: 123 123 91
Width: 591
Flags: MW
LayerCount: 2
Fore
SplineSet
162 248 m 0
 162 272 189 267 211 272 c 0
 262 283 310 316 330 363 c 0
 341 389 390 612 405 644 c 0
 440 717 541 750 648 750 c 0
 662 750 671 747 671 734 c 0
 671 707 645 717 604 706 c 1
 565 694 527 668 509 633 c 0
 494 603 450 388 434 351 c 0
 410 296 356 266 294 249 c 1
 334 234 382 209 382 149 c 0
 382 111 316 -104 316 -139 c 0
 316 -183 356 -208 408 -213 c 0
 419 -214 431 -215 431 -230 c 0
 431 -248 416 -250 405 -250 c 0
 332 -250 210 -232 210 -139 c 0
 210 -102 276 118 276 152 c 0
 276 185 251 224 191 231 c 0
 179 232 162 231 162 248 c 0
EndSplineSet
EndChar
StartChar: bar
Encoding: 124 124 92
Width: 355
Flags: MW
LayerCount: 2
Fore
SplineSet
93 -219 m 0
 93 -210 97 -197 99 -186 c 2
 322 704 l 2
 327 724 331 749 357 749 c 0
 372 749 386 737 386 719 c 0
 386 710 383 701 382 693 c 2
 154 -216 l 2
 147 -247 129 -249 122 -249 c 0
 107 -249 93 -237 93 -219 c 0
EndSplineSet
EndChar
StartChar: braceright
Encoding: 125 125 93
Width: 591
Flags: MW
LayerCount: 2
Fore
SplineSet
42 -234 m 0
 42 -207 70 -217 110 -206 c 1
 205 -177 215 -107 217 -96 c 0
 278 146 275 135 280 147 c 0
 306 212 369 235 421 251 c 1
 382 263 333 291 333 350 c 0
 333 386 398 607 398 639 c 0
 398 690 346 710 307 713 c 0
 295 714 283 715 283 730 c 0
 283 749 300 750 309 750 c 2
 312 750 l 2
 382 750 505 731 505 639 c 0
 505 599 439 384 439 349 c 0
 439 298 484 274 523 269 c 0
 533 268 551 270 551 252 c 0
 551 228 525 233 503 228 c 0
 453 217 404 184 384 137 c 0
 380 126 323 -102 322 -104 c 0
 318 -120 312 -165 259 -201 c 0
 229 -222 170 -249 70 -250 c 1
 66 -250 l 2
 53 -250 42 -248 42 -234 c 0
EndSplineSet
EndChar
StartChar: asciitilde
Encoding: 126 126 94
Width: 709
Flags: MW
LayerCount: 2
Fore
SplineSet
267 593 m 0
 267 604 283 617 296 628 c 0
 329 658 375 694 432 694 c 0
 509 694 551 633 614 633 c 0
 678 633 720 693 739 693 c 0
 748 693 756 684 756 676 c 0
 756 668 750 662 743 655 c 0
 714 628 658 575 592 575 c 0
 514 575 473 636 410 636 c 0
 345 636 304 576 284 576 c 0
 275 576 267 585 267 593 c 0
EndSplineSet
EndChar
StartChar: exclamdown
Encoding: 161 161 100
Width: 386
Flags: MW
LayerCount: 2
Fore
SplineSet
80 -160 m 0
 80 -148 84 -138 87 -128 c 2
 224 250 l 2
 230 266 233 274 240 278 c 4
 245 280 251 281 262 281 c 0
 282 281 286 274 286 262 c 0
 286 256 285 249 284 241 c 2
 232 -133 l 2
 230 -148 226 -161 220 -171 c 0
 198 -211 156 -216 143 -216 c 0
 108 -216 80 -194 80 -160 c 0
224 413 m 0
 224 457 266 500 313 500 c 0
 347 500 374 476 374 439 c 0
 374 396 333 352 286 352 c 0
 249 352 224 380 224 413 c 0
EndSplineSet
EndChar
StartChar: cent
Encoding: 162 162 101
Width: 591
Flags: MW
LayerCount: 2
Fore
SplineSet
113 164 m 0
 113 269 192 445 414 461 c 1
 430 531 431 547 456 547 c 0
 468 547 478 540 478 529 c 0
 478 521 474 502 463 461 c 1
 519 459 611 451 611 382 c 0
 611 345 582 307 539 307 c 0
 513 307 490 324 490 353 c 0
 490 381 506 398 522 412 c 1
 501 417 477 420 453 420 c 1
 356 30 l 1
 433 35 472 81 493 108 c 0
 500 117 505 125 509 127 c 1
 516 133 526 132 534 132 c 2
 535 132 l 2
 543 132 549 131 552 128 c 4
 555 126 557 122 557 118 c 0
 557 99 521 64 510 53 c 1
 438 -10 362 -5 349 -12 c 0
 347 -13 346 -16 344 -19 c 0
 336 -36 331 -78 323 -89 c 0
 318 -95 311 -97 303 -97 c 0
 287 -97 282 -90 282 -77 c 0
 282 -62 289 -40 296 -10 c 1
 138 5 113 104 113 164 c 0
229 141 m 0
 229 55 287 39 307 34 c 1
 322 92 l 1
 403 418 l 1
 385 413 367 408 350 398 c 0
 334 389 319 377 307 363 c 0
 275 328 257 284 245 238 c 0
 237 208 229 178 229 141 c 0
EndSplineSet
EndChar
StartChar: sterling
Encoding: 163 163 102
Width: 868
Flags: MW
LayerCount: 2
Fore
SplineSet
99 38 m 0
 99 81 155 139 250 139 c 0
 269 139 285 136 302 133 c 1
 351 323 l 1
 302 323 l 2
 288 323 278 326 278 341 c 0
 278 347 279 356 284 362 c 0
 288 367 294 371 303 371 c 1
 363 371 l 1
 366 385 401 527 409 549 c 0
 457 680 574 710 643 710 c 0
 730 710 783 648 783 566 c 0
 783 482 738 463 708 463 c 0
 679 463 659 482 659 509 c 0
 659 527 671 569 721 578 c 0
 723 578 726 579 728 579 c 1
 727 586 726 592 725 598 c 4
 713 658 674 673 643 673 c 0
 635 673 593 672 557 634 c 0
 541 616 528 593 514 547 c 0
 502 508 489 453 470 371 c 1
 551 371 l 2
 568 371 573 365 573 355 c 0
 573 343 569 324 547 323 c 1
 458 323 l 1
 430 212 421 171 413 147 c 0
 407 129 402 121 392 102 c 1
 423 90 489 56 547 56 c 0
 608 56 641 104 652 131 c 0
 659 148 660 152 680 153 c 1
 684 153 l 2
 698 153 710 151 710 137 c 0
 710 101 640 -11 516 -11 c 0
 457 -11 388 20 337 42 c 9
 337 42 l 17
 293 7 235 -11 180 -11 c 0
 113 -11 99 18 99 38 c 0
165 40 m 0
 165 28 176 26 184 26 c 0
 192 26 232 28 267 66 c 1
 262 67 238 71 219 71 c 0
 184 71 165 53 165 40 c 0
EndSplineSet
EndChar
StartChar: currency
Encoding: 164 164 106
Width: 824
Flags: MW
LayerCount: 2
Fore
SplineSet
65 -24 m 0
 65 -8 81 3 90 10 c 0
 134 46 189 90 200 98 c 9
 200 98 l 17
 181 127 175 162 175 207 c 0
 175 329 241 435 296 484 c 1
 224 580 220 581 220 597 c 0
 220 613 234 626 250 626 c 0
 268 626 279 608 296 585 c 2
 343 522 l 1
 343 522 l 1
 402 560 470 583 550 583 c 0
 674 583 715 526 729 526 c 0
 739 526 816 593 846 615 c 0
 851 619 860 626 871 626 c 0
 886 626 900 614 900 597 c 0
 900 579 885 569 875 561 c 2
 818 515 l 1
 765 473 l 1
 765 473 l 1
 782 439 790 408 790 365 c 0
 790 243 724 137 669 88 c 1
 741 -8 745 -9 745 -25 c 0
 745 -41 731 -54 715 -54 c 0
 705 -54 699 -52 687 -37 c 0
 675 -23 657 3 622 50 c 1
 576 22 514 -11 417 -11 c 0
 316 -11 266 23 236 50 c 9
 236 50 l 21
 224 40 128 -37 116 -46 c 0
 111 -49 104 -54 95 -54 c 0
 79 -54 65 -43 65 -24 c 0
236 207 m 0
 236 81 336 49 415 49 c 0
 617 49 730 222 730 364 c 0
 730 491 631 523 550 523 c 0
 345 523 236 345 236 207 c 0
EndSplineSet
EndChar
StartChar: yen
Encoding: 165 165 95
Width: 865
Flags: MW
LayerCount: 2
Fore
SplineSet
151 218 m 0
 151 235 168 236 181 236 c 2
 425 236 l 1
 431 262 433 266 433 274 c 0
 433 279 432 281 381 422 c 1
 234 422 l 2
 213 422 207 431 207 440 c 0
 207 456 222 458 235 458 c 2
 367 458 l 1
 362 474 323 582 312 613 c 1
 301 641 307 636 236 638 c 0
 222 639 212 644 212 658 c 0
 212 670 217 686 240 686 c 0
 254 686 268 683 383 683 c 2
 394 683 l 1
 500 684 513 686 526 686 c 0
 543 686 549 676 549 666 c 0
 549 656 547 650 543 646 c 4
 536 639 526 638 521 638 c 2
 509 638 l 2
 498 638 482 638 457 634 c 1
 521 458 l 1
 636 458 l 2
 657 458 653 461 761 585 c 2
 800 630 l 1
 772 639 749 635 736 641 c 0
 730 644 726 649 726 659 c 0
 726 670 731 686 753 686 c 0
 776 686 799 683 867 683 c 0
 922 683 949 685 958 685 c 0
 969 685 982 682 982 666 c 0
 982 621 925 650 876 624 c 0
 853 612 867 623 724 458 c 1
 807 458 l 2
 810 458 816 459 824 459 c 2
 838 459 l 2
 857 459 876 457 876 440 c 0
 876 433 872 422 849 422 c 2
 709 422 l 2
 697 422 692 421 680 407 c 2
 579 290 l 2
 564 273 566 275 556 236 c 1
 791 236 l 2
 804 236 820 235 820 218 c 0
 820 201 804 200 792 200 c 2
 547 200 l 1
 509 50 l 1
 529 48 548 48 567 48 c 2
 586 48 l 2
 596 48 602 45 606 41 c 0
 609 37 611 32 611 27 c 0
 611 21 609 14 604 8 c 0
 600 3 593 0 583 0 c 0
 553 0 553 3 433 3 c 0
 317 3 303 0 289 0 c 0
 266 0 263 12 263 20 c 0
 263 25 264 31 267 36 c 0
 271 42 278 47 291 48 c 1
 305 48 l 2
 375 48 378 49 383 69 c 0
 390 95 405 161 416 200 c 1
 179 200 l 2
 168 200 151 201 151 218 c 0
535 422 m 1
 560 352 l 1
 620 422 l 1
 535 422 l 1
EndSplineSet
EndChar
StartChar: brokenbar
Encoding: 166 166 96
Width: 238
Flags: MW
LayerCount: 2
Fore
SplineSet
34 -220 m 0
 34 -211 38 -195 41 -184 c 2
 118 125 l 2
 122 139 127 168 153 168 c 0
 166 168 183 158 183 138 c 0
 183 129 179 119 172 91 c 2
 98 -207 l 2
 93 -225 89 -250 63 -250 c 0
 49 -250 34 -237 34 -220 c 0
179 362 m 0
 179 372 183 383 191 413 c 2
 264 707 l 2
 268 723 273 749 298 749 c 0
 313 749 328 737 328 719 c 0
 328 709 323 694 317 669 c 2
 243 373 l 2
 238 354 233 331 209 331 c 0
 193 331 179 344 179 362 c 0
EndSplineSet
EndChar
StartChar: section
Encoding: 167 167 105
Width: 549
Flags: MW
LayerCount: 2
Fore
SplineSet
96 -101 m 0
 96 -45 135 -25 162 -25 c 0
 186 -25 206 -42 206 -68 c 0
 206 -86 195 -117 158 -129 c 1
 167 -146 186 -169 228 -169 c 0
 310 -169 368 -72 368 -34 c 0
 368 5 305 24 272 39 c 0
 213 67 162 124 162 208 c 0
 162 298 217 356 273 387 c 1
 248 420 235 454 235 499 c 0
 235 627 349 706 448 706 c 0
 520 706 577 664 577 602 c 0
 577 545 538 525 511 525 c 0
 487 525 467 542 467 568 c 0
 467 586 479 618 516 629 c 1
 506 645 487 669 445 669 c 0
 363 669 305 573 305 534 c 0
 305 511 327 497 339 489 c 0
 355 480 390 469 424 447 c 4
 468 419 511 374 511 292 c 0
 511 203 457 144 401 113 c 1
 401 112 l 1
 425 80 439 44 439 0 c 0
 439 -123 327 -206 225 -206 c 0
 153 -206 96 -164 96 -101 c 0
232 242 m 0
 232 194 303 190 369 145 c 1
 420 184 441 235 441 259 c 0
 441 307 365 311 305 355 c 1
 253 319 232 265 232 242 c 0
EndSplineSet
EndChar
StartChar: dieresis
Encoding: 168 168 215
Width: 591
Flags: MW
LayerCount: 2
Fore
SplineSet
269 599 m 0
 269 643 311 686 358 686 c 0
 395 686 420 659 420 625 c 0
 420 582 378 539 331 539 c 0
 294 539 269 565 269 599 c 0
475 599 m 0
 475 643 516 686 564 686 c 0
 601 686 626 659 626 625 c 0
 626 582 584 539 537 539 c 0
 503 539 475 563 475 599 c 0
EndSplineSet
EndChar
StartChar: copyright
Encoding: 169 169 143
Width: 1239
Flags: MW
LayerCount: 2
Fore
SplineSet
376 178 m 0
 376 329 511 503 749 503 c 0
 838 503 864 463 879 463 c 0
 888 463 909 479 929 491 c 4
 940 497 950 502 958 502 c 0
 965 502 975 499 975 486 c 0
 975 478 947 368 934 317 c 0
 929 296 924 293 906 293 c 2
 898 293 l 2
 874 293 870 298 870 311 c 0
 870 318 871 326 871 336 c 0
 871 389 844 455 764 455 c 0
 698 455 624 429 579 363 c 0
 533 297 513 174 513 139 c 0
 513 48 591 26 652 26 c 0
 722 26 774 64 804 100 c 0
 826 126 833 145 837 158 c 0
 840 166 841 172 846 175 c 0
 850 178 856 179 866 179 c 2
 867 179 l 2
 883 179 894 177 894 164 c 0
 894 160 894 156 892 151 c 0
 865 62 759 -22 626 -22 c 0
 495 -22 376 36 376 178 c 0
133 107 m 0
 133 287 219 466 331 580 c 0
 463 714 640 772 806 772 c 0
 1052 772 1230 642 1230 393 c 0
 1230 206 1132 -20 949 -151 c 1
 834 -232 694 -272 558 -272 c 0
 311 -272 133 -143 133 107 c 0
194 107 m 0
 194 -148 396 -212 557 -212 c 0
 786 -212 1012 -92 1118 157 c 0
 1142 214 1169 299 1169 393 c 0
 1169 648 966 712 807 712 c 0
 587 712 356 603 245 343 c 0
 221 286 194 201 194 107 c 0
EndSplineSet
EndChar
StartChar: ordfeminine
Encoding: 170 170 131
Width: 532
Flags: MW
LayerCount: 2
Fore
SplineSet
97 503 m 0
 97 613 180 762 327 762 c 0
 362 762 384 752 405 731 c 9
 405 731 l 17
 416 737 427 743 442 743 c 0
 466 743 486 727 486 700 c 0
 486 674 426 486 426 432 c 0
 426 419 429 402 445 402 c 0
 486 402 505 516 511 527 c 0
 516 536 526 538 535 538 c 0
 553 538 564 535 564 521 c 0
 564 514 553 475 540 447 c 0
 513 387 480 364 440 364 c 0
 381 364 352 398 344 407 c 1
 343 407 l 1
 314 382 278 364 235 364 c 0
 181 364 97 392 97 503 c 0
204 447 m 0
 204 410 226 401 240 401 c 0
 280 401 320 443 324 459 c 2
 376 683 l 1
 376 700 357 725 328 725 c 0
 300 725 273 700 260 672 c 0
 238 627 204 485 204 447 c 0
EndSplineSet
EndChar
StartChar: guillemotleft
Encoding: 171 171 108
Width: 650
Flags: MW
LayerCount: 2
Fore
SplineSet
201 222 m 0
 201 235 210 236 276 279 c 0
 331 315 384 353 436 394 c 2
 478 428 l 2
 486 434 494 442 504 443 c 0
 505 444 506 444 507 444 c 0
 516 444 524 438 524 430 c 0
 524 426 522 422 519 419 c 0
 513 410 505 402 498 395 c 2
 459 355 l 1
 402 300 l 1
 366 268 329 235 310 220 c 9
 310 220 l 21
 350 162 387 96 417 29 c 1
 418 24 421 19 420 12 c 0
 418 4 411 1 404 1 c 0
 400 1 396 2 393 3 c 0
 385 8 380 17 375 23 c 2
 348 60 l 1
 318 97 286 132 252 166 c 1
 213 203 l 2
 208 208 201 214 201 222 c 0
393 222 m 0
 393 232 406 240 438 264 c 0
 462 282 497 310 546 353 c 0
 589 392 593 402 609 402 c 0
 617 402 625 398 625 389 c 0
 625 376 549 288 477 220 c 9
 477 220 l 17
 496 185 537 96 542 62 c 0
 542 60 542 58 542 56 c 0
 542 48 534 42 526 42 c 0
 502 42 495 88 426 174 c 0
 402 205 393 212 393 222 c 0
EndSplineSet
EndChar
StartChar: logicalnot
Encoding: 172 172 144
Width: 768
Flags: MW
LayerCount: 2
Fore
SplineSet
175 340 m 0
 175 352 181 370 214 370 c 2
 723 370 l 2
 757 370 761 351 761 338 c 0
 761 329 760 328 705 107 c 0
 700 88 696 61 670 61 c 0
 654 61 640 74 640 92 c 0
 640 102 647 125 693 310 c 1
 204 310 l 1
 190 312 175 322 175 340 c 0
EndSplineSet
EndChar
StartChar: softhyphen
Encoding: 173 173 142
Width: 238
Flags: MW
LayerCount: 2
Fore
SplineSet
91 195 m 0
 91 203 98 229 102 245 c 0
 105 254 107 260 112 264 c 0
 117 268 123 269 134 269 c 2
 360 269 l 2
 376 269 385 262 385 249 c 0
 385 244 379 216 373 195 c 0
 370 188 367 183 362 180 c 4
 357 177 352 176 344 176 c 2
 118 176 l 2
 95 176 91 187 91 195 c 0
EndSplineSet
EndChar
StartChar: registered
Encoding: 174 174 145
Width: 1239
Flags: MW
LayerCount: 2
Fore
SplineSet
281 20 m 0
 281 31 286 47 309 48 c 1
 326 48 l 2
 361 48 383 49 396 52 c 1
 396 52 l 1
 490 430 l 1
 490 430 l 1
 472 432 453 433 434 433 c 2
 416 433 l 2
 406 433 399 435 395 439 c 1
 391 443 389 448 389 453 c 0
 389 463 393 481 419 481 c 0
 423 481 426 480 430 480 c 2
 686 480 l 2
 736 480 787 480 835 465 c 0
 903 443 928 406 928 367 c 0
 928 299 859 260 780 237 c 1
 807 223 830 199 830 161 c 0
 830 138 822 90 822 67 c 0
 822 40 829 15 858 15 c 0
 897 15 917 71 922 88 c 0
 928 106 935 110 952 110 c 2
 953 110 l 2
 960 110 979 109 979 91 c 0
 979 71 945 -22 852 -22 c 1
 774 -21 675 -16 675 68 c 0
 675 99 696 147 696 174 c 0
 696 191 691 202 683 209 c 4
 670 221 650 222 640 222 c 2
 570 222 l 1
 527 50 l 1
 547 48 566 48 586 48 c 2
 605 48 l 2
 622 48 629 38 629 27 c 0
 629 19 626 7 613 2 c 0
 609 1 605 0 600 0 c 0
 586 0 554 3 452 3 c 0
 366 3 326 0 308 0 c 0
 292 0 281 4 281 20 c 0
580 259 m 1
 635 259 l 2
 707 259 740 268 760 294 c 0
 771 309 778 330 784 357 c 0
 786 366 788 376 788 385 c 0
 788 433 726 433 680 433 c 2
 671 433 l 2
 655 433 639 433 623 431 c 1
 612 385 l 1
 580 259 l 1
133 107 m 0
 133 287 219 466 331 580 c 0
 463 714 640 772 806 772 c 0
 1052 772 1230 642 1230 393 c 0
 1230 206 1132 -20 949 -151 c 1
 834 -232 694 -272 558 -272 c 0
 311 -272 133 -143 133 107 c 0
194 107 m 0
 194 -148 396 -212 557 -212 c 0
 786 -212 1012 -92 1118 157 c 0
 1142 214 1169 299 1169 393 c 0
 1169 648 966 712 807 712 c 0
 587 712 356 603 245 343 c 0
 221 286 194 201 194 107 c 0
EndSplineSet
EndChar
StartChar: macron
Encoding: 175 175 127
Width: 591
Flags: MW
LayerCount: 2
Fore
SplineSet
274 678 m 0
 274 707 296 708 303 708 c 2
 630 708 l 2
 644 708 657 705 657 688 c 0
 657 673 651 658 627 658 c 2
 300 658 l 2
 285 658 274 663 274 678 c 0
EndSplineSet
EndChar
StartChar: degree
Encoding: 176 176 146
Width: 414
Flags: MW
LayerCount: 2
Fore
SplineSet
227 543 m 0
 227 611 282 686 370 686 c 0
 427 686 469 651 469 594 c 0
 469 525 414 451 326 451 c 0
 268 451 227 486 227 543 c 0
288 544 m 0
 288 523 301 512 326 512 c 0
 380 512 408 559 408 593 c 0
 408 614 395 625 370 625 c 0
 316 625 288 578 288 544 c 0
EndSplineSet
EndChar
StartChar: plusminus
Encoding: 177 177 147
Width: 885
Flags: MW
LayerCount: 2
Fore
SplineSet
94 15 m 0
 94 27 103 42 121 45 c 1
 422 45 l 1
 423 46 l 1
 488 308 l 1
 214 308 l 2
 210 308 207 309 204 309 c 4
 183 312 174 324 174 337 c 0
 174 350 183 363 196 367 c 0
 204 369 212 368 219 368 c 2
 503 368 l 1
 574 653 l 2
 576 662 581 690 608 690 c 0
 625 690 637 674 637 661 c 0
 637 643 589 468 566 368 c 1
 840 368 l 2
 875 368 879 347 879 338 c 0
 879 327 871 314 857 310 c 0
 850 307 842 308 834 308 c 2
 550 308 l 1
 550 307 l 1
 485 45 l 1
 756 45 l 2
 771 45 798 43 798 15 c 0
 798 3 792 -15 759 -15 c 2
 134 -15 l 2
 100 -15 94 3 94 15 c 0
EndSplineSet
EndChar
StartChar: two.superior
Encoding: 178 178 148
Width: 532
Flags: MW
LayerCount: 2
Fore
SplineSet
178 352 m 0
 178 358 181 367 185 378 c 0
 196 404 219 439 248 465 c 0
 322 532 374 524 437 574 c 0
 467 598 476 615 484 653 c 0
 486 664 488 675 488 686 c 0
 488 726 453 736 422 736 c 2
 421 736 l 1
 337 735 280 686 280 648 c 0
 280 635 288 625 305 625 c 0
 344 625 383 655 383 673 c 0
 383 684 366 690 366 701 c 0
 366 710 376 720 386 720 c 0
 398 720 422 700 422 677 c 0
 422 639 369 588 299 588 c 0
 257 588 224 612 224 647 c 0
 224 687 271 772 427 772 c 0
 569 772 602 701 602 654 c 0
 602 591 553 552 411 495 c 0
 369 479 339 470 296 436 c 1
 311 436 325 436 339 437 c 0
 377 439 413 442 469 442 c 0
 516 442 536 447 547 453 c 4
 564 462 555 473 581 473 c 2
 587 473 l 2
 601 473 612 471 612 456 c 0
 612 424 548 336 443 336 c 0
 371 336 335 399 283 399 c 0
 268 399 253 391 240 365 c 0
 229 345 235 336 206 336 c 2
 203 336 l 2
 194 336 178 336 178 352 c 0
EndSplineSet
EndChar
StartChar: three.superior
Encoding: 179 179 149
Width: 532
Flags: MW
LayerCount: 2
Fore
SplineSet
312 660 m 0
 312 648 322 642 334 642 c 0
 358 642 394 672 394 721 c 2
 394 729 l 1
 326 710 312 674 312 660 c 0
193 456 m 0
 193 533 238 553 267 553 c 0
 294 553 316 535 316 507 c 0
 316 482 298 448 261 439 c 0
 257 438 253 437 249 437 c 1
 257 389 280 362 326 362 c 0
 356 362 391 371 411 395 c 0
 427 414 444 476 444 501 c 0
 444 528 421 533 396 533 c 2
 354 533 l 2
 340 533 331 537 331 549 c 0
 331 578 351 581 358 581 c 2
 361 581 l 2
 367 581 373 580 380 580 c 2
 397 580 l 2
 455 580 483 592 499 654 c 0
 505 677 507 690 507 699 c 0
 507 714 500 735 451 735 c 2
 431 735 l 1
 431 723 l 2
 431 662 385 605 329 605 c 0
 294 605 255 621 255 658 c 0
 255 679 273 743 382 765 c 1
 384 776 392 786 403 786 c 0
 413 786 417 776 420 771 c 1
 432 772 444 772 456 772 c 0
 580 772 608 713 608 674 c 0
 608 625 569 576 504 550 c 1
 532 534 556 511 556 468 c 0
 556 385 457 325 325 325 c 0
 233 325 193 391 193 456 c 0
EndSplineSet
EndChar
StartChar: acute
Encoding: 180 180 216
Width: 591
Flags: MW
LayerCount: 2
Fore
SplineSet
380 548 m 0
 380 555 381 559 391 567 c 4
 398 573 409 580 427 593 c 0
 509 652 534 675 560 675 c 0
 588 675 605 652 605 628 c 0
 605 608 596 594 584 584 c 0
 568 571 548 565 539 562 c 0
 419 518 410 515 404 515 c 0
 385 515 380 544 380 548 c 0
EndSplineSet
EndChar
StartChar: micro
Encoding: 181 181 150
Width: 591
Flags: MW
LayerCount: 2
Fore
SplineSet
23 -174 m 0
 23 -166 25 -158 27 -150 c 2
 43 -87 l 4
 161 387 l 2
 165 401 175 455 228 455 c 0
 245 455 273 447 273 412 c 0
 273 380 204 162 204 99 c 0
 204 43 235 25 269 25 c 0
 328 25 376 85 384 105 c 0
 387 113 389 121 391 130 c 2
 455 386 l 2
 467 434 500 444 519 444 c 0
 544 444 564 428 564 402 c 0
 564 394 562 385 560 377 c 2
 496 120 l 2
 490 97 485 73 485 55 c 0
 485 38 490 26 504 26 c 0
 545 26 563 142 570 153 c 0
 575 160 580 162 591 162 c 2
 598 162 l 2
 608 162 623 162 623 145 c 1
 623 145 612 79 577 33 c 0
 558 8 532 -11 497 -11 c 0
 458 -11 415 8 394 46 c 1
 335 -9 286 -11 263 -11 c 0
 224 -11 198 -5 173 4 c 1
 173 4 133 -169 121 -187 c 0
 116 -194 110 -201 102 -206 c 0
 92 -212 80 -216 68 -216 c 0
 43 -216 23 -200 23 -174 c 0
EndSplineSet
EndChar
StartChar: paragraph
Encoding: 182 182 117
Width: 709
Flags: MW
LayerCount: 2
Fore
SplineSet
197 415 m 0
 197 527 308 694 535 694 c 2
 767 694 l 2
 791 694 812 689 812 664 c 0
 812 653 805 642 795 637 c 0
 786 633 775 634 766 634 c 2
 718 634 l 1
 718 633 l 1
 526 -134 l 1
 563 -134 l 2
 585 -134 605 -139 605 -164 c 0
 605 -175 599 -194 566 -194 c 2
 272 -194 l 2
 239 -194 235 -172 235 -164 c 0
 235 -136 262 -134 276 -134 c 2
 330 -134 l 1
 418 221 l 1
 303 235 197 296 197 415 c 0
392 -134 m 1
 464 -134 l 1
 656 634 l 1
 584 634 l 1
 584 633 l 1
 392 -134 l 1
EndSplineSet
EndChar
StartChar: periodcentered
Encoding: 183 183 116
Width: 307
Flags: MW
LayerCount: 2
Fore
SplineSet
137 222 m 0
 137 268 181 310 227 310 c 0
 263 310 287 284 287 250 c 0
 287 206 245 162 197 162 c 0
 161 162 137 189 137 222 c 0
EndSplineSet
EndChar
StartChar: cedilla
Encoding: 184 184 129
Width: 532
Flags: MW
LayerCount: 2
Fore
SplineSet
81 -174 m 0
 81 -157 99 -156 111 -156 c 2
 135 -156 l 1
 201 -154 272 -145 272 -103 c 0
 272 -79 247 -75 226 -71 c 0
 212 -68 200 -65 200 -53 c 0
 200 -46 203 -33 211 0 c 0
 218 26 218 36 246 36 c 2
 290 36 l 2
 309 36 321 33 321 16 c 0
 321 4 314 -15 309 -39 c 1
 324 -42 379 -51 379 -101 c 0
 379 -174 278 -192 148 -192 c 2
 115 -192 l 29
 106 -192 l 2
 86 -192 81 -181 81 -174 c 0
EndSplineSet
EndChar
StartChar: one.superior
Encoding: 185 185 151
Width: 532
Flags: MW
LayerCount: 2
Fore
SplineSet
211 367 m 0
 211 388 222 394 234 395 c 4
 237 395 240 395 243 395 c 2
 271 395 l 2
 309 395 313 396 318 414 c 2
 376 647 l 1
 363 644 328 634 302 634 c 0
 283 634 268 639 268 654 c 0
 268 711 352 649 468 748 c 0
 475 755 483 762 493 762 c 0
 508 762 512 752 512 742 c 0
 512 736 510 730 509 725 c 2
 427 397 l 1
 443 396 460 395 476 395 c 2
 493 395 l 2
 508 395 521 391 521 375 c 0
 521 348 499 347 490 347 c 2
 485 347 l 1
 485 348 l 1
 417 349 l 1
 290 349 l 1
 234 347 l 1
 240 347 l 2
 224 347 211 351 211 367 c 0
EndSplineSet
EndChar
StartChar: ordmasculine
Encoding: 186 186 135
Width: 532
Flags: MW
LayerCount: 2
Fore
SplineSet
99 511 m 0
 99 619 186 762 359 762 c 0
 456 762 526 711 526 615 c 0
 526 503 436 364 266 364 c 0
 168 364 99 415 99 511 c 0
208 465 m 0
 208 421 236 401 268 401 c 0
 308 401 336 421 355 449 c 0
 383 489 394 545 401 573 c 0
 414 625 416 643 416 661 c 0
 416 712 382 725 356 725 c 0
 326 725 303 713 285 695 c 0
 242 652 229 575 224 554 c 1
 220 542 208 496 208 465 c 0
EndSplineSet
EndChar
StartChar: guillemotright
Encoding: 187 187 122
Width: 650
Flags: MW
LayerCount: 2
Fore
SplineSet
134 56 m 0
 134 66 152 86 178 115 c 0
 222 164 245 191 282 225 c 1
 258 270 238 317 221 369 c 0
 218 377 215 386 218 393 c 0
 221 399 227 402 233 402 c 0
 238 402 244 400 247 397 c 0
 252 392 256 385 259 379 c 2
 276 351 l 2
 307 300 329 275 358 239 c 0
 362 234 367 228 366 221 c 0
 365 213 358 208 352 203 c 2
 313 174 l 1
 231 111 195 73 182 62 c 0
 173 54 163 42 150 42 c 0
 142 42 134 46 134 56 c 0
235 14 m 0
 235 18 239 25 245 32 c 4
 257 46 278 65 300 89 c 1
 357 144 l 1
 396 179 417 199 449 224 c 1
 427 257 l 1
 395 307 367 359 343 416 c 0
 341 421 338 426 339 432 c 0
 341 440 348 444 355 444 c 0
 359 444 364 443 367 441 c 0
 374 436 379 427 384 420 c 2
 412 384 l 2
 441 347 473 312 506 279 c 1
 546 241 l 2
 551 236 558 230 558 222 c 0
 558 217 555 214 553 211 c 0
 547 205 525 193 483 165 c 0
 428 129 375 91 324 51 c 2
 281 17 l 2
 273 11 265 2 255 1 c 1
 252 1 l 2
 244 1 235 5 235 14 c 0
EndSplineSet
EndChar
StartChar: onequarter
Encoding: 188 188 152
Width: 532
Flags: MW
LayerCount: 2
Fore
SplineSet
240 37 m 1
 298 31 l 1
 306 64 l 1
 286 54 263 45 240 37 c 1
 240 37 l 1
54 28 m 0
 54 52 102 48 148 60 c 0
 279 97 274 149 288 175 c 0
 293 184 303 197 321 204 c 0
 329 207 337 209 348 209 c 9
 348 209 l 17
 364 228 381 236 399 236 c 0
 422 236 443 220 443 195 c 0
 443 172 423 110 403 23 c 1
 437 23 l 2
 440 23 444 24 449 24 c 0
 471 24 483 7 483 -4 c 0
 483 -6 483 -8 482 -10 c 0
 476 -20 469 -18 391 -23 c 1
 363 -151 354 -164 345 -174 c 0
 333 -186 316 -194 299 -194 c 0
 274 -194 254 -177 254 -152 c 0
 254 -135 273 -71 286 -17 c 1
 262 -14 244 -12 230 -11 c 0
 223 -10 217 -10 212 -10 c 0
 173 -7 183 -10 143 1 c 0
 137 2 126 6 116 6 c 0
 104 6 92 1 79 1 c 0
 66 1 54 18 54 28 c 0
99 278 m 0
 99 292 111 305 125 307 c 0
 131 308 137 308 143 308 c 2
 528 308 l 2
 549 308 570 304 570 278 c 0
 570 266 563 248 530 248 c 2
 137 248 l 2
 104 248 99 268 99 278 c 0
216 389 m 0
 216 400 221 416 243 416 c 2
 259 416 l 1
 271 417 282 416 292 417 c 0
 301 417 310 419 319 420 c 1
 319 420 l 1
 377 653 l 1
 361 650 328 642 295 642 c 0
 276 642 270 652 270 662 c 0
 270 672 276 684 283 687 c 0
 296 694 382 683 463 746 c 0
 471 753 481 762 493 762 c 0
 505 762 511 755 511 741 c 0
 511 737 510 732 509 727 c 2
 432 418 l 1
 450 417 468 416 486 416 c 2
 501 416 l 2
 509 416 516 414 520 410 c 0
 523 407 525 402 525 396 c 0
 525 390 523 382 518 376 c 0
 514 372 507 369 497 369 c 0
 486 369 450 371 378 371 c 0
 298 371 261 369 243 369 c 0
 227 369 216 372 216 389 c 0
EndSplineSet
EndChar
StartChar: onehalf
Encoding: 189 189 153
Width: 532
Flags: MW
LayerCount: 2
Fore
SplineSet
40 -200 m 0
 40 -194 43 -187 46 -182 c 0
 70 -122 133 -87 182 -65 c 0
 196 -59 209 -54 220 -49 c 1
 324 -1 333 46 342 83 c 0
 344 95 347 108 347 120 c 0
 347 162 311 173 283 173 c 0
 192 173 135 72 127 35 c 0
 126 32 126 29 126 27 c 0
 126 16 142 16 149 16 c 0
 197 16 234 54 234 74 c 0
 234 87 217 93 217 105 c 0
 217 109 221 116 227 120 c 0
 230 122 233 123 236 123 c 0
 253 123 272 99 272 78 c 0
 272 39 222 -21 142 -21 c 0
 77 -21 67 4 67 21 c 0
 67 64 141 210 289 210 c 0
 377 210 459 173 459 86 c 0
 459 -26 301 -65 183 -122 c 1
 226 -118 267 -112 312 -111 c 0
 321 -110 330 -110 339 -109 c 0
 364 -105 386 -95 404 -79 c 0
 416 -68 426 -55 432 -40 c 0
 439 -24 443 -22 461 -22 c 0
 481 -22 489 -26 489 -37 c 0
 489 -55 474 -93 448 -129 c 0
 416 -174 365 -216 303 -216 c 0
 237 -216 195 -161 144 -161 c 0
 106 -161 98 -205 89 -212 c 0
 84 -216 77 -217 70 -217 c 2
 64 -217 l 2
 53 -217 40 -215 40 -200 c 0
99 278 m 0
 99 292 111 305 125 307 c 0
 131 308 137 308 143 308 c 2
 528 308 l 2
 549 308 570 304 570 278 c 0
 570 266 563 248 530 248 c 2
 137 248 l 2
 104 248 99 268 99 278 c 0
216 389 m 0
 216 400 221 416 243 416 c 2
 259 416 l 1
 271 417 282 416 292 417 c 0
 301 417 310 419 319 420 c 1
 319 420 l 1
 377 653 l 1
 361 650 328 642 295 642 c 0
 276 642 270 652 270 662 c 0
 270 672 276 684 283 687 c 0
 296 694 382 683 463 746 c 0
 471 753 481 762 493 762 c 0
 505 762 511 755 511 741 c 0
 511 737 510 732 509 727 c 2
 432 418 l 1
 450 417 468 416 486 416 c 2
 501 416 l 2
 509 416 516 414 520 410 c 0
 523 407 525 402 525 396 c 0
 525 390 523 382 518 376 c 0
 514 372 507 369 497 369 c 0
 486 369 450 371 378 371 c 0
 298 371 261 369 243 369 c 0
 227 369 216 372 216 389 c 0
EndSplineSet
EndChar
StartChar: threequarters
Encoding: 190 190 154
Width: 532
Flags: MW
LayerCount: 2
Fore
SplineSet
240 37 m 1
 298 31 l 1
 306 64 l 1
 286 54 263 45 240 37 c 1
 240 37 l 1
54 28 m 0
 54 52 102 48 148 60 c 0
 279 97 274 149 288 175 c 0
 293 184 303 197 321 204 c 0
 329 207 337 209 348 209 c 9
 348 209 l 17
 364 228 381 236 399 236 c 0
 422 236 443 220 443 195 c 0
 443 172 423 110 403 23 c 1
 437 23 l 2
 440 23 444 24 449 24 c 0
 471 24 483 7 483 -4 c 0
 483 -6 483 -8 482 -10 c 0
 476 -20 469 -18 391 -23 c 1
 363 -151 354 -164 345 -174 c 0
 333 -186 316 -194 299 -194 c 0
 274 -194 254 -177 254 -152 c 0
 254 -135 273 -71 286 -17 c 1
 262 -14 244 -12 230 -11 c 0
 223 -10 217 -10 212 -10 c 0
 173 -7 183 -10 143 1 c 0
 137 2 126 6 116 6 c 0
 104 6 92 1 79 1 c 0
 66 1 54 18 54 28 c 0
100 278 m 0
 100 304 124 308 142 308 c 2
 527 308 l 2
 550 308 570 303 570 277 c 0
 570 266 564 248 531 248 c 2
 136 248 l 2
 103 248 100 269 100 278 c 0
312 660 m 0
 312 648 322 642 334 642 c 0
 358 642 394 672 394 721 c 2
 394 729 l 1
 326 710 312 674 312 660 c 0
193 456 m 0
 193 533 238 553 267 553 c 0
 294 553 316 535 316 507 c 0
 316 482 298 448 261 439 c 0
 257 438 253 437 249 437 c 1
 257 389 280 362 326 362 c 0
 356 362 391 371 411 395 c 0
 427 414 444 476 444 501 c 0
 444 528 421 533 396 533 c 2
 354 533 l 2
 340 533 331 537 331 549 c 0
 331 578 351 581 358 581 c 2
 361 581 l 2
 367 581 373 580 380 580 c 2
 397 580 l 2
 455 580 483 592 499 654 c 0
 505 677 507 690 507 699 c 0
 507 714 500 735 451 735 c 2
 431 735 l 1
 431 723 l 2
 431 662 385 605 329 605 c 0
 294 605 255 621 255 658 c 0
 255 679 273 743 382 765 c 1
 384 776 392 786 403 786 c 0
 413 786 417 776 420 771 c 1
 432 772 444 772 456 772 c 0
 580 772 608 713 608 674 c 0
 608 625 569 576 504 550 c 1
 532 534 556 511 556 468 c 0
 556 385 457 325 325 325 c 0
 233 325 193 391 193 456 c 0
EndSplineSet
EndChar
StartChar: questiondown
Encoding: 191 191 125
Width: 591
Flags: MW
LayerCount: 2
Fore
SplineSet
100 -92 m 0
 100 -54 111 -23 126 3 c 0
 158 58 211 87 221 94 c 0
 283 135 321 158 344 176 c 0
 365 192 372 205 372 224 c 0
 372 234 368 243 354 243 c 0
 333 243 298 226 283 190 c 0
 280 183 278 179 274 176 c 0
 271 174 266 172 259 172 c 2
 250 172 l 2
 243 172 234 172 229 178 c 4
 227 180 226 184 226 188 c 0
 226 224 286 281 359 281 c 0
 399 281 430 256 430 208 c 0
 430 178 418 138 392 109 c 1
 370 86 313 54 223 -6 c 0
 184 -33 158 -69 158 -111 c 0
 158 -159 197 -180 244 -180 c 0
 325 -180 388 -116 419 -60 c 1
 399 -55 381 -42 381 -15 c 0
 381 24 416 55 452 55 c 0
 477 55 500 38 500 9 c 0
 500 -52 403 -216 242 -216 c 0
 158 -216 100 -172 100 -92 c 0
326 413 m 0
 326 454 365 500 415 500 c 0
 448 500 476 476 476 439 c 0
 476 393 432 352 387 352 c 0
 350 352 326 379 326 413 c 0
EndSplineSet
EndChar
StartChar: Agrave
Encoding: 192 192 155
Width: 865
Flags: MW
LayerCount: 2
Fore
SplineSet
501 826 m 0
 501 855 529 891 564 891 c 0
 582 891 593 882 608 871 c 0
 707 804 708 802 708 791 c 0
 708 782 696 755 677 755 c 2
 676 755 l 2
 672 755 670 756 558 780 c 0
 537 784 501 789 501 826 c 0
72 20 m 0
 72 65 132 39 173 60 c 0
 185 67 193 78 200 90 c 2
 558 677 l 2
 574 704 584 705 610 705 c 0
 640 705 642 692 644 667 c 2
 704 119 l 2
 711 55 711 54 717 51 c 0
 726 47 755 48 773 48 c 0
 788 48 802 46 802 27 c 0
 802 16 797 0 775 0 c 0
 763 0 727 3 655 3 c 2
 627 3 l 2
 547 3 507 0 494 0 c 0
 477 0 470 10 470 21 c 0
 470 34 476 48 501 48 c 2
 509 48 l 2
 541 48 559 51 572 53 c 1
 572 53 l 1
 558 189 l 1
 326 189 l 1
 247 58 l 1
 299 41 331 57 331 28 c 0
 331 17 326 0 304 0 c 0
 292 0 258 3 188 3 c 0
 133 3 105 0 96 0 c 0
 75 0 72 12 72 20 c 0
356 237 m 1
 552 237 l 1
 522 510 l 1
 356 237 l 1
EndSplineSet
EndChar
StartChar: Aacute
Encoding: 193 193 156
Width: 865
Flags: MW
LayerCount: 2
Fore
SplineSet
520 789 m 0
 520 806 534 811 546 817 c 0
 619 856 656 875 676 884 c 0
 695 892 699 892 705 892 c 0
 733 892 750 869 750 845 c 0
 750 828 741 811 728 800 c 0
 709 784 685 783 592 765 c 4
 582 763 571 761 560 759 c 0
 554 758 548 756 543 756 c 0
 524 756 520 775 520 789 c 0
72 20 m 0
 72 65 132 39 173 60 c 0
 185 67 193 78 200 90 c 2
 558 677 l 2
 574 704 584 705 610 705 c 0
 640 705 642 692 644 667 c 2
 704 119 l 2
 711 55 711 54 717 51 c 0
 726 47 755 48 773 48 c 0
 788 48 802 46 802 27 c 0
 802 16 797 0 775 0 c 0
 763 0 727 3 655 3 c 2
 627 3 l 2
 547 3 507 0 494 0 c 0
 477 0 470 10 470 21 c 0
 470 34 476 48 501 48 c 2
 509 48 l 2
 541 48 559 51 572 53 c 1
 572 53 l 1
 558 189 l 1
 326 189 l 1
 247 58 l 1
 299 41 331 57 331 28 c 0
 331 17 326 0 304 0 c 0
 292 0 258 3 188 3 c 0
 133 3 105 0 96 0 c 0
 75 0 72 12 72 20 c 0
356 237 m 1
 552 237 l 1
 522 510 l 1
 356 237 l 1
EndSplineSet
EndChar
StartChar: Acircumflex
Encoding: 194 194 157
Width: 865
Flags: MW
LayerCount: 2
Fore
SplineSet
470 772 m 0
 470 781 476 787 488 795 c 0
 547 837 584 863 608 879 c 0
 646 904 649 904 653 904 c 2
 656 904 l 2
 660 904 663 903 684 881 c 4
 698 867 719 844 754 808 c 0
 778 783 780 780 780 772 c 0
 780 762 761 740 746 740 c 0
 735 740 718 758 690 781 c 0
 674 795 657 809 642 823 c 1
 589 795 510 740 495 740 c 0
 480 740 470 763 470 772 c 0
72 20 m 0
 72 65 132 39 173 60 c 0
 185 67 193 78 200 90 c 2
 558 677 l 2
 574 704 584 705 610 705 c 0
 640 705 642 692 644 667 c 2
 704 119 l 2
 711 55 711 54 717 51 c 0
 726 47 755 48 773 48 c 0
 788 48 802 46 802 27 c 0
 802 16 797 0 775 0 c 0
 763 0 727 3 655 3 c 2
 627 3 l 2
 547 3 507 0 494 0 c 0
 477 0 470 10 470 21 c 0
 470 34 476 48 501 48 c 2
 509 48 l 2
 541 48 559 51 572 53 c 1
 572 53 l 1
 558 189 l 1
 326 189 l 1
 247 58 l 1
 299 41 331 57 331 28 c 0
 331 17 326 0 304 0 c 0
 292 0 258 3 188 3 c 0
 133 3 105 0 96 0 c 0
 75 0 72 12 72 20 c 0
356 237 m 1
 552 237 l 1
 522 510 l 1
 356 237 l 1
EndSplineSet
EndChar
StartChar: Atilde
Encoding: 195 195 158
Width: 865
Flags: MW
LayerCount: 2
Fore
SplineSet
429 807 m 0
 429 818 440 826 447 832 c 0
 477 859 520 894 574 894 c 0
 641 894 679 846 732 846 c 0
 772 846 800 872 820 885 c 4
 827 890 833 893 838 893 c 0
 847 893 855 884 855 876 c 0
 855 866 844 858 838 851 c 1
 801 819 761 789 710 789 c 0
 643 789 605 837 551 837 c 0
 497 837 464 790 446 790 c 0
 438 790 429 797 429 807 c 0
72 20 m 0
 72 65 132 39 173 60 c 0
 185 67 193 78 200 90 c 2
 558 677 l 2
 574 704 584 705 610 705 c 0
 640 705 642 692 644 667 c 2
 704 119 l 2
 711 55 711 54 717 51 c 0
 726 47 755 48 773 48 c 0
 788 48 802 46 802 27 c 0
 802 16 797 0 775 0 c 0
 763 0 727 3 655 3 c 2
 627 3 l 2
 547 3 507 0 494 0 c 0
 477 0 470 10 470 21 c 0
 470 34 476 48 501 48 c 2
 509 48 l 2
 541 48 559 51 572 53 c 1
 572 53 l 1
 558 189 l 1
 326 189 l 1
 247 58 l 1
 299 41 331 57 331 28 c 0
 331 17 326 0 304 0 c 0
 292 0 258 3 188 3 c 0
 133 3 105 0 96 0 c 0
 75 0 72 12 72 20 c 0
356 237 m 1
 552 237 l 1
 522 510 l 1
 356 237 l 1
EndSplineSet
EndChar
StartChar: Adieresis
Encoding: 196 196 159
Width: 865
Flags: MW
LayerCount: 2
Fore
SplineSet
458 808 m 0
 458 851 500 894 547 894 c 0
 584 894 609 867 609 834 c 0
 609 790 567 747 520 747 c 0
 483 747 458 774 458 808 c 0
664 808 m 0
 664 851 705 894 753 894 c 0
 790 894 814 867 814 834 c 0
 814 790 773 747 726 747 c 0
 688 747 664 774 664 808 c 0
72 20 m 0
 72 65 132 39 173 60 c 0
 185 67 193 78 200 90 c 2
 558 677 l 2
 574 704 584 705 610 705 c 0
 640 705 642 692 644 667 c 2
 704 119 l 2
 711 55 711 54 717 51 c 0
 726 47 755 48 773 48 c 0
 788 48 802 46 802 27 c 0
 802 16 797 0 775 0 c 0
 763 0 727 3 655 3 c 2
 627 3 l 2
 547 3 507 0 494 0 c 0
 477 0 470 10 470 21 c 0
 470 34 476 48 501 48 c 2
 509 48 l 2
 541 48 559 51 572 53 c 1
 572 53 l 1
 558 189 l 1
 326 189 l 1
 247 58 l 1
 299 41 331 57 331 28 c 0
 331 17 326 0 304 0 c 0
 292 0 258 3 188 3 c 0
 133 3 105 0 96 0 c 0
 75 0 72 12 72 20 c 0
356 237 m 1
 552 237 l 1
 522 510 l 1
 356 237 l 1
EndSplineSet
EndChar
StartChar: Aring
Encoding: 197 197 160
Width: 865
Flags: MW
LayerCount: 2
Fore
SplineSet
72 20 m 0
 72 49 99 48 101 48 c 0
 132 49 152 51 166 57 c 4
 190 66 197 85 220 122 c 2
 557 675 l 1
 522 690 508 717 508 752 c 0
 508 815 556 905 656 907 c 1
 658 907 l 2
 716 907 749 874 749 823 c 0
 749 766 712 697 644 675 c 1
 659 534 l 1
 708 85 l 2
 711 53 708 50 734 49 c 0
 745 48 755 48 766 48 c 0
 787 48 803 47 803 28 c 0
 803 16 797 0 775 0 c 0
 761 0 720 3 637 3 c 0
 552 3 509 0 495 0 c 0
 477 0 470 10 470 20 c 0
 470 32 476 48 500 48 c 0
 525 48 551 49 572 53 c 1
 572 53 l 1
 558 189 l 1
 326 189 l 1
 247 58 l 1
 281 47 306 50 320 45 c 0
 327 43 331 38 331 28 c 0
 331 23 330 16 326 10 c 0
 322 4 315 0 304 0 c 0
 292 0 259 3 191 3 c 0
 133 3 103 1 94 1 c 0
 76 1 72 12 72 20 c 0
356 237 m 1
 552 237 l 1
 522 510 l 1
 356 237 l 1
561 744 m 0
 561 720 574 705 608 705 c 0
 674 705 681 760 690 794 c 0
 692 802 696 821 696 832 c 0
 696 847 690 870 649 870 c 0
 593 870 578 835 564 770 c 0
 562 762 561 753 561 744 c 0
EndSplineSet
EndChar
StartChar: AE
Encoding: 198 198 130
Width: 1023
Flags: MW
LayerCount: 2
Fore
SplineSet
73 20 m 0
 73 43 88 48 108 49 c 0
 128 50 154 49 175 61 c 0
 187 67 194 78 201 88 c 2
 544 638 l 1
 516 638 l 1
 502 638 l 2
 490 638 474 640 474 659 c 0
 474 665 475 672 480 677 c 0
 485 682 492 686 505 686 c 2
 1043 686 l 2
 1059 686 1071 682 1071 664 c 0
 1071 657 1057 538 1049 474 c 0
 1047 454 1045 444 1019 444 c 0
 998 444 993 452 993 468 c 0
 993 483 998 506 998 537 c 0
 998 618 964 638 860 638 c 2
 812 638 l 2
 796 638 780 638 764 637 c 1
 747 567 l 1
 694 354 l 1
 739 354 l 2
 788 354 831 357 853 423 c 0
 864 457 861 470 889 470 c 0
 904 470 916 467 916 450 c 0
 916 447 912 431 907 408 c 0
 891 340 859 213 858 212 c 0
 855 202 851 195 844 192 c 0
 840 190 835 190 829 190 c 0
 808 190 802 196 802 208 c 0
 802 221 810 241 810 265 c 0
 810 303 781 306 733 306 c 2
 682 306 l 1
 617 49 l 1
 630 48 643 48 656 48 c 2
 704 48 l 2
 861 48 900 101 962 243 c 0
 971 263 972 275 998 275 c 2
 1000 275 l 2
 1014 275 1024 269 1024 256 c 0
 1024 248 977 136 930 27 c 0
 921 6 917 0 897 0 c 2
 430 0 l 2
 417 0 401 2 401 19 c 0
 401 31 405 38 410 42 c 0
 416 47 424 48 428 48 c 2
 434 48 l 2
 489 48 488 51 493 68 c 2
 552 306 l 1
 403 306 l 1
 249 58 l 1
 284 46 314 51 326 42 c 0
 330 39 332 35 332 28 c 0
 332 17 327 0 305 0 c 0
 292 0 265 3 192 3 c 0
 134 3 104 1 95 1 c 0
 77 1 73 12 73 20 c 0
433 354 m 1
 565 354 l 1
 628 605 l 5
 635 635 l 1
 628 635 623 636 619 636 c 0
 609 636 607 633 595 615 c 2
 433 354 l 1
EndSplineSet
EndChar
StartChar: Ccedilla
Encoding: 199 199 161
Width: 826
Flags: MW
LayerCount: 2
Fore
SplineSet
161 241 m 0
 161 450 328 708 631 708 c 0
 697 708 751 687 794 640 c 1
 859 688 871 708 890 708 c 0
 898 708 908 704 908 691 c 0
 908 687 907 684 849 450 c 0
 844 432 842 426 820 426 c 2
 813 426 l 2
 790 426 785 432 785 445 c 0
 785 455 788 469 788 487 c 0
 788 577 745 660 644 660 c 0
 607 660 481 652 394 528 c 1
 330 434 296 262 296 199 c 0
 296 60 398 26 480 26 c 0
 600 26 700 122 733 219 c 0
 740 238 739 247 762 248 c 1
 771 248 l 1
 788 247 793 241 793 232 c 0
 793 186 699 11 508 -18 c 1
 504 -39 l 1
 520 -42 575 -51 575 -101 c 0
 575 -174 474 -192 333 -192 c 2
 313 -192 l 5
 304 -192 l 2
 294 -192 277 -191 277 -174 c 0
 277 -163 286 -156 304 -156 c 2
 321 -156 l 2
 330 -156 338 -156 346 -156 c 0
 444 -152 467 -126 467 -103 c 0
 467 -87 453 -77 432 -73 c 0
 418 -70 395 -74 395 -51 c 0
 395 -43 399 -29 402 -19 c 1
 260 -2 161 85 161 241 c 0
EndSplineSet
EndChar
StartChar: Eacute
Encoding: 201 201 163
Width: 756
Flags: MW
LayerCount: 2
Fore
SplineSet
520 788 m 0
 520 799 524 804 536 811 c 0
 543 815 553 821 567 828 c 0
 625 858 655 874 673 882 c 0
 691 891 695 891 701 891 c 2
 705 891 l 2
 733 891 749 869 749 845 c 0
 749 788 687 781 594 765 c 4
 583 763 572 761 560 759 c 0
 554 757 548 756 543 756 c 2
 542 756 l 2
 523 756 520 778 520 788 c 0
65 20 m 0
 65 46 85 48 94 48 c 2
 114 48 l 2
 147 48 167 49 180 52 c 1
 324 630 l 1
 324 630 l 1
 306 632 288 633 270 633 c 2
 250 633 l 2
 235 633 223 637 223 653 c 0
 223 666 229 680 252 680 c 2
 775 680 l 2
 792 680 803 676 803 658 c 0
 803 647 785 504 782 469 c 0
 780 449 776 438 751 438 c 0
 730 438 725 446 725 462 c 0
 725 467 725 472 726 478 c 0
 727 491 730 507 730 527 c 0
 730 619 678 633 580 633 c 2
 510 633 l 2
 494 633 478 632 462 631 c 1
 399 377 l 1
 433 377 l 2
 469 377 498 378 521 400 c 0
 547 426 549 454 556 473 c 0
 560 485 562 493 585 493 c 0
 605 493 612 485 612 473 c 0
 612 468 610 461 609 457 c 2
 557 249 l 2
 549 213 540 213 524 213 c 0
 503 213 497 220 497 232 c 0
 497 237 498 242 499 248 c 4
 502 260 506 274 506 289 c 0
 506 329 470 329 426 329 c 2
 387 329 l 1
 317 49 l 1
 317 49 l 1
 329 48 342 48 355 48 c 2
 420 48 l 2
 467 48 526 48 579 79 c 0
 641 115 670 185 700 253 c 0
 707 269 712 275 733 275 c 0
 752 275 758 267 758 257 c 0
 758 251 755 243 753 237 c 2
 661 22 l 2
 653 4 648 0 628 0 c 2
 94 0 l 2
 82 0 65 1 65 20 c 0
EndSplineSet
EndChar
StartChar: Ecircumflex
Encoding: 202 202 164
Width: 756
Flags: MW
LayerCount: 2
Fore
SplineSet
425 772 m 0
 425 781 431 787 443 795 c 0
 500 835 540 863 567 881 c 0
 591 897 604 904 609 904 c 2
 611 904 l 2
 616 904 619 902 644 877 c 4
 658 863 678 841 710 808 c 0
 734 783 735 780 735 772 c 0
 735 759 713 740 702 740 c 0
 691 740 682 750 646 781 c 2
 597 823 l 1
 545 795 465 740 451 740 c 0
 435 740 425 761 425 772 c 0
65 20 m 0
 65 46 85 48 94 48 c 2
 114 48 l 2
 147 48 167 49 180 52 c 1
 324 630 l 1
 324 630 l 1
 306 632 288 633 270 633 c 2
 250 633 l 2
 235 633 223 637 223 653 c 0
 223 666 229 680 252 680 c 2
 775 680 l 2
 792 680 803 676 803 658 c 0
 803 647 785 504 782 469 c 0
 780 449 776 438 751 438 c 0
 730 438 725 446 725 462 c 0
 725 467 725 472 726 478 c 0
 727 491 730 507 730 527 c 0
 730 619 678 633 580 633 c 2
 510 633 l 2
 494 633 478 632 462 631 c 1
 399 377 l 1
 433 377 l 2
 469 377 498 378 521 400 c 0
 547 426 549 454 556 473 c 0
 560 485 562 493 585 493 c 0
 605 493 612 485 612 473 c 0
 612 468 610 461 609 457 c 2
 557 249 l 2
 549 213 540 213 524 213 c 0
 503 213 497 220 497 232 c 0
 497 237 498 242 499 248 c 4
 502 260 506 274 506 289 c 0
 506 329 470 329 426 329 c 2
 387 329 l 1
 317 49 l 1
 317 49 l 1
 329 48 342 48 355 48 c 2
 420 48 l 2
 467 48 526 48 579 79 c 0
 641 115 670 185 700 253 c 0
 707 269 712 275 733 275 c 0
 752 275 758 267 758 257 c 0
 758 251 755 243 753 237 c 2
 661 22 l 2
 653 4 648 0 628 0 c 2
 94 0 l 2
 82 0 65 1 65 20 c 0
EndSplineSet
EndChar
StartChar: Icircumflex
Encoding: 206 206 168
Width: 472
Flags: MW
LayerCount: 2
Fore
SplineSet
274 772 m 0
 274 781 280 787 291 795 c 0
 350 836 388 863 414 880 c 4
 440 897 452 904 457 904 c 0
 467 904 469 901 493 877 c 0
 582 784 584 783 584 772 c 0
 584 759 562 740 551 740 c 0
 539 740 530 750 494 781 c 0
 478 795 461 809 446 823 c 1
 384 790 314 740 299 740 c 0
 284 740 274 762 274 772 c 0
59 20 m 0
 59 32 64 47 88 48 c 1
 105 48 l 2
 143 48 165 49 180 52 c 1
 325 636 l 1
 325 636 l 1
 305 638 285 638 264 638 c 2
 245 638 l 2
 226 638 219 648 219 659 c 0
 219 669 224 686 247 686 c 0
 262 686 306 683 395 683 c 0
 494 683 543 686 559 686 c 0
 580 686 583 673 583 666 c 0
 583 641 565 638 552 638 c 2
 533 638 l 2
 498 638 476 637 462 633 c 1
 317 50 l 1
 317 50 l 1
 337 49 358 48 378 48 c 2
 397 48 l 2
 417 48 424 38 424 28 c 0
 424 21 420 0 396 0 c 0
 380 0 333 3 239 3 c 0
 128 3 100 0 86 0 c 0
 72 0 59 4 59 20 c 0
EndSplineSet
EndChar
StartChar: Idieresis
Encoding: 207 207 169
Width: 472
Flags: MW
LayerCount: 2
Fore
SplineSet
468 807 m 0
 468 851 509 894 557 894 c 0
 594 894 618 867 618 834 c 0
 618 788 574 747 530 747 c 0
 492 747 468 774 468 807 c 0
262 808 m 0
 262 854 306 895 351 895 c 0
 388 895 413 868 413 834 c 0
 413 790 371 747 324 747 c 0
 287 747 262 774 262 808 c 0
59 20 m 0
 59 32 64 47 88 48 c 1
 105 48 l 2
 143 48 165 49 180 52 c 1
 325 636 l 1
 325 636 l 1
 305 638 285 638 264 638 c 2
 245 638 l 2
 226 638 219 648 219 659 c 0
 219 669 224 686 247 686 c 0
 262 686 306 683 395 683 c 0
 494 683 543 686 559 686 c 0
 580 686 583 673 583 666 c 0
 583 641 565 638 552 638 c 2
 533 638 l 2
 498 638 476 637 462 633 c 1
 317 50 l 1
 317 50 l 1
 337 49 358 48 378 48 c 2
 397 48 l 2
 417 48 424 38 424 28 c 0
 424 21 420 0 396 0 c 0
 380 0 333 3 239 3 c 0
 128 3 100 0 86 0 c 0
 72 0 59 4 59 20 c 0
EndSplineSet
EndChar
StartChar: Ntilde
Encoding: 209 209 171
Width: 896
Flags: MW
LayerCount: 2
Fore
SplineSet
444 807 m 0
 444 818 455 826 462 832 c 0
 492 859 535 894 589 894 c 0
 656 894 694 847 748 847 c 0
 788 847 817 872 836 885 c 4
 843 890 849 893 853 893 c 0
 863 893 870 884 870 876 c 0
 870 866 860 858 853 851 c 0
 827 829 781 789 725 789 c 0
 658 789 620 836 566 836 c 0
 512 836 479 790 461 790 c 0
 453 790 444 797 444 807 c 0
64 20 m 0
 64 48 87 48 97 48 c 0
 182 48 183 67 186 78 c 2
 326 637 l 1
 326 637 l 1
 307 637 289 638 271 638 c 2
 251 638 l 2
 236 638 224 642 224 659 c 0
 224 684 245 686 253 686 c 2
 446 686 l 2
 465 686 470 683 480 664 c 2
 716 207 l 1
 821 628 l 1
 821 628 l 1
 802 636 777 638 751 638 c 0
 738 638 722 641 722 658 c 0
 722 686 743 686 754 686 c 0
 765 686 799 683 867 683 c 0
 912 683 944 685 964 685 c 0
 991 685 1001 682 1001 666 c 0
 1001 640 980 638 971 638 c 0
 881 638 883 624 876 596 c 2
 733 24 l 2
 727 3 721 0 699 0 c 0
 679 0 675 3 665 21 c 2
 404 527 l 2
 394 546 385 565 375 583 c 1
 244 58 l 1
 244 58 l 1
 263 50 288 48 314 48 c 0
 330 48 343 45 343 27 c 0
 343 17 339 0 315 0 c 0
 302 0 274 3 198 3 c 0
 133 3 100 0 89 0 c 0
 76 0 64 4 64 20 c 0
EndSplineSet
EndChar
StartChar: Ograve
Encoding: 210 210 172
Width: 855
Flags: MW
LayerCount: 2
Fore
SplineSet
527 827 m 0
 527 856 554 891 589 891 c 0
 610 891 633 874 713 816 c 0
 725 808 733 801 733 791 c 0
 733 782 721 756 702 756 c 2
 701 756 l 2
 697 756 695 757 583 780 c 0
 573 783 559 784 547 791 c 4
 536 797 527 808 527 827 c 0
159 226 m 0
 159 431 315 708 605 708 c 0
 715 708 865 658 865 457 c 0
 865 331 803 149 658 51 c 0
 592 6 510 -22 421 -22 c 0
 309 -22 159 28 159 226 c 0
296 187 m 0
 296 47 382 21 432 21 c 0
 494 21 549 55 586 93 c 0
 613 120 636 155 654 193 c 4
 714 317 733 472 733 506 c 0
 733 642 645 667 593 667 c 0
 565 667 486 659 417 573 c 0
 329 464 296 249 296 187 c 0
EndSplineSet
EndChar
StartChar: Oacute
Encoding: 211 211 173
Width: 855
Flags: MW
LayerCount: 2
Fore
SplineSet
516 788 m 0
 516 805 531 811 541 816 c 0
 615 855 651 874 671 883 c 4
 690 891 694 891 701 891 c 0
 728 891 745 870 745 845 c 0
 745 786 682 782 589 765 c 0
 578 763 567 760 555 758 c 0
 550 757 544 756 538 756 c 0
 519 756 516 776 516 788 c 0
159 226 m 0
 159 431 315 708 605 708 c 0
 715 708 865 658 865 457 c 0
 865 331 803 149 658 51 c 0
 592 6 510 -22 421 -22 c 0
 309 -22 159 28 159 226 c 0
296 187 m 0
 296 47 382 21 432 21 c 0
 494 21 549 55 586 93 c 0
 613 120 636 155 654 193 c 4
 714 317 733 472 733 506 c 0
 733 642 645 667 593 667 c 0
 565 667 486 659 417 573 c 0
 329 464 296 249 296 187 c 0
EndSplineSet
EndChar
StartChar: Ocircumflex
Encoding: 212 212 174
Width: 855
Flags: MW
LayerCount: 2
Fore
SplineSet
465 772 m 0
 465 781 471 787 483 795 c 0
 550 842 589 869 612 884 c 0
 642 904 645 904 649 904 c 2
 651 904 l 2
 655 904 658 903 681 880 c 4
 695 866 716 843 750 808 c 0
 774 783 775 780 775 772 c 0
 775 759 754 740 742 740 c 0
 731 740 722 750 686 781 c 2
 637 823 l 1
 594 800 505 740 490 740 c 0
 475 740 465 762 465 772 c 0
159 226 m 0
 159 431 315 708 605 708 c 0
 715 708 865 658 865 457 c 0
 865 331 803 149 658 51 c 0
 592 6 510 -22 421 -22 c 0
 309 -22 159 28 159 226 c 0
296 187 m 0
 296 47 382 21 432 21 c 0
 494 21 549 55 586 93 c 0
 613 120 636 155 654 193 c 4
 714 317 733 472 733 506 c 0
 733 642 645 667 593 667 c 0
 565 667 486 659 417 573 c 0
 329 464 296 249 296 187 c 0
EndSplineSet
EndChar
StartChar: Otilde
Encoding: 213 213 175
Width: 855
Flags: MW
LayerCount: 2
Fore
SplineSet
424 807 m 0
 424 818 435 826 442 832 c 0
 472 859 515 894 569 894 c 0
 636 894 674 846 728 846 c 0
 734 846 740 847 746 848 c 0
 790 857 818 893 834 893 c 0
 843 893 850 884 850 876 c 0
 850 866 840 858 833 851 c 0
 808 829 761 789 705 789 c 0
 638 789 600 836 546 836 c 0
 540 836 534 836 529 835 c 4
 484 827 457 790 441 790 c 0
 433 790 424 797 424 807 c 0
159 226 m 0
 159 431 315 708 605 708 c 0
 715 708 865 658 865 457 c 0
 865 331 803 149 658 51 c 0
 592 6 510 -22 421 -22 c 0
 309 -22 159 28 159 226 c 0
296 187 m 0
 296 47 382 21 432 21 c 0
 494 21 549 55 586 93 c 0
 613 120 636 155 654 193 c 4
 714 317 733 472 733 506 c 0
 733 642 645 667 593 667 c 0
 565 667 486 659 417 573 c 0
 329 464 296 249 296 187 c 0
EndSplineSet
EndChar
StartChar: Odieresis
Encoding: 214 214 176
Width: 855
Flags: MW
LayerCount: 2
Fore
SplineSet
454 807 m 0
 454 849 494 894 543 894 c 0
 580 894 604 867 604 833 c 0
 604 790 563 747 515 747 c 0
 478 747 454 774 454 807 c 0
659 808 m 0
 659 854 703 895 748 895 c 0
 785 895 810 868 810 834 c 0
 810 790 768 747 721 747 c 0
 684 747 659 774 659 808 c 0
159 226 m 0
 159 431 315 708 605 708 c 0
 715 708 865 658 865 457 c 0
 865 331 803 149 658 51 c 0
 592 6 510 -22 421 -22 c 0
 309 -22 159 28 159 226 c 0
296 187 m 0
 296 47 382 21 432 21 c 0
 494 21 549 55 586 93 c 0
 613 120 636 155 654 193 c 4
 714 317 733 472 733 506 c 0
 733 642 645 667 593 667 c 0
 565 667 486 659 417 573 c 0
 329 464 296 249 296 187 c 0
EndSplineSet
EndChar
StartChar: multiply
Encoding: 215 215 177
Width: 885
Flags: MW
LayerCount: 2
Fore
SplineSet
190 22 m 0
 190 38 204 48 214 56 c 2
 462 255 l 1
 462 255 l 1
 448 275 331 431 317 450 c 0
 310 458 304 468 304 479 c 0
 304 492 316 507 334 507 c 0
 352 507 363 490 370 480 c 2
 510 293 l 1
 753 488 l 2
 763 496 776 507 790 507 c 0
 806 507 819 493 819 478 c 0
 819 459 799 447 790 439 c 2
 546 245 l 1
 546 244 l 1
 561 226 574 207 686 58 c 0
 694 47 705 35 705 21 c 0
 705 7 693 -8 676 -8 c 0
 655 -8 645 12 637 22 c 2
 499 207 l 1
 499 207 l 1
 249 6 l 2
 240 -1 230 -8 219 -8 c 0
 202 -8 190 7 190 22 c 0
EndSplineSet
EndChar
StartChar: Oslash
Encoding: 216 216 133
Width: 885
Flags: MW
LayerCount: 2
Fore
SplineSet
163 -47 m 0
 163 -33 185 -16 235 43 c 9
 235 43 l 17
 190 82 159 142 159 230 c 0
 159 429 314 707 617 708 c 1
 618 708 l 2
 676 708 736 697 786 667 c 1
 787 667 l 1
 854 743 860 752 872 752 c 0
 884 752 892 741 892 733 c 0
 892 721 877 709 819 642 c 1
 843 621 894 566 894 452 c 0
 894 324 833 169 716 75 c 0
 636 11 535 -22 435 -22 c 0
 357 -22 311 -5 267 19 c 9
 267 19 l 17
 249 -3 203 -54 196 -61 c 0
 193 -64 188 -67 183 -67 c 0
 175 -67 163 -59 163 -47 c 0
283 178 m 0
 283 164 283 142 293 109 c 1
 740 614 l 1
 740 615 l 1
 723 634 688 672 610 672 c 0
 585 672 486 668 408 573 c 0
 350 502 333 430 302 308 c 0
 295 279 283 227 283 178 c 0
314 71 m 1
 343 31 396 14 446 14 c 0
 496 14 564 31 622 85 c 4
 653 114 681 153 702 205 c 0
 731 274 771 437 771 504 c 0
 771 540 765 562 761 576 c 1
 314 71 l 1
EndSplineSet
EndChar
StartChar: Uacute
Encoding: 218 218 179
Width: 881
Flags: MW
LayerCount: 2
Fore
SplineSet
572 789 m 0
 572 806 586 811 598 817 c 0
 675 858 711 877 731 885 c 4
 747 892 752 892 757 892 c 0
 785 892 802 869 802 845 c 0
 802 828 793 811 780 800 c 0
 761 784 738 783 651 767 c 0
 639 765 626 762 612 759 c 0
 606 758 600 756 595 756 c 0
 576 756 572 775 572 789 c 0
216 170 m 0
 216 204 224 231 230 256 c 2
 325 636 l 1
 325 636 l 1
 305 638 286 638 266 638 c 2
 249 638 l 2
 230 638 223 648 223 659 c 0
 223 669 229 686 252 686 c 0
 265 686 309 683 390 683 c 0
 477 683 529 686 553 686 c 0
 571 686 577 676 577 666 c 0
 577 653 571 638 546 638 c 2
 531 638 l 2
 454 638 463 636 456 609 c 2
 378 296 l 2
 364 243 344 174 344 129 c 0
 344 46 407 26 461 26 c 0
 506 26 661 36 712 252 c 1
 806 628 l 1
 806 628 l 1
 786 636 761 638 735 638 c 0
 715 638 706 646 706 658 c 0
 706 670 712 686 734 686 c 0
 746 686 782 683 853 683 c 0
 918 683 951 685 962 685 c 0
 973 685 985 682 985 666 c 0
 985 653 979 638 956 638 c 0
 860 638 868 620 861 597 c 1
 774 247 l 2
 768 226 763 205 755 185 c 0
 714 76 612 -22 453 -22 c 0
 326 -22 216 36 216 170 c 0
EndSplineSet
EndChar
StartChar: Ucircumflex
Encoding: 219 219 180
Width: 881
Flags: MW
LayerCount: 2
Fore
SplineSet
496 772 m 0
 496 781 502 787 513 795 c 0
 581 843 620 870 643 885 c 0
 672 904 675 904 679 904 c 2
 681 904 l 2
 686 904 689 903 708 883 c 4
 722 869 744 846 780 808 c 0
 804 783 806 780 806 772 c 0
 806 762 787 740 772 740 c 0
 761 740 743 758 716 781 c 0
 700 795 683 809 668 823 c 1
 615 795 536 740 521 740 c 0
 506 740 496 763 496 772 c 0
216 170 m 0
 216 204 224 231 230 256 c 2
 325 636 l 1
 325 636 l 1
 305 638 286 638 266 638 c 2
 249 638 l 2
 230 638 223 648 223 659 c 0
 223 669 229 686 252 686 c 0
 265 686 309 683 390 683 c 0
 477 683 529 686 553 686 c 0
 571 686 577 676 577 666 c 0
 577 653 571 638 546 638 c 2
 531 638 l 2
 454 638 463 636 456 609 c 2
 378 296 l 2
 364 243 344 174 344 129 c 0
 344 46 407 26 461 26 c 0
 506 26 661 36 712 252 c 1
 806 628 l 1
 806 628 l 1
 786 636 761 638 735 638 c 0
 715 638 706 646 706 658 c 0
 706 670 712 686 734 686 c 0
 746 686 782 683 853 683 c 0
 918 683 951 685 962 685 c 0
 973 685 985 682 985 666 c 0
 985 653 979 638 956 638 c 0
 860 638 868 620 861 597 c 1
 774 247 l 2
 768 226 763 205 755 185 c 0
 714 76 612 -22 453 -22 c 0
 326 -22 216 36 216 170 c 0
EndSplineSet
EndChar
StartChar: Yacute
Encoding: 221 221 182
Width: 865
Flags: MW
LayerCount: 2
Fore
SplineSet
565 788 m 0
 565 805 579 811 590 816 c 0
 658 852 695 871 716 881 c 4
 739 891 744 891 750 891 c 0
 778 891 794 869 794 845 c 0
 794 828 786 811 772 799 c 0
 754 784 730 783 634 764 c 0
 625 762 615 760 604 758 c 0
 599 757 593 756 587 756 c 0
 568 756 565 775 565 788 c 0
212 659 m 0
 212 669 216 686 240 686 c 0
 267 686 294 683 388 683 c 0
 439 683 524 686 526 686 c 0
 543 686 549 676 549 665 c 0
 549 655 545 638 522 638 c 2
 508 638 l 2
 491 638 474 637 458 634 c 1
 458 634 l 1
 560 352 l 1
 800 630 l 1
 800 630 l 1
 779 637 760 637 747 639 c 0
 734 641 726 644 726 659 c 0
 726 669 731 686 754 686 c 0
 776 686 780 683 866 683 c 0
 915 683 944 686 960 686 c 0
 978 686 982 674 982 666 c 0
 982 644 967 638 952 638 c 0
 888 638 868 625 839 592 c 2
 565 273 l 1
 565 273 l 1
 531 137 l 1
 509 50 l 1
 529 48 548 48 568 48 c 2
 587 48 l 2
 604 48 611 38 611 27 c 0
 611 17 606 0 583 0 c 0
 569 0 527 3 442 3 c 0
 349 3 303 0 287 0 c 0
 270 0 263 10 263 21 c 0
 263 30 268 48 291 48 c 2
 304 48 l 2
 386 48 377 50 385 77 c 1
 434 273 l 1
 434 273 l 1
 312 613 l 2
 303 638 306 638 249 638 c 0
 225 638 212 640 212 659 c 0
EndSplineSet
EndChar
StartChar: Thorn
Encoding: 222 222 183
Width: 728
Flags: MW
LayerCount: 2
Fore
SplineSet
65 20 m 0
 65 33 70 47 93 48 c 1
 111 48 l 2
 145 48 167 49 180 52 c 1
 180 52 l 1
 206 157 l 1
 326 636 l 1
 326 636 l 1
 308 638 291 638 274 638 c 0
 272 638 269 638 267 638 c 2
 250 638 l 2
 231 638 224 648 224 659 c 0
 224 668 229 683 246 686 c 0
 248 686 250 686 252 686 c 0
 265 686 305 683 383 683 c 2
 409 683 l 1
 514 684 527 686 541 686 c 0
 555 686 567 682 567 666 c 0
 567 638 549 638 514 638 c 2
 505 638 l 2
 485 638 464 638 457 634 c 0
 449 629 447 616 434 565 c 1
 560 565 l 2
 636 565 737 536 737 422 c 0
 737 326 664 206 517 183 c 0
 491 178 465 178 438 178 c 2
 337 178 l 1
 306 50 l 1
 325 48 345 48 364 48 c 2
 383 48 l 2
 394 48 401 44 404 39 c 0
 406 36 407 31 407 27 c 0
 407 17 402 0 380 0 c 0
 363 0 347 3 216 3 c 0
 163 3 127 0 104 0 c 0
 75 0 65 4 65 20 c 0
350 226 m 1
 434 226 l 2
 567 226 600 374 600 432 c 0
 600 515 545 517 524 517 c 2
 422 517 l 1
 350 226 l 1
EndSplineSet
EndChar
StartChar: germandbls
Encoding: 223 223 141
Width: 665
Flags: MW
LayerCount: 2
Fore
SplineSet
-13 -125 m 0
 -13 -84 17 -49 59 -49 c 0
 92 -49 107 -71 107 -95 c 0
 107 -115 97 -147 57 -162 c 1
 63 -165 70 -168 79 -168 c 0
 89 -168 101 -163 114 -147 c 0
 138 -119 144 -85 150 -57 c 0
 171 33 195 169 236 397 c 1
 184 397 l 1
 148 397 l 2
 135 397 119 397 119 417 c 0
 119 442 140 444 149 444 c 2
 179 444 l 5
 245 444 l 1
 245 445 l 1
 262 551 279 628 350 673 c 0
 400 705 459 706 505 706 c 0
 656 706 691 638 691 593 c 0
 691 558 677 540 590 419 c 0
 559 377 545 358 545 342 c 0
 545 300 642 254 642 166 c 0
 642 78 546 -11 439 -11 c 0
 373 -11 325 24 325 77 c 0
 325 111 348 141 382 141 c 0
 404 141 420 125 420 103 c 0
 420 89 415 68 387 53 c 1
 393 45 407 26 439 26 c 0
 499 26 521 145 521 157 c 0
 521 209 463 213 463 300 c 0
 463 388 514 413 539 450 c 0
 558 477 585 567 585 596 c 0
 585 624 570 669 499 669 c 0
 467 669 424 662 403 637 c 0
 389 620 380 593 367 527 c 2
 305 189 l 2
 295 136 269 -32 224 -109 c 0
 213 -128 192 -154 164 -174 c 0
 139 -192 109 -205 77 -205 c 0
 27 -205 -13 -173 -13 -125 c 0
EndSplineSet
EndChar
StartChar: agrave
Encoding: 224 224 184
Width: 591
Flags: MW
LayerCount: 2
Fore
SplineSet
293 611 m 0
 293 640 323 675 357 675 c 0
 379 675 393 659 404 646 c 0
 428 620 444 601 456 588 c 4
 483 558 483 555 483 549 c 0
 483 537 465 515 451 515 c 0
 447 515 440 518 421 526 c 0
 404 533 379 545 339 563 c 0
 317 573 293 582 293 611 c 0
104 150 m 0
 104 294 212 456 374 456 c 0
 413 456 444 443 472 416 c 1
 486 428 499 435 517 435 c 0
 540 435 562 421 562 393 c 0
 562 390 562 388 561 384 c 4
 558 363 545 315 497 126 c 0
 493 108 485 79 485 57 c 0
 485 30 496 26 504 26 c 0
 538 26 557 106 565 138 c 0
 571 162 580 162 596 162 c 2
 597 162 l 2
 610 162 623 161 623 145 c 0
 623 141 610 84 581 40 c 0
 570 24 557 9 541 0 c 0
 528 -8 513 -11 498 -11 c 0
 460 -11 421 4 396 41 c 1
 365 15 322 -11 264 -11 c 0
 201 -11 104 21 104 150 c 0
212 97 m 0
 212 38 247 26 270 26 c 0
 316 26 368 68 382 97 c 9
 382 97 l 17
 397 157 437 309 445 346 c 0
 446 350 446 353 446 354 c 0
 446 369 428 419 374 419 c 0
 337 419 303 391 282 357 c 0
 253 310 212 153 212 97 c 0
EndSplineSet
EndChar
StartChar: acircumflex
Encoding: 226 226 186
Width: 591
Flags: MW
LayerCount: 2
Fore
SplineSet
263 496 m 0
 263 505 269 511 280 519 c 0
 442 651 445 651 453 651 c 0
 466 651 477 633 488 618 c 0
 565 516 574 506 574 496 c 0
 574 483 552 465 540 465 c 0
 529 465 513 483 484 517 c 4
 472 531 458 548 441 568 c 1
 439 568 l 1
 427 558 335 491 309 473 c 0
 305 470 298 465 290 465 c 0
 276 465 263 484 263 496 c 0
104 150 m 0
 104 294 212 456 374 456 c 0
 413 456 444 443 472 416 c 1
 486 428 499 435 517 435 c 0
 540 435 562 421 562 393 c 0
 562 390 562 388 561 384 c 4
 558 363 545 315 497 126 c 0
 493 108 485 79 485 57 c 0
 485 30 496 26 504 26 c 0
 538 26 557 106 565 138 c 0
 571 162 580 162 596 162 c 2
 597 162 l 2
 610 162 623 161 623 145 c 0
 623 141 610 84 581 40 c 0
 570 24 557 9 541 0 c 0
 528 -8 513 -11 498 -11 c 0
 460 -11 421 4 396 41 c 1
 365 15 322 -11 264 -11 c 0
 201 -11 104 21 104 150 c 0
212 97 m 0
 212 38 247 26 270 26 c 0
 316 26 368 68 382 97 c 9
 382 97 l 17
 397 157 437 309 445 346 c 0
 446 350 446 353 446 354 c 0
 446 369 428 419 374 419 c 0
 337 419 303 391 282 357 c 0
 253 310 212 153 212 97 c 0
EndSplineSet
EndChar
StartChar: atilde
Encoding: 227 227 187
Width: 591
Flags: MW
LayerCount: 2
Fore
SplineSet
252 563 m 0
 252 574 264 583 271 590 c 0
 300 616 345 658 389 663 c 0
 392 663 395 664 398 664 c 0
 426 664 443 648 458 632 c 0
 472 617 484 603 501 603 c 1
 535 603 570 643 593 658 c 0
 598 661 603 663 607 663 c 0
 609 663 610 663 611 662 c 0
 620 659 623 651 623 646 c 0
 623 644 623 642 622 640 c 0
 619 632 610 626 604 620 c 0
 536 557 503 545 478 545 c 0
 475 545 473 545 470 545 c 0
 446 548 431 562 418 576 c 0
 404 591 392 606 374 606 c 0
 367 606 361 605 354 602 c 0
 335 595 317 578 301 565 c 4
 288 554 276 546 268 546 c 0
 267 546 266 547 265 547 c 0
 255 550 252 558 252 563 c 0
104 150 m 0
 104 294 212 456 374 456 c 0
 413 456 444 443 472 416 c 1
 486 428 499 435 517 435 c 0
 540 435 562 421 562 393 c 0
 562 390 562 388 561 384 c 4
 558 363 545 315 497 126 c 0
 493 108 485 79 485 57 c 0
 485 30 496 26 504 26 c 0
 538 26 557 106 565 138 c 0
 571 162 580 162 596 162 c 2
 597 162 l 2
 610 162 623 161 623 145 c 0
 623 141 610 84 581 40 c 0
 570 24 557 9 541 0 c 0
 528 -8 513 -11 498 -11 c 0
 460 -11 421 4 396 41 c 1
 365 15 322 -11 264 -11 c 0
 201 -11 104 21 104 150 c 0
212 97 m 0
 212 38 247 26 270 26 c 0
 316 26 368 68 382 97 c 9
 382 97 l 17
 397 157 437 309 445 346 c 0
 446 350 446 353 446 354 c 0
 446 369 428 419 374 419 c 0
 337 419 303 391 282 357 c 0
 253 310 212 153 212 97 c 0
EndSplineSet
EndChar
StartChar: adieresis
Encoding: 228 228 188
Width: 591
Flags: MW
LayerCount: 2
Fore
SplineSet
269 599 m 0
 269 643 311 686 358 686 c 0
 395 686 420 659 420 625 c 0
 420 582 378 539 331 539 c 0
 294 539 269 565 269 599 c 0
475 599 m 0
 475 643 516 686 564 686 c 0
 601 686 626 659 626 625 c 0
 626 582 584 539 537 539 c 0
 503 539 475 563 475 599 c 0
104 150 m 0
 104 294 212 456 374 456 c 0
 413 456 444 443 472 416 c 1
 486 428 499 435 517 435 c 0
 540 435 562 421 562 393 c 0
 562 390 562 388 561 384 c 4
 558 363 545 315 497 126 c 0
 493 108 485 79 485 57 c 0
 485 30 496 26 504 26 c 0
 538 26 557 106 565 138 c 0
 571 162 580 162 596 162 c 2
 597 162 l 2
 610 162 623 161 623 145 c 0
 623 141 610 84 581 40 c 0
 570 24 557 9 541 0 c 0
 528 -8 513 -11 498 -11 c 0
 460 -11 421 4 396 41 c 1
 365 15 322 -11 264 -11 c 0
 201 -11 104 21 104 150 c 0
212 97 m 0
 212 38 247 26 270 26 c 0
 316 26 368 68 382 97 c 9
 382 97 l 17
 397 157 437 309 445 346 c 0
 446 350 446 353 446 354 c 0
 446 369 428 419 374 419 c 0
 337 419 303 391 282 357 c 0
 253 310 212 153 212 97 c 0
EndSplineSet
EndChar
StartChar: ae
Encoding: 230 230 136
Width: 826
Flags: MW
LayerCount: 2
Fore
SplineSet
106 153 m 0
 106 290 202 456 374 456 c 0
 413 456 442 445 471 420 c 1
 476 430 492 455 523 455 c 0
 537 455 547 450 554 442 c 4
 558 437 561 429 563 422 c 1
 603 442 646 456 698 456 c 0
 774 456 827 416 827 358 c 0
 827 335 818 258 700 230 c 0
 647 218 586 218 524 218 c 2
 514 218 l 1
 510 198 501 162 501 128 c 0
 501 46 553 25 594 25 c 0
 656 25 711 61 749 101 c 1
 757 111 763 117 770 117 c 0
 781 117 799 96 799 86 c 0
 799 71 728 -11 592 -11 c 0
 508 -11 455 26 430 80 c 1
 429 80 l 1
 403 44 345 -11 265 -11 c 0
 200 -11 106 23 106 153 c 0
213 98 m 0
 213 47 238 26 271 26 c 0
 338 26 415 113 415 167 c 1
 415 173 415 179 416 185 c 0
 423 250 452 333 452 353 c 0
 452 366 437 419 375 419 c 0
 335 419 306 396 286 364 c 0
 262 327 249 279 240 245 c 0
 239 239 213 151 213 98 c 0
524 254 m 1
 609 254 761 257 761 359 c 0
 761 395 735 419 696 419 c 0
 628 419 557 374 524 254 c 1
EndSplineSet
EndChar
StartChar: ccedilla
Encoding: 231 231 190
Width: 532
Flags: MW
LayerCount: 2
Fore
SplineSet
111 -174 m 4
 111 -159 127 -156 138 -156 c 2
 156 -156 l 2
 283 -156 302 -124 302 -102 c 0
 302 -87 287 -77 266 -73 c 0
 254 -70 230 -74 230 -51 c 0
 230 -42 236 -19 240 -6 c 1
 154 12 106 70 106 158 c 0
 106 296 216 456 403 456 c 0
 478 456 530 418 530 360 c 0
 530 315 497 282 458 282 c 0
 430 282 409 300 409 328 c 0
 409 348 421 382 461 396 c 1
 448 408 432 419 403 419 c 0
 393 419 347 418 304 375 c 0
 234 305 216 126 216 113 c 0
 216 72 234 45 253 38 c 0
 257 37 260 36 264 36 c 2
 304 36 l 2
 353 36 342 32 353 32 c 0
 358 32 366 34 383 39 c 0
 473 69 486 116 505 116 c 0
 507 116 510 115 512 114 c 0
 522 109 534 94 534 86 c 0
 534 78 523 61 500 44 c 0
 470 22 420 -2 346 -9 c 1
 346 -10 l 1
 339 -39 l 1
 355 -42 409 -51 409 -101 c 0
 409 -174 310 -192 168 -192 c 2
 139 -192 l 2
 125 -192 111 -189 111 -174 c 4
EndSplineSet
EndChar
StartChar: egrave
Encoding: 232 232 191
Width: 532
Flags: MW
LayerCount: 2
Fore
SplineSet
264 611 m 0
 264 640 294 675 328 675 c 0
 350 675 364 659 375 646 c 0
 389 631 400 618 409 608 c 4
 453 558 454 556 454 549 c 0
 454 537 436 515 422 515 c 0
 418 515 409 519 386 529 c 0
 369 536 345 547 310 563 c 0
 288 573 264 582 264 611 c 0
108 164 m 0
 108 317 226 456 402 456 c 0
 479 456 532 417 532 358 c 0
 532 344 528 297 481 263 c 0
 448 238 396 218 255 218 c 2
 233 218 l 1
 228 196 217 154 217 117 c 0
 217 57 249 25 302 25 c 0
 354 25 424 46 474 93 c 0
 488 105 496 116 506 116 c 0
 517 116 534 95 534 86 c 0
 534 66 461 -11 299 -11 c 0
 181 -11 108 53 108 164 c 0
243 254 m 1
 251 254 260 254 268 254 c 4
 376 257 466 281 466 359 c 0
 466 396 439 419 402 419 c 0
 370 419 278 406 243 254 c 1
EndSplineSet
EndChar
StartChar: eacute
Encoding: 233 233 192
Width: 532
Flags: MW
LayerCount: 2
Fore
SplineSet
351 548 m 0
 351 556 353 560 368 571 c 4
 375 576 385 583 398 593 c 0
 480 652 505 675 531 675 c 0
 559 675 576 652 576 628 c 0
 576 610 569 597 559 588 c 0
 543 572 520 566 510 562 c 0
 390 518 381 515 375 515 c 0
 356 515 351 544 351 548 c 0
108 164 m 0
 108 317 226 456 402 456 c 0
 479 456 532 417 532 358 c 0
 532 344 528 297 481 263 c 0
 448 238 396 218 255 218 c 2
 233 218 l 1
 228 196 217 154 217 117 c 0
 217 57 249 25 302 25 c 0
 354 25 424 46 474 93 c 0
 488 105 496 116 506 116 c 0
 517 116 534 95 534 86 c 0
 534 66 461 -11 299 -11 c 0
 181 -11 108 53 108 164 c 0
243 254 m 1
 251 254 260 254 268 254 c 4
 376 257 466 281 466 359 c 0
 466 396 439 419 402 419 c 0
 370 419 278 406 243 254 c 1
EndSplineSet
EndChar
StartChar: ecircumflex
Encoding: 234 234 193
Width: 532
Flags: MW
LayerCount: 2
Fore
SplineSet
234 496 m 0
 234 505 240 511 251 520 c 0
 414 651 416 651 424 651 c 0
 437 651 448 633 459 618 c 0
 538 513 545 506 545 496 c 0
 545 483 523 465 511 465 c 0
 500 465 482 486 449 525 c 4
 438 538 425 552 411 568 c 1
 410 568 l 1
 280 473 l 2
 276 470 268 464 261 464 c 0
 246 464 234 487 234 496 c 0
108 164 m 0
 108 317 226 456 402 456 c 0
 479 456 532 417 532 358 c 0
 532 344 528 297 481 263 c 0
 448 238 396 218 255 218 c 2
 233 218 l 1
 228 196 217 154 217 117 c 0
 217 57 249 25 302 25 c 0
 354 25 424 46 474 93 c 0
 488 105 496 116 506 116 c 0
 517 116 534 95 534 86 c 0
 534 66 461 -11 299 -11 c 0
 181 -11 108 53 108 164 c 0
243 254 m 1
 251 254 260 254 268 254 c 4
 376 257 466 281 466 359 c 0
 466 396 439 419 402 419 c 0
 370 419 278 406 243 254 c 1
EndSplineSet
EndChar
StartChar: edieresis
Encoding: 235 235 194
Width: 532
Flags: MW
LayerCount: 2
Fore
SplineSet
446 599 m 4
 446 643 488 686 535 686 c 4
 572 686 597 659 597 625 c 4
 597 582 555 539 508 539 c 4
 471 539 446 566 446 599 c 4
240 599 m 0
 240 641 281 686 329 686 c 0
 366 686 391 659 391 625 c 0
 391 579 347 538 302 538 c 0
 265 538 240 566 240 599 c 0
108 164 m 0
 108 317 226 456 402 456 c 0
 479 456 532 417 532 358 c 0
 532 344 528 297 481 263 c 0
 448 238 396 218 255 218 c 2
 233 218 l 1
 228 196 217 154 217 117 c 0
 217 57 249 25 302 25 c 0
 354 25 424 46 474 93 c 0
 488 105 496 116 506 116 c 0
 517 116 534 95 534 86 c 0
 534 66 461 -11 299 -11 c 0
 181 -11 108 53 108 164 c 0
243 254 m 1
 251 254 260 254 268 254 c 4
 376 257 466 281 466 359 c 0
 466 396 439 419 402 419 c 0
 370 419 278 406 243 254 c 1
EndSplineSet
EndChar
StartChar: igrave
Encoding: 236 236 195
Width: 355
Flags: MW
LayerCount: 2
Fore
SplineSet
176 611 m 0
 176 640 205 675 239 675 c 0
 262 675 275 659 287 646 c 0
 305 626 319 610 330 598 c 4
 365 558 366 556 366 549 c 0
 366 537 347 515 333 515 c 0
 329 515 321 518 298 528 c 0
 282 535 257 547 222 563 c 0
 199 573 176 582 176 611 c 0
77 299 m 0
 77 323 130 456 230 456 c 0
 286 456 334 419 334 365 c 0
 334 355 329 338 322 316 c 4
 304 263 271 185 249 124 c 0
 236 89 227 60 227 45 c 0
 227 33 231 26 243 26 c 0
 257 26 276 35 295 62 c 0
 322 99 324 128 331 145 c 0
 335 156 342 162 357 162 c 2
 363 162 l 2
 372 162 387 162 387 146 c 0
 387 122 336 -11 235 -11 c 0
 185 -11 131 19 131 80 c 0
 131 93 139 118 150 150 c 0
 161 180 175 215 189 250 c 0
 202 283 215 315 224 342 c 0
 233 368 238 388 238 400 c 0
 238 412 233 418 221 418 c 0
 163 418 133 296 129 290 c 0
 124 284 119 282 108 282 c 2
 103 282 l 2
 93 282 77 282 77 299 c 0
EndSplineSet
EndChar
StartChar: eth
Encoding: 240 240 199
Width: 591
Flags: MW
LayerCount: 2
Fore
SplineSet
106 152 m 0
 106 283 214 461 407 461 c 0
 439 461 461 454 486 436 c 1
 476 489 459 526 427 569 c 1
 327 519 l 1
 314 559 l 1
 397 600 l 1
 397 601 l 1
 362 629 334 649 286 664 c 1
 286 665 l 1
 315 685 323 693 337 693 c 0
 357 693 427 676 478 641 c 1
 583 694 l 1
 596 654 l 1
 515 613 l 1
 539 589 612 520 612 380 c 0
 612 300 576 191 576 191 c 1
 533 65 422 -11 292 -11 c 0
 179 -11 106 47 106 152 c 0
217 112 m 0
 217 46 265 30 303 30 c 0
 347 30 388 52 413 85 c 0
 447 130 483 268 483 327 c 0
 483 413 428 425 399 425 c 0
 355 425 313 400 289 368 c 0
 250 316 217 154 217 112 c 0
EndSplineSet
EndChar
StartChar: ntilde
Encoding: 241 241 200
Width: 650
Flags: MW
LayerCount: 2
Fore
SplineSet
290 564 m 0
 290 575 302 584 309 591 c 0
 340 619 389 665 436 665 c 0
 439 665 441 665 444 665 c 0
 466 662 481 649 494 636 c 0
 509 621 521 605 539 604 c 1
 576.358266902 604 613.716533804 651.470751902 636.999998963 661.963445249 c 4
 639.892949837 663.267153532 642.568615996 664 645 664 c 0
 647 664 648 664 649 663 c 0
 658 660 661 652 661 647 c 0
 661 644 660 641 658 638 c 0
 654 631 648 626 642 621 c 0
 574 558 541 546 516 546 c 0
 513 546 509 547 506 547 c 0
 483 550 469 563 456 577 c 0
 442 592 430 607 412 607 c 0
 404 607 397 605 389 602 c 0
 370 594 352 577 336 564 c 0
 324 554 314 547 306 547 c 0
 305 547 304 548 303 548 c 0
 293 551 290 559 290 564 c 0
77 299 m 0
 77 307 89 349 104 379 c 0
 131 435 163 455 202 455 c 0
 232 455 292 443 312 385 c 1
 344 418 392 456 465 456 c 0
 545 456 604 423 604 342 c 0
 604 282 567 190 542 122 c 0
 530 88 521 61 521 45 c 0
 521 31 528 26 537 26 c 0
 554 26 595 42 624 140 c 0
 631 161 637 162 656 162 c 0
 668 162 682 161 682 146 c 0
 682 122 631 -11 530 -11 c 0
 473 -11 425 25 425 79 c 0
 425 93 433 118 444 148 c 0
 467 212 502 301 502 363 c 0
 502 408 481 419 456 419 c 0
 430 419 374 409 324 336 c 0
 312 318 311 323 293 252 c 0
 288 233 282 208 274 176 c 0
 266 145 258 107 246 61 c 0
 243 51 234 -11 178 -11 c 0
 153 -11 133 6 133 31 c 0
 133 41 136 51 138 60 c 2
 201 312 l 2
 208 337 215 368 215 389 c 0
 215 403 211 418 197 418 c 0
 155 418 137 302 129 290 c 0
 124 283 118 282 104 282 c 0
 89 282 77 284 77 299 c 0
EndSplineSet
EndChar
StartChar: ograve
Encoding: 242 242 201
Width: 591
Flags: MW
LayerCount: 2
Fore
SplineSet
294 611 m 0
 294 640 323 675 357 675 c 0
 379 675 393 659 405 646 c 0
 482 559 483 558 483 549 c 0
 483 537 465 515 451 515 c 0
 447 515 438 519 412 530 c 4
 396 537 372 548 339 563 c 0
 317 573 294 582 294 611 c 0
106 159 m 0
 106 281 202 456 406 456 c 0
 519 456 595 395 595 286 c 0
 595 160 496 -11 296 -11 c 0
 181 -11 106 50 106 159 c 0
216 113 m 0
 216 53 253 25 298 25 c 0
 329 25 364 39 392 65 c 0
 469 136 485 325 485 332 c 0
 485 401 438 419 402 419 c 0
 352 419 316 393 291 360 c 4
 248 303 235 224 233 215 c 0
 227 191 216 149 216 113 c 0
EndSplineSet
EndChar
StartChar: oacute
Encoding: 243 243 202
Width: 591
Flags: MW
LayerCount: 2
Fore
SplineSet
381 548 m 0
 381 555 383 559 394 568 c 4
 401 574 412 581 428 593 c 0
 510 652 535 675 561 675 c 0
 589 675 606 652 606 628 c 0
 606 609 598 596 587 586 c 0
 571 572 550 566 540 562 c 0
 420 518 411 515 405 515 c 0
 386 515 381 544 381 548 c 0
106 159 m 0
 106 281 202 456 406 456 c 0
 519 456 595 395 595 286 c 0
 595 160 496 -11 296 -11 c 0
 181 -11 106 50 106 159 c 0
216 113 m 0
 216 53 253 25 298 25 c 0
 329 25 364 39 392 65 c 0
 469 136 485 325 485 332 c 0
 485 401 438 419 402 419 c 0
 352 419 316 393 291 360 c 4
 248 303 235 224 233 215 c 0
 227 191 216 149 216 113 c 0
EndSplineSet
EndChar
StartChar: ocircumflex
Encoding: 244 244 203
Width: 591
Flags: MW
LayerCount: 2
Fore
SplineSet
263 496 m 0
 263 505 270 511 280 519 c 0
 443 651 445 651 453 651 c 0
 466 651 478 633 489 618 c 0
 565 516 575 506 575 496 c 0
 575 483 553 465 541 465 c 0
 529 465 512 485 481 521 c 4
 470 534 457 550 441 568 c 1
 439 568 l 1
 427 558 335 491 309 473 c 0
 306 470 298 465 290 465 c 0
 277 465 263 484 263 496 c 0
106 159 m 0
 106 281 202 456 406 456 c 0
 519 456 595 395 595 286 c 0
 595 160 496 -11 296 -11 c 0
 181 -11 106 50 106 159 c 0
216 113 m 0
 216 53 253 25 298 25 c 0
 329 25 364 39 392 65 c 0
 469 136 485 325 485 332 c 0
 485 401 438 419 402 419 c 0
 352 419 316 393 291 360 c 4
 248 303 235 224 233 215 c 0
 227 191 216 149 216 113 c 0
EndSplineSet
EndChar
StartChar: otilde
Encoding: 245 245 204
Width: 591
Flags: MW
LayerCount: 2
Fore
SplineSet
261 564 m 0
 261 575 273 584 280 591 c 0
 311 619 360 665 407 665 c 0
 411 665 415 665 418 664 c 0
 441 660 455 646 468 632 c 0
 481 618 493 604 510 604 c 1
 545 604 581 646 604 660 c 0
 608 663 612 664 616 664 c 0
 618 664 619 664 620 663 c 0
 629 660 632 652 632 647 c 0
 632 645 632 643 631 641 c 0
 628 633 619 627 613 621 c 0
 545 558 512 546 487 546 c 0
 483 546 479 546 476 547 c 0
 456 550 442 562 430 574 c 0
 414 590 402 607 383 607 c 0
 374 607 366 604 357 600 c 0
 338 590 319 573 303 561 c 4
 293 553 284 547 277 547 c 0
 276 547 275 548 274 548 c 0
 264 551 261 559 261 564 c 0
106 159 m 0
 106 281 202 456 406 456 c 0
 519 456 595 395 595 286 c 0
 595 160 496 -11 296 -11 c 0
 181 -11 106 50 106 159 c 0
216 113 m 0
 216 53 253 25 298 25 c 0
 329 25 364 39 392 65 c 0
 469 136 485 325 485 332 c 0
 485 401 438 419 402 419 c 0
 352 419 316 393 291 360 c 4
 248 303 235 224 233 215 c 0
 227 191 216 149 216 113 c 0
EndSplineSet
EndChar
StartChar: odieresis
Encoding: 246 246 205
Width: 591
Flags: MW
LayerCount: 2
Fore
SplineSet
269 599 m 0
 269 643 311 686 358 686 c 0
 395 686 420 659 420 625 c 0
 420 582 378 539 331 539 c 0
 294 539 269 565 269 599 c 0
475 599 m 0
 475 643 516 686 564 686 c 0
 601 686 626 659 626 625 c 0
 626 582 584 539 537 539 c 0
 503 539 475 563 475 599 c 0
106 159 m 0
 106 281 202 456 406 456 c 0
 519 456 595 395 595 286 c 0
 595 160 496 -11 296 -11 c 0
 181 -11 106 50 106 159 c 0
216 113 m 0
 216 53 253 25 298 25 c 0
 329 25 364 39 392 65 c 0
 469 136 485 325 485 332 c 0
 485 401 438 419 402 419 c 0
 352 419 316 393 291 360 c 4
 248 303 235 224 233 215 c 0
 227 191 216 149 216 113 c 0
EndSplineSet
EndChar
StartChar: divide
Encoding: 247 247 206
Width: 885
Flags: MW
LayerCount: 2
Fore
SplineSet
152 250 m 0
 152 264 163 277 178 279 c 0
 185 280 193 280 201 280 c 2
 815 280 l 2
 836 280 856 274 856 249 c 0
 856 237 850 220 816 220 c 2
 191 220 l 2
 156 220 152 240 152 250 c 0
351 -9 m 0
 351 44 401 95 457 95 c 0
 500 95 534 65 534 19 c 0
 534 -33 484 -85 428 -85 c 0
 382 -85 351 -50 351 -9 c 0
473 480 m 0
 473 532 523 584 580 584 c 0
 622 584 656 554 656 508 c 0
 656 456 607 404 550 404 c 0
 504 404 473 438 473 480 c 0
EndSplineSet
EndChar
StartChar: oslash
Encoding: 248 248 139
Width: 591
Flags: MW
LayerCount: 2
Fore
SplineSet
77 -97 m 0
 77 -82 106 -56 168 24 c 1
 136 51 112 91 112 154 c 0
 112 280 209 456 399 460 c 0
 401 460 404 460 406 460 c 0
 442 460 467 455 502 440 c 1
 594 555 594 559 607 559 c 0
 615 559 623 551 623 542 c 0
 623 525 585 489 533 420 c 1
 553 404 589 368 589 290 c 0
 589 154 484 -16 294 -16 c 0
 275 -16 243 -14 199 4 c 9
 199 4 l 17
 111 -106 107 -114 94 -114 c 0
 86 -114 77 -107 77 -97 c 0
210 118 m 0
 210 106 211 94 213 81 c 1
 240 114 l 1
 469 398 l 1
 469 399 l 1
 465 403 460 406 456 409 c 0
 440 419 424 423 404 423 c 0
 235 423 210 138 210 118 c 0
233 46 m 1
 252 29 271 21 297 21 c 0
 337 21 370 37 395 62 c 0
 477 143 491 315 491 327 c 0
 491 339 490 351 487 363 c 1
 487 363 l 5
 233 46 l 1
 233 46 l 1
EndSplineSet
EndChar
StartChar: uacute
Encoding: 250 250 208
Width: 620
Flags: MW
LayerCount: 2
Fore
SplineSet
395 548 m 0
 395 557 397 560 414 573 c 0
 421 578 429 584 441 593 c 0
 526 654 548 675 574 675 c 0
 602 675 620 653 620 628 c 0
 620 607 610 593 598 583 c 4
 582 570 561 565 553 562 c 0
 434 518 425 515 419 515 c 0
 400 515 395 544 395 548 c 0
77 299 m 0
 77 325 131 456 230 456 c 0
 281 456 334 424 334 365 c 0
 334 352 329 334 321 312 c 0
 300 253 261 168 261 93 c 0
 261 35 293 26 314 26 c 0
 345 26 372 43 392 65 c 0
 416 91 412 96 418 118 c 2
 484 385 l 2
 497 434 529 444 549 444 c 0
 573 444 593 428 593 402 c 0
 593 397 590 384 586 366 c 0
 571 303 537 178 522 106 c 4
 517 83 514 66 514 57 c 0
 514 30 526 26 533 26 c 0
 569 26 588 112 595 139 c 0
 600 160 606 162 628 162 c 0
 638 162 652 161 652 146 c 0
 652 133 636 90 634 83 c 0
 606 15 570 -11 528 -11 c 0
 490 -11 451 4 426 40 c 1
 394 12 361 -11 306 -11 c 0
 239 -11 160 14 160 116 c 0
 160 176 189 247 211 306 c 0
 226 345 238 378 238 398 c 0
 238 409 235 418 222 418 c 0
 206 418 187 403 174 389 c 1
 138 343 139 297 126 287 c 0
 123 284 113 282 103 282 c 0
 90 282 77 286 77 299 c 0
EndSplineSet
EndChar
StartChar: ucircumflex
Encoding: 251 251 209
Width: 620
Flags: MW
LayerCount: 2
Fore
SplineSet
277 496 m 0
 277 505 284 511 295 520 c 0
 457 651 460 651 468 651 c 0
 480 651 492 633 503 618 c 0
 582 513 589 506 589 496 c 0
 589 483 567 465 555 465 c 0
 543 465 526 487 491 527 c 4
 481 539 469 553 455 568 c 1
 454 568 l 1
 441 558 336 482 323 473 c 0
 319 470 312 464 304 464 c 0
 290 464 277 487 277 496 c 0
77 299 m 0
 77 325 131 456 230 456 c 0
 281 456 334 424 334 365 c 0
 334 352 329 334 321 312 c 0
 300 253 261 168 261 93 c 0
 261 35 293 26 314 26 c 0
 345 26 372 43 392 65 c 0
 416 91 412 96 418 118 c 2
 484 385 l 2
 497 434 529 444 549 444 c 0
 573 444 593 428 593 402 c 0
 593 397 590 384 586 366 c 0
 571 303 537 178 522 106 c 4
 517 83 514 66 514 57 c 0
 514 30 526 26 533 26 c 0
 569 26 588 112 595 139 c 0
 600 160 606 162 628 162 c 0
 638 162 652 161 652 146 c 0
 652 133 636 90 634 83 c 0
 606 15 570 -11 528 -11 c 0
 490 -11 451 4 426 40 c 1
 394 12 361 -11 306 -11 c 0
 239 -11 160 14 160 116 c 0
 160 176 189 247 211 306 c 0
 226 345 238 378 238 398 c 0
 238 409 235 418 222 418 c 0
 206 418 187 403 174 389 c 1
 138 343 139 297 126 287 c 0
 123 284 113 282 103 282 c 0
 90 282 77 286 77 299 c 0
EndSplineSet
EndChar
StartChar: thorn
Encoding: 254 254 212
Width: 591
Flags: MW
LayerCount: 2
Fore
SplineSet
9 -174 m 0
 9 -148 27 -147 45 -147 c 2
 50 -147 l 1
 64 -146 78 -146 91 -143 c 1
 97 -119 l 1
 285 636 l 1
 285 636 l 1
 247 640 217 632 217 659 c 0
 217 677 225 684 248 687 c 0
 269 690 304 690 358 693 c 0
 362 693 367 694 372 694 c 0
 383 694 396 690 396 674 c 0
 396 667 334 424 334 423 c 1
 362 440 399 456 442 456 c 0
 522 456 590 405 590 300 c 0
 590 160 489 -11 320 -11 c 0
 286 -11 265 -3 238 18 c 1
 198 -145 l 1
 210 -146 222 -147 235 -147 c 2
 238 -147 l 2
 246 -147 256 -147 262 -154 c 0
 264 -157 266 -161 266 -167 c 0
 266 -174 264 -183 258 -188 c 0
 254 -192 247 -194 238 -194 c 0
 226 -194 215 -192 127 -192 c 0
 77 -192 50 -194 35 -194 c 0
 20 -194 9 -191 9 -174 c 0
254 77 m 0
 255 65 268 26 315 26 c 0
 356 26 391 56 411 87 c 0
 446 143 483 303 483 353 c 0
 483 406 452 419 431 419 c 0
 399 419 370 403 350 387 c 4
 338 378 330 368 326 361 c 0
 321 353 254 89 254 77 c 0
EndSplineSet
EndChar
StartChar: amacron
Encoding: 257 257 231
Width: 591
Flags: MW
LayerCount: 2
Fore
SplineSet
237 566 m 0
 237 595 259 596 266 596 c 2
 593 596 l 2
 607 596 620 593 620 576 c 0
 620 561 614 546 590 546 c 2
 263 546 l 2
 248 546 237 551 237 566 c 0
104 150 m 0
 104 294 212 456 374 456 c 0
 413 456 444 443 472 416 c 1
 486 428 499 435 517 435 c 0
 540 435 562 421 562 393 c 0
 562 390 562 388 561 384 c 4
 558 363 545 315 497 126 c 0
 493 108 485 79 485 57 c 0
 485 30 496 26 504 26 c 0
 538 26 557 106 565 138 c 0
 571 162 580 162 596 162 c 2
 597 162 l 2
 610 162 623 161 623 145 c 0
 623 141 610 84 581 40 c 0
 570 24 557 9 541 0 c 0
 528 -8 513 -11 498 -11 c 0
 460 -11 421 4 396 41 c 1
 365 15 322 -11 264 -11 c 0
 201 -11 104 21 104 150 c 0
212 97 m 0
 212 38 247 26 270 26 c 0
 316 26 368 68 382 97 c 9
 382 97 l 17
 397 157 437 309 445 346 c 0
 446 350 446 353 446 354 c 0
 446 369 428 419 374 419 c 0
 337 419 303 391 282 357 c 0
 253 310 212 153 212 97 c 0
EndSplineSet
EndChar
StartChar: Aogonek
Encoding: 260 260 297
Width: 865
Flags: MW
LayerCount: 2
Fore
SplineSet
72 20 m 0
 72 25 75 42 88 46 c 0
 91 47 100 47 112 48 c 0
 131 49 157 52 173 60 c 0
 190 69 203 94 220 123 c 2
 558 677 l 2
 573 702 583 705 604 705 c 2
 612 705 l 2
 642 705 642 689 644 668 c 0
 647 638 710 65 710 65 c 2
 712 52 715 50 734 49 c 0
 744 49 758 49 778 48 c 0
 798 47 803 36 803 28 c 0
 803 3 783 0 775 0 c 2
 771 0 l 2
 754 0 727 2 709 2 c 0
 692 2 676 -5 662 -16 c 4
 637 -36 621 -69 621 -96 c 0
 621 -120 634 -150 659 -150 c 0
 679 -150 690 -131 705 -131 c 0
 715 -131 728 -143 728 -154 c 0
 728 -174 676 -216 626 -216 c 0
 579 -216 538 -179 538 -124 c 0
 538 -73 569 -32 612 3 c 1
 542 3 507 0 496 0 c 0
 487 0 480 2 476 6 c 0
 472 10 470 15 470 21 c 0
 470 26 471 33 476 39 c 0
 480 44 487 48 499 48 c 0
 525 48 550 49 572 53 c 1
 558 189 l 1
 326 189 l 1
 247 58 l 1
 299 41 331 57 331 28 c 0
 331 23 330 16 327 11 c 0
 323 5 316 0 304 0 c 0
 290 0 263 3 189 3 c 0
 133 3 105 1 96 1 c 0
 76 1 72 12 72 20 c 0
356 237 m 1
 552 237 l 1
 522 510 l 1
 356 237 l 1
EndSplineSet
EndChar
StartChar: aogonek
Encoding: 261 261 304
Width: 591
Flags: MW
LayerCount: 2
Fore
SplineSet
104 150 m 0
 104 294 212 456 374 456 c 0
 413 456 444 443 472 416 c 1
 486 428 499 435 517 435 c 0
 540 435 562 421 562 393 c 0
 562 391 561 387 560 381 c 0
 551 333 507 174 491 96 c 0
 487 78 485 64 485 57 c 0
 485 36 493 26 504 26 c 0
 507 26 511 27 514 29 c 0
 544 45 556 104 565 136 c 0
 568 145 570 152 572 155 c 0
 578 163 590 162 600 162 c 2
 601 162 l 2
 612 162 623 159 623 146 c 0
 623 135 610 95 600 74 c 0
 588 47 575 28 562 15 c 4
 538 -8 514 -11 500 -11 c 2
 491 -11 l 1
 485 -15 427 -46 427 -98 c 0
 427 -133 455 -164 484 -164 c 0
 503 -164 509 -152 522 -152 c 0
 531 -152 539 -161 539 -168 c 0
 539 -185 498 -216 451 -216 c 0
 402 -216 351 -183 351 -127 c 0
 351 -76 395 -31 445 -1 c 1
 445 0 l 1
 411 15 399 36 396 41 c 1
 365 15 322 -11 264 -11 c 0
 201 -11 104 21 104 150 c 0
212 97 m 0
 212 38 247 26 270 26 c 0
 316 26 368 68 382 97 c 1
 382 97 446 342 446 354 c 0
 446 369 428 419 374 419 c 0
 337 419 303 391 282 357 c 0
 248 302 212 143 212 97 c 0
EndSplineSet
EndChar
StartChar: Cacute
Encoding: 262 262 314
Width: 826
Flags: MW
LayerCount: 2
Fore
SplineSet
502 789 m 0
 502 806 516 811 528 817 c 0
 605 858 641 877 661 885 c 0
 677 892 682 892 687 892 c 0
 715 892 732 869 732 845 c 0
 732 828 723 811 710 800 c 0
 691 784 668 783 581 767 c 0
 569 765 556 762 542 759 c 0
 536 758 530 756 525 756 c 0
 506 756 502 775 502 789 c 0
161 243 m 0
 161 448 326 708 631 708 c 0
 696 708 751 687 794 640 c 1
 832 668 852 687 866 697 c 0
 876 704 882 708 890 708 c 0
 898 708 908 704 908 691 c 0
 908 689 908 688 904 671 c 0
 898 646 883 589 849 450 c 0
 844 432 842 426 820 426 c 2
 813 426 l 2
 790 426 785 430 785 444 c 0
 785 454 788 468 788 489 c 0
 788 556 759 660 644 660 c 0
 610 660 485 653 398 533 c 0
 330 438 296 260 296 198 c 0
 296 60 400 26 480 26 c 0
 506 26 594 30 674 120 c 0
 730 183 730 220 739 237 c 4
 743 244 749 248 762 248 c 2
 768 248 l 2
 787 248 793 242 793 232 c 0
 793 227 791 220 789 213 c 0
 744 74 597 -22 455 -22 c 0
 332 -22 161 31 161 243 c 0
EndSplineSet
EndChar
StartChar: cacute
Encoding: 263 263 327
Width: 532
Flags: MW
LayerCount: 2
Fore
SplineSet
300 548 m 0
 300 557 302 560 319 573 c 0
 326 578 334 584 346 593 c 0
 431 654 453 675 479 675 c 0
 507 675 525 653 525 628 c 0
 525 607 515 593 503 583 c 0
 487 570 466 565 458 562 c 0
 339 518 330 515 324 515 c 0
 305 515 300 544 300 548 c 0
106 159 m 0
 106 300 220 456 403 456 c 0
 478 456 530 417 530 360 c 0
 530 316 497 282 458 282 c 0
 431 282 409 300 409 328 c 0
 409 349 421 383 461 396 c 1
 448 408 432 419 403 419 c 0
 393 419 347 418 304 375 c 0
 288 359 274 337 263 312 c 4
 226 231 216 123 216 113 c 0
 216 54 249 25 302 25 c 0
 359 25 428 47 478 96 c 0
 479 97 496 116 505 116 c 0
 517 116 534 96 534 86 c 0
 534 66 461 -11 299 -11 c 0
 180 -11 106 49 106 159 c 0
EndSplineSet
EndChar
StartChar: Ccircumflex
Encoding: 264 264 338
Width: 826
Flags: MW
LayerCount: 2
Fore
SplineSet
511 772 m 0
 511 781 517 787 528 795 c 0
 596 843 635 870 658 885 c 0
 687 904 690 904 694 904 c 2
 696 904 l 2
 701 904 704 903 723 883 c 0
 737 869 759 846 795 808 c 0
 819 783 821 780 821 772 c 0
 821 762 802 740 787 740 c 0
 776 740 758 758 731 781 c 0
 715 795 698 809 683 823 c 1
 630 795 551 740 536 740 c 0
 521 740 511 763 511 772 c 0
161 243 m 0
 161 448 326 708 631 708 c 0
 696 708 751 687 794 640 c 1
 832 668 852 687 866 697 c 0
 876 704 882 708 890 708 c 0
 898 708 908 704 908 691 c 0
 908 689 908 688 904 671 c 0
 898 646 883 589 849 450 c 0
 844 432 842 426 820 426 c 2
 813 426 l 2
 790 426 785 430 785 444 c 0
 785 454 788 468 788 489 c 0
 788 556 759 660 644 660 c 0
 610 660 485 653 398 533 c 0
 330 438 296 260 296 198 c 0
 296 60 400 26 480 26 c 0
 506 26 594 30 674 120 c 0
 730 183 730 220 739 237 c 0
 743 244 749 248 762 248 c 2
 768 248 l 2
 787 248 793 242 793 232 c 0
 793 227 791 220 789 213 c 0
 744 74 597 -22 455 -22 c 0
 332 -22 161 31 161 243 c 0
EndSplineSet
EndChar
StartChar: ccircumflex
Encoding: 265 265 344
Width: 532
Flags: MW
LayerCount: 2
Fore
SplineSet
279 496 m 0
 279 505 286 511 297 520 c 0
 459 651 462 651 470 651 c 0
 482 651 494 633 505 618 c 0
 584 513 591 506 591 496 c 0
 591 483 569 465 557 465 c 0
 545 465 528 487 493 527 c 0
 483 539 471 553 457 568 c 1
 456 568 l 1
 443 558 338 482 325 473 c 0
 321 470 314 464 306 464 c 0
 292 464 279 487 279 496 c 0
106 159 m 0
 106 300 220 456 403 456 c 0
 478 456 530 417 530 360 c 0
 530 316 497 282 458 282 c 0
 431 282 409 300 409 328 c 0
 409 349 421 383 461 396 c 1
 448 408 432 419 403 419 c 0
 393 419 347 418 304 375 c 0
 288 359 274 337 263 312 c 0
 226 231 216 123 216 113 c 0
 216 54 249 25 302 25 c 0
 359 25 428 47 478 96 c 0
 479 97 496 116 505 116 c 0
 517 116 534 96 534 86 c 0
 534 66 461 -11 299 -11 c 0
 180 -11 106 49 106 159 c 0
EndSplineSet
EndChar
StartChar: Cdotaccent
Encoding: 266 266 364
Width: 826
Flags: MW
LayerCount: 2
Fore
SplineSet
600 835 m 4
 600 876 639 921 689 921 c 4
 723 921 750 897 750 861 c 4
 750 815 706 774 662 774 c 4
 625 774 600 801 600 835 c 4
161 243 m 0
 161 448 326 708 631 708 c 0
 696 708 751 687 794 640 c 1
 832 668 852 687 866 697 c 0
 876 704 882 708 890 708 c 0
 898 708 908 704 908 691 c 0
 908 689 908 688 904 671 c 0
 898 646 883 589 849 450 c 0
 844 432 842 426 820 426 c 2
 813 426 l 2
 790 426 785 430 785 444 c 0
 785 454 788 468 788 489 c 0
 788 556 759 660 644 660 c 0
 610 660 485 653 398 533 c 0
 330 438 296 260 296 198 c 0
 296 60 400 26 480 26 c 0
 506 26 594 30 674 120 c 0
 730 183 730 220 739 237 c 0
 743 244 749 248 762 248 c 2
 768 248 l 2
 787 248 793 242 793 232 c 0
 793 227 791 220 789 213 c 0
 744 74 597 -22 455 -22 c 0
 332 -22 161 31 161 243 c 0
EndSplineSet
EndChar
StartChar: cdotaccent
Encoding: 267 267 383
Width: 532
Flags: MW
LayerCount: 2
Fore
SplineSet
365 625 m 0
 365 658 398 693 435 693 c 0
 465 693 484 672 484 645 c 0
 484 611 451 577 414 577 c 0
 387 577 365 596 365 625 c 0
106 159 m 0
 106 300 220 456 403 456 c 0
 478 456 530 417 530 360 c 0
 530 316 497 282 458 282 c 0
 431 282 409 300 409 328 c 0
 409 349 421 383 461 396 c 1
 448 408 432 419 403 419 c 0
 393 419 347 418 304 375 c 0
 288 359 274 337 263 312 c 4
 226 231 216 123 216 113 c 0
 216 54 249 25 302 25 c 0
 359 25 428 47 478 96 c 0
 479 97 496 116 505 116 c 0
 517 116 534 96 534 86 c 0
 534 66 461 -11 299 -11 c 0
 180 -11 106 49 106 159 c 0
EndSplineSet
EndChar
StartChar: Ccaron
Encoding: 268 268 315
Width: 826
Flags: MW
LayerCount: 2
Fore
SplineSet
475 877 m 0
 475 887 483 894 494 894 c 0
 507 894 609 869 625 869 c 0
 640 869 759 894 770 894 c 0
 782 894 789 887 789 877 c 0
 789 866 777 859 768 854 c 0
 690 814 652 795 633 786 c 0
 616 778 614 778 612 778 c 0
 601 778 586 791 575 798 c 0
 475 866 475 864 475 877 c 0
161 243 m 0
 161 448 326 708 631 708 c 0
 696 708 751 687 794 640 c 1
 832 668 852 687 866 697 c 0
 876 704 882 708 890 708 c 0
 898 708 908 704 908 691 c 0
 908 689 908 688 904 671 c 0
 898 646 883 589 849 450 c 0
 844 432 842 426 820 426 c 2
 813 426 l 2
 790 426 785 430 785 444 c 0
 785 454 788 468 788 489 c 0
 788 556 759 660 644 660 c 0
 610 660 485 653 398 533 c 0
 330 438 296 260 296 198 c 0
 296 60 400 26 480 26 c 0
 506 26 594 30 674 120 c 0
 730 183 730 220 739 237 c 4
 743 244 749 248 762 248 c 2
 768 248 l 2
 787 248 793 242 793 232 c 0
 793 227 791 220 789 213 c 0
 744 74 597 -22 455 -22 c 0
 332 -22 161 31 161 243 c 0
EndSplineSet
EndChar
StartChar: ccaron
Encoding: 269 269 328
Width: 532
Flags: MW
LayerCount: 2
Fore
SplineSet
268 635 m 0
 268 644 275 651 285 651 c 0
 299 651 406 576 406 576 c 1
 487 614 551 651 565 651 c 0
 574 651 582 644 582 635 c 0
 582 623 570 615 563 609 c 2
 563 609 414 488 406 482 c 0
 401 479 396 475 389 475 c 0
 377 475 366 494 355 508 c 0
 272 620 268 624 268 635 c 0
106 159 m 0
 106 300 220 456 403 456 c 0
 478 456 530 417 530 360 c 0
 530 316 497 282 458 282 c 0
 431 282 409 300 409 328 c 0
 409 349 421 383 461 396 c 1
 448 408 432 419 403 419 c 0
 393 419 347 418 304 375 c 0
 288 359 274 337 263 312 c 4
 226 231 216 123 216 113 c 0
 216 54 249 25 302 25 c 0
 359 25 428 47 478 96 c 0
 479 97 496 116 505 116 c 0
 517 116 534 96 534 86 c 0
 534 66 461 -11 299 -11 c 0
 180 -11 106 49 106 159 c 0
EndSplineSet
EndChar
StartChar: Dcaron
Encoding: 270 270 317
Width: 875
Flags: MW
LayerCount: 2
Fore
SplineSet
500 877 m 0
 500 887 508 894 519 894 c 0
 532 894 634 869 650 869 c 0
 665 869 784 894 795 894 c 0
 807 894 814 887 814 877 c 0
 814 866 802 859 793 854 c 0
 715 814 677 795 658 786 c 0
 641 778 639 778 637 778 c 0
 626 778 611 791 600 798 c 0
 500 866 500 864 500 877 c 0
65 20 m 0
 65 46 86 48 94 48 c 2
 114 48 l 2
 147 48 167 49 180 52 c 1
 326 636 l 1
 326 636 l 1
 306 638 287 638 267 638 c 2
 250 638 l 2
 231 638 225 648 225 659 c 0
 225 685 246 686 254 686 c 2
 620 686 l 2
 831 686 884 559 884 447 c 0
 884 277 765 0 453 0 c 2
 93 0 l 2
 81 0 65 2 65 20 c 0
311 49 m 1
 324 48 336 48 349 48 c 2
 427 48 l 2
 468 48 581 50 658 154 c 1
 721 241 755 436 755 484 c 0
 755 607 668 638 572 638 c 2
 504 638 l 2
 489 638 473 638 458 637 c 1
 311 49 l 1
 311 49 l 1
EndSplineSet
EndChar
StartChar: dcaron
Encoding: 271 271 330
Width: 591
Flags: MW
LayerCount: 2
Fore
SplineSet
659 493 m 0
 659 517 729 516 781 615 c 1
 767 608 751 603 734 603 c 0
 698 603 674 626 674 661 c 0
 674 702 710 750 764 750 c 0
 806 750 834 718 834 674 c 0
 834 637 803 542 703 485 c 0
 695 481 685 475 676 475 c 0
 666 475 659 485 659 493 c 0
104 150 m 0
 104 294 212 456 374 456 c 0
 410 456 436 446 464 423 c 1
 517 636 l 1
 517 636 l 1
 499 638 482 637 470 639 c 0
 457 641 449 645 449 658 c 0
 449 688 478 687 479 687 c 2
 479 687 559 691 594 693 c 4
 601 693 607 694 609 694 c 0
 621 694 633 690 633 674 c 0
 633 670 632 665 631 660 c 2
 497 123 l 2
 491 101 485 75 485 55 c 0
 485 38 490 26 504 26 c 0
 538 26 558 111 565 138 c 0
 570 161 579 162 591 162 c 2
 597 162 l 2
 617 162 623 156 623 147 c 0
 623 141 621 135 619 129 c 0
 609 92 596 64 584 44 c 0
 552 -8 516 -11 499 -11 c 0
 461 -11 421 4 396 41 c 1
 358 10 317 -11 264 -11 c 0
 202 -11 104 21 104 150 c 0
212 97 m 0
 212 38 247 26 270 26 c 0
 312 26 353 58 373 83 c 0
 378 90 380 90 387 116 c 0
 395 145 410 205 443 339 c 0
 445 344 446 349 446 354 c 0
 446 366 439 383 426 397 c 0
 414 409 397 419 374 419 c 0
 337 419 303 391 282 357 c 0
 253 310 212 153 212 97 c 0
EndSplineSet
EndChar
StartChar: Dcroat
Encoding: 272 272 353
Width: 875
Flags: MW
LayerCount: 2
Fore
SplineSet
65 20 m 0
 65 46 86 48 94 48 c 2
 114 48 l 2
 147 48 167 49 180 52 c 1
 180 52 l 1
 245 313 l 1
 192 313 l 1
 170 313 l 2
 149 313 143 323 143 333 c 0
 143 342 147 360 171 360 c 2
 190 360 l 1
 257 360 l 1
 326 636 l 1
 306 638 287 638 267 638 c 2
 250 638 l 2
 241 638 235 640 231 644 c 0
 227 648 225 653 225 659 c 0
 225 669 228 676 233 680 c 0
 240 686 249 686 254 686 c 2
 620 686 l 2
 831 686 884 559 884 447 c 0
 884 338 834 184 716 88 c 0
 651 35 564 0 453 0 c 2
 93 0 l 2
 81 0 65 2 65 20 c 0
311 49 m 1
 324 48 336 48 349 48 c 2
 427 48 l 2
 468 48 581 50 658 154 c 1
 721 241 755 436 755 484 c 0
 755 607 668 638 572 638 c 2
 504 638 l 2
 489 638 473 638 458 637 c 1
 445 583 l 1
 389 360 l 1
 536 360 l 2
 548 360 564 359 564 340 c 0
 564 335 563 330 562 327 c 4
 558 317 548 314 538 313 c 0
 534 313 531 313 527 313 c 2
 377 313 l 1
 311 49 l 1
EndSplineSet
EndChar
StartChar: dcroat
Encoding: 273 273 331
Width: 591
Flags: MW
LayerCount: 2
Fore
SplineSet
104 150 m 0
 104 294 212 456 374 456 c 0
 410 456 436 446 464 423 c 1
 489 523 l 1
 410 523 l 2
 390 523 384 533 384 543 c 0
 384 551 387 563 398 568 c 0
 402 570 406 571 411 571 c 1
 501 571 l 1
 517 636 l 1
 517 636 l 1
 495 638 476 637 464 640 c 0
 455 642 450 648 450 659 c 0
 450 667 452 674 456 678 c 0
 464 687 478 687 479 687 c 0
 523 690 605 694 609 694 c 0
 628 694 633 686 633 675 c 0
 633 660 619 615 609 571 c 1
 629 571 l 2
 643 571 656 567 656 551 c 0
 656 525 635 523 627 523 c 2
 597 523 l 1
 586 480 l 5
 494 114 l 2
 491 101 485 76 485 56 c 0
 485 40 489 26 504 26 c 0
 545 26 563 139 570 152 c 0
 575 161 584 162 594 162 c 0
 616 162 623 157 623 147 c 0
 623 142 621 136 619 129 c 0
 582 -6 522 -11 498 -11 c 0
 460 -11 421 4 396 41 c 1
 358 10 317 -11 264 -11 c 0
 202 -11 104 21 104 150 c 0
212 97 m 0
 212 38 247 26 270 26 c 0
 312 26 353 58 373 83 c 0
 384 97 380 82 443 339 c 0
 445 344 446 349 446 354 c 0
 446 377 422 419 374 419 c 0
 337 419 303 391 282 357 c 0
 253 310 212 153 212 97 c 0
EndSplineSet
EndChar
StartChar: Eogonek
Encoding: 280 280 316
Width: 756
Flags: MW
LayerCount: 2
Fore
SplineSet
65 20 m 0
 65 46 86 48 94 48 c 2
 114 48 l 2
 147 48 167 49 180 52 c 1
 193 104 l 1
 314 590 l 1
 324 630 l 1
 306 632 288 633 270 633 c 2
 250 633 l 2
 235 633 223 637 223 653 c 0
 223 666 229 680 252 680 c 2
 775 680 l 2
 792 680 803 676 803 657 c 0
 803 648 785 507 782 469 c 0
 780 449 776 438 752 438 c 0
 730 438 725 446 725 462 c 0
 725 477 730 498 730 527 c 0
 730 619 678 633 580 633 c 2
 510 633 l 2
 494 633 478 632 462 631 c 1
 449 579 l 1
 399 377 l 1
 434 377 l 2
 469 377 498 378 522 400 c 1
 544 421 548 445 553 464 c 4
 558 482 563 494 585 494 c 0
 605 494 611 485 611 473 c 0
 611 468 610 463 609 457 c 0
 576 322 563 262 553 235 c 0
 545 213 538 213 525 213 c 2
 524 213 l 2
 503 213 497 220 497 232 c 0
 497 246 506 267 506 289 c 0
 506 324 481 329 426 329 c 2
 387 329 l 1
 325 80 l 1
 317 49 l 1
 329 48 342 48 355 48 c 2
 420 48 l 2
 568 48 621 76 696 243 c 0
 705 263 706 275 732 275 c 0
 746 275 758 271 758 257 c 0
 758 244 749 228 744 217 c 0
 694 98 673 47 663 25 c 0
 656 10 654 7 650 5 c 0
 642 -1 632 0 623 0 c 2
 578 0 l 2
 544 0 497 -46 497 -96 c 0
 497 -121 511 -150 535 -150 c 0
 556 -150 566 -131 580 -131 c 0
 590 -131 605 -142 605 -154 c 0
 605 -172 553 -216 503 -216 c 0
 450 -216 414 -174 414 -124 c 0
 414 -69 451 -29 484 0 c 1
 89 0 l 2
 76 0 65 6 65 20 c 0
EndSplineSet
EndChar
StartChar: eogonek
Encoding: 281 281 329
Width: 532
Flags: MW
LayerCount: 2
Fore
SplineSet
108 165 m 0
 108 322 231 456 402 456 c 0
 480 456 532 416 532 358 c 0
 532 309 500 259 427 236 c 0
 373 219 303 218 258 218 c 2
 233 218 l 1
 228 196 217 154 217 117 c 0
 217 56 249 25 302 25 c 0
 332 25 411 34 474 93 c 0
 485 102 495 116 505 116 c 0
 517 116 534 95 534 86 c 0
 534 72 500 39 454 18 c 0
 441 12 344 -18 344 -97 c 0
 344 -128 365 -160 394 -160 c 0
 417 -160 427 -141 441 -141 c 0
 449 -141 459 -149 459 -159 c 0
 459 -172 412 -216 358 -216 c 0
 310 -216 268 -181 268 -127 c 0
 268 -80 301 -38 337 -10 c 1
 324 -11 311 -11 297 -11 c 0
 176 -11 108 57 108 165 c 0
243 254 m 1
 362 254 466 275 466 359 c 0
 466 396 439 419 402 419 c 0
 370 419 278 406 243 254 c 1
EndSplineSet
EndChar
StartChar: Ecaron
Encoding: 282 282 265
Width: 756
Flags: MW
LayerCount: 2
Fore
SplineSet
440 877 m 0
 440 887 448 894 459 894 c 0
 472 894 574 869 590 869 c 0
 605 869 724 894 735 894 c 0
 747 894 754 887 754 877 c 0
 754 866 742 859 733 854 c 0
 655 814 617 795 598 786 c 0
 581 778 579 778 577 778 c 0
 566 778 551 791 540 798 c 0
 440 866 440 864 440 877 c 0
65 20 m 0
 65 46 85 48 94 48 c 2
 114 48 l 2
 147 48 167 49 180 52 c 1
 324 630 l 1
 324 630 l 1
 306 632 288 633 270 633 c 2
 250 633 l 2
 235 633 223 637 223 653 c 0
 223 666 229 680 252 680 c 2
 775 680 l 2
 792 680 803 676 803 658 c 0
 803 647 785 504 782 469 c 0
 780 449 776 438 751 438 c 0
 730 438 725 446 725 462 c 0
 725 467 725 472 726 478 c 0
 727 491 730 507 730 527 c 0
 730 619 678 633 580 633 c 2
 510 633 l 2
 494 633 478 632 462 631 c 1
 399 377 l 1
 433 377 l 2
 469 377 498 378 521 400 c 0
 547 426 549 454 556 473 c 0
 560 485 562 493 585 493 c 0
 605 493 612 485 612 473 c 0
 612 468 610 461 609 457 c 2
 557 249 l 2
 549 213 540 213 524 213 c 0
 503 213 497 220 497 232 c 0
 497 237 498 242 499 248 c 4
 502 260 506 274 506 289 c 0
 506 329 470 329 426 329 c 2
 387 329 l 1
 317 49 l 1
 317 49 l 1
 329 48 342 48 355 48 c 2
 420 48 l 2
 467 48 526 48 579 79 c 0
 641 115 670 185 700 253 c 0
 707 269 712 275 733 275 c 0
 752 275 758 267 758 257 c 0
 758 251 755 243 753 237 c 2
 661 22 l 2
 653 4 648 0 628 0 c 2
 94 0 l 2
 82 0 65 1 65 20 c 0
EndSplineSet
EndChar
StartChar: gcircumflex
Encoding: 285 285 345
Width: 532
Flags: MW
LayerCount: 2
Fore
SplineSet
234 496 m 0
 234 505 241 511 252 520 c 0
 414 651 417 651 425 651 c 0
 437 651 449 633 460 618 c 0
 539 513 546 506 546 496 c 0
 546 483 524 465 512 465 c 0
 500 465 483 487 448 527 c 0
 438 539 426 553 412 568 c 1
 411 568 l 1
 398 558 293 482 280 473 c 0
 276 470 269 464 261 464 c 0
 247 464 234 487 234 496 c 0
58 -131 m 0
 58 -90 92 -58 130 -58 c 0
 158 -58 178 -77 178 -104 c 0
 178 -127 167 -145 149 -162 c 1
 169 -166 191 -169 212 -169 c 0
 243 -169 268 -159 287 -145 c 0
 314 -125 330 -97 337 -81 c 0
 341 -71 344 -59 366 28 c 1
 336 11 305 0 269 0 c 0
 202 0 106 32 106 159 c 0
 106 300 214 456 373 456 c 0
 421 456 450 439 472 417 c 1
 487 428 499 435 517 435 c 0
 542 435 562 418 562 393 c 0
 562 385 560 376 558 368 c 2
 454 -46 l 2
 445 -83 433 -139 346 -179 c 0
 305 -197 265 -206 213 -206 c 0
 164 -206 58 -203 58 -131 c 0
214 107 m 0
 214 57 240 37 272 37 c 0
 301 37 336 53 362 78 c 0
 378 93 382 97 391 128 c 4
 399 157 411 211 439 321 c 0
 446 348 447 353 447 355 c 0
 447 377 423 419 374 419 c 0
 332 419 298 385 282 358 c 0
 251 308 214 157 214 107 c 0
EndSplineSet
EndChar
StartChar: Gbreve
Encoding: 286 286 366
Width: 895
Flags: MW
LayerCount: 2
Fore
SplineSet
499 858 m 0
 499 871 502 893 519 893 c 0
 529 893 537 885 537 873 c 2
 537 866 l 2
 537 841 562 824 648 824 c 0
 781 824 787 864 798 883 c 0
 801 889 806 893 814 893 c 0
 824 893 831 884 831 874 c 0
 831 847 781 764 643 764 c 0
 557 764 499 801 499 858 c 0
161 241 m 0
 161 454 331 708 631 708 c 0
 697 708 751 687 794 640 c 1
 839 673 859 693 873 702 c 0
 879 706 884 708 890 708 c 0
 898 708 908 704 908 691 c 0
 908 690 907 688 905 678 c 4
 900 658 887 604 849 450 c 0
 844 432 842 426 820 426 c 2
 809 426 l 2
 799 426 785 427 785 444 c 0
 785 453 788 466 788 488 c 0
 788 557 759 660 644 660 c 0
 564 660 478 627 417 556 c 0
 326 451 297 250 297 200 c 0
 297 54 412 26 485 26 c 0
 568 26 612 80 624 107 c 0
 632 126 638 157 650 205 c 0
 652 211 653 218 655 225 c 1
 645 226 632 227 619 227 c 0
 602 227 585 227 576 227 c 2
 558 227 l 2
 547 227 529 228 529 248 c 0
 529 260 535 275 558 275 c 0
 576 275 593 273 732 273 c 2
 760 273 l 2
 801 273 826 275 843 275 c 0
 862 275 872 271 872 255 c 0
 872 229 852 227 842 227 c 2
 829 227 l 2
 819 227 807 227 792 224 c 1
 784 189 743 26 741 19 c 0
 737 6 732 2 725 2 c 0
 713 2 671 27 651 47 c 1
 597 -6 519 -22 455 -22 c 0
 334 -22 161 31 161 241 c 0
EndSplineSet
EndChar
StartChar: gdotaccent
Encoding: 289 289 387
Width: 532
Flags: MW
LayerCount: 2
Fore
SplineSet
365 625 m 0
 365 658 398 693 435 693 c 0
 465 693 484 672 484 645 c 0
 484 611 451 577 414 577 c 0
 387 577 365 596 365 625 c 0
58 -131 m 0
 58 -90 92 -58 130 -58 c 0
 158 -58 178 -77 178 -104 c 0
 178 -127 167 -145 149 -162 c 1
 169 -166 191 -169 212 -169 c 0
 243 -169 268 -159 287 -145 c 0
 314 -125 330 -97 337 -81 c 0
 341 -71 344 -59 366 28 c 1
 336 11 305 0 269 0 c 0
 202 0 106 32 106 159 c 0
 106 300 214 456 373 456 c 0
 421 456 450 439 472 417 c 1
 487 428 499 435 517 435 c 0
 542 435 562 418 562 393 c 0
 562 385 560 376 558 368 c 2
 454 -46 l 2
 445 -83 433 -139 346 -179 c 0
 305 -197 265 -206 213 -206 c 0
 164 -206 58 -203 58 -131 c 0
214 107 m 0
 214 57 240 37 272 37 c 0
 301 37 336 53 362 78 c 0
 378 93 382 97 391 128 c 4
 399 157 411 211 439 321 c 0
 446 348 447 353 447 355 c 0
 447 377 423 419 374 419 c 0
 332 419 298 385 282 358 c 0
 251 308 214 157 214 107 c 0
EndSplineSet
EndChar
StartChar: Gcommaaccent
Encoding: 290 290 367
Width: 895
Flags: MW
LayerCount: 2
Fore
SplineSet
367 -119 m 0
 374 -93 397 -73 425 -73 c 0
 460 -73 471 -107 461 -148 c 0
 440 -231 364 -283 355 -283 c 0
 350 -283 345 -277 347 -271 c 0
 348 -267 349 -265 354 -262 c 0
 370 -251 414 -221 436 -160 c 0
 436 -158 438 -156 438 -154 c 1
 437 -155 436 -156 434 -157 c 0
 428 -161 416 -166 402 -166 c 0
 371 -166 361 -143 367 -119 c 0
161 241 m 0
 161 454 331 708 631 708 c 0
 697 708 751 687 794 640 c 1
 839 673 859 693 873 702 c 0
 879 706 884 708 890 708 c 0
 898 708 908 704 908 691 c 0
 908 690 907 688 905 678 c 4
 900 658 887 604 849 450 c 0
 844 432 842 426 820 426 c 2
 809 426 l 2
 799 426 785 427 785 444 c 0
 785 453 788 466 788 488 c 0
 788 557 759 660 644 660 c 0
 564 660 478 627 417 556 c 0
 326 451 297 250 297 200 c 0
 297 54 412 26 485 26 c 0
 568 26 612 80 624 107 c 0
 632 126 638 157 650 205 c 0
 652 211 653 218 655 225 c 1
 645 226 632 227 619 227 c 0
 602 227 585 227 576 227 c 2
 558 227 l 2
 547 227 529 228 529 248 c 0
 529 260 535 275 558 275 c 0
 576 275 593 273 732 273 c 2
 760 273 l 2
 801 273 826 275 843 275 c 0
 862 275 872 271 872 255 c 0
 872 229 852 227 842 227 c 2
 829 227 l 2
 819 227 807 227 792 224 c 1
 784 189 743 26 741 19 c 0
 737 6 732 2 725 2 c 0
 713 2 671 27 651 47 c 1
 597 -6 519 -22 455 -22 c 0
 334 -22 161 31 161 241 c 0
EndSplineSet
EndChar
StartChar: Hcircumflex
Encoding: 292 292 340
Width: 896
Flags: MW
LayerCount: 2
Fore
SplineSet
486 772 m 0
 486 781 492 787 503 795 c 0
 571 843 610 870 633 885 c 0
 662 904 665 904 669 904 c 2
 671 904 l 2
 676 904 679 903 698 883 c 0
 712 869 734 846 770 808 c 0
 794 783 796 780 796 772 c 0
 796 762 777 740 762 740 c 0
 751 740 733 758 706 781 c 0
 690 795 673 809 658 823 c 1
 605 795 526 740 511 740 c 0
 496 740 486 763 486 772 c 0
64 20 m 0
 64 45 82 48 93 48 c 2
 110 48 l 2
 145 48 166 49 180 52 c 1
 325 636 l 1
 307 638 289 638 270 638 c 2
 251 638 l 2
 235 638 224 643 224 659 c 0
 224 671 229 686 252 686 c 0
 267 686 311 683 398 683 c 0
 502 683 533 686 550 686 c 0
 565 686 577 683 577 665 c 0
 577 653 572 638 549 638 c 2
 513 638 l 2
 473 638 465 638 460 623 c 0
 459 619 457 614 456 608 c 2
 399 381 l 1
 685 381 l 1
 748 636 l 1
 748 636 l 1
 730 638 711 638 693 638 c 2
 673 638 l 2
 658 638 647 643 647 659 c 0
 647 669 651 686 676 686 c 0
 690 686 735 683 825 683 c 0
 934 683 961 686 974 686 c 0
 992 686 1001 679 1001 666 c 0
 1001 657 997 638 973 638 c 2
 936 638 l 2
 886 638 886 638 879 608 c 2
 740 50 l 1
 740 50 l 1
 759 48 778 48 798 48 c 2
 817 48 l 2
 834 48 841 38 841 27 c 0
 841 14 835 0 812 0 c 0
 797 0 752 3 661 3 c 0
 573 3 529 0 515 0 c 0
 493 0 487 9 487 19 c 0
 487 29 491 48 516 48 c 2
 533 48 l 2
 568 48 589 49 603 52 c 1
 673 333 l 1
 387 333 l 1
 316 50 l 1
 316 50 l 1
 336 48 355 48 375 48 c 2
 394 48 l 2
 411 48 418 38 418 27 c 0
 418 14 412 0 389 0 c 0
 374 0 329 3 238 3 c 0
 150 3 106 0 92 0 c 0
 76 0 64 4 64 20 c 0
EndSplineSet
EndChar
StartChar: hcircumflex
Encoding: 293 293 346
Width: 591
Flags: MW
LayerCount: 2
Fore
SplineSet
332 770 m 0
 332 779 339 785 350 794 c 0
 512 925 515 925 523 925 c 0
 535 925 547 907 558 892 c 0
 637 787 644 780 644 770 c 0
 644 757 622 739 610 739 c 0
 598 739 581 761 546 801 c 0
 536 813 524 827 510 842 c 1
 509 842 l 1
 496 832 391 756 378 747 c 0
 374 744 367 738 359 738 c 0
 345 738 332 761 332 770 c 0
74 32 m 0
 74 44 78 55 81 67 c 2
 207 571 l 2
 212 593 218 614 223 636 c 1
 205 638 189 638 177 639 c 0
 163 641 155 645 155 659 c 0
 155 675 161 682 179 686 c 0
 200 690 238 690 300 693 c 0
 305 693 310 694 315 694 c 0
 326 694 339 690 339 674 c 0
 339 667 336 659 335 653 c 2
 273 404 l 1
 307 433 347 456 408 456 c 0
 471 456 544 433 544 342 c 0
 544 279 506 186 482 118 c 4
 471 86 462 60 462 45 c 0
 462 34 465 26 477 26 c 0
 495 26 536 41 565 140 c 0
 571 162 579 162 597 162 c 2
 598 162 l 2
 609 162 622 162 622 146 c 0
 622 119 569 -11 470 -11 c 0
 413 -11 366 25 366 79 c 0
 366 92 373 114 382 140 c 0
 405 204 443 296 443 364 c 0
 443 391 434 419 398 419 c 0
 364 419 311 404 264 334 c 0
 253 319 252 320 240 274 c 0
 236 259 231 240 225 214 c 0
 216 177 203 127 186 57 c 0
 182 43 173 -11 120 -11 c 0
 95 -11 74 6 74 32 c 0
EndSplineSet
EndChar
StartChar: Hbar
Encoding: 294 294 354
Width: 899
Flags: MW
LayerCount: 2
Fore
SplineSet
39 0 m 1
 51 47 l 1
 51 47 l 1
 159 47 l 1
 273 505 l 1
 184 505 l 2
 170 505 160 508 165 527 c 0
 170 546 182 549 202 549 c 2
 284 549 l 1
 307 639 l 1
 199 639 l 1
 199 639 l 1
 211 686 l 1
 248 683 346 683 389 683 c 0
 432 683 530 683 569 686 c 1
 557 639 l 1
 557 639 l 1
 449 639 l 1
 426 549 l 1
 747 549 l 1
 770 639 l 1
 662 639 l 1
 662 639 l 1
 674 686 l 1
 711 683 809 683 852 683 c 0
 895 683 993 683 1032 686 c 1
 1020 639 l 1
 1020 639 l 1
 912 639 l 1
 889 549 l 1
 985 549 l 2
 1000 549 1014 547 1009 527 c 0
 1004 508 990 505 977 505 c 2
 878 505 l 1
 764 47 l 1
 872 47 l 1
 872 47 l 1
 860 0 l 1
 823 3 725 3 682 3 c 0
 639 3 541 3 502 0 c 1
 514 47 l 1
 514 47 l 1
 622 47 l 1
 693 333 l 1
 372 333 l 1
 301 47 l 1
 409 47 l 1
 409 47 l 1
 397 0 l 1
 360 3 262 3 219 3 c 0
 176 3 78 3 39 0 c 1
384 380 m 1
 705 380 l 1
 736 505 l 1
 415 505 l 1
 384 380 l 1
EndSplineSet
EndChar
StartChar: hbar
Encoding: 295 295 413
Width: 591
Flags: MW
LayerCount: 2
Fore
SplineSet
74 32 m 0
 74 44 78 55 81 67 c 2
 183 475 l 1
 157 458 142 446 131 446 c 0
 120 446 109 460 109 471 c 0
 109 484 121 490 140 503 c 0
 160 516 180 530 200 542 c 1
 207 571 l 2
 210.345304582 584.859118981 213.855760825 598.375368752 217.248592529 612 c 4
 219.224221177 619.933553487 221.159967181 627.903855595 223 636 c 1
 205 638 189 638 177 639 c 0
 163 641 155 645 155 659 c 0
 155 675 161 682 179 686 c 0
 200 690 238 690 300 693 c 0
 305 693 310 694 315 694 c 0
 326 694 339 690 339 674 c 0
 339 667 336.416036309 658.900151286 335 653 c 2
 329 628 l 1
 387 667 394 673 403 673 c 0
 406 673 409 672 411 671 c 0
 420 667 425 656 425 648 c 0
 425 640 422 635 409 626 c 0
 395 616 371 601 327 571 c 0
 309.125969702 558.81316116 310 554 306 536 c 2
 273 404 l 1
 307 433 347 456 408 456 c 0
 471 456 544 433 544 342 c 0
 544 279 506 186 482 118 c 0
 471 86 462 60 462 45 c 0
 462 34 465 26 477 26 c 0
 495 26 536 41 565 140 c 0
 571 162 579 162 597 162 c 2
 598 162 l 2
 609 162 622 162 622 146 c 0
 622 119 569 -11 470 -11 c 0
 413 -11 366 25 366 79 c 0
 366 92 373 114 382 140 c 0
 405 204 443 296 443 364 c 0
 443 391 434 419 398 419 c 0
 364 419 311 404 264 334 c 0
 253 319 252 320 240 274 c 0
 236 259 231 240 225 214 c 0
 216 177 203 127 186 57 c 0
 182 43 173 -11 120 -11 c 0
 95 -11 74 6 74 32 c 0
EndSplineSet
EndChar
StartChar: Itilde
Encoding: 296 296 270
Width: 472
Flags: MW
LayerCount: 2
Fore
SplineSet
233 807 m 0
 233 818 244 826 251 832 c 0
 281 859 324 894 378 894 c 0
 445 894 483 846 536 846 c 0
 576 846 604 872 624 885 c 0
 631 890 637 893 642 893 c 0
 651 893 659 884 659 876 c 0
 659 866 648 858 642 851 c 1
 605 819 565 789 514 789 c 0
 447 789 409 837 355 837 c 0
 301 837 268 790 250 790 c 0
 242 790 233 797 233 807 c 0
59 20 m 0
 59 32 64 47 88 48 c 1
 105 48 l 2
 143 48 165 49 180 52 c 1
 325 636 l 1
 325 636 l 1
 305 638 285 638 264 638 c 2
 245 638 l 2
 226 638 219 648 219 659 c 0
 219 669 224 686 247 686 c 0
 262 686 306 683 395 683 c 0
 494 683 543 686 559 686 c 0
 580 686 583 673 583 666 c 0
 583 641 565 638 552 638 c 2
 533 638 l 2
 498 638 476 637 462 633 c 1
 317 50 l 1
 317 50 l 1
 337 49 358 48 378 48 c 2
 397 48 l 2
 417 48 424 38 424 28 c 0
 424 21 420 0 396 0 c 0
 380 0 333 3 239 3 c 0
 128 3 100 0 86 0 c 0
 72 0 59 4 59 20 c 0
EndSplineSet
EndChar
StartChar: itilde
Encoding: 297 297 282
Width: 355
Flags: MW
LayerCount: 2
Fore
SplineSet
143 563 m 0
 143 574 155 583 162 590 c 0
 191 616 236 658 280 663 c 0
 283 663 286 664 289 664 c 0
 317 664 334 648 349 632 c 0
 363 617 375 603 392 603 c 1
 426 603 461 643 484 658 c 0
 489 661 494 663 498 663 c 0
 500 663 501 663 502 662 c 0
 511 659 514 651 514 646 c 0
 514 644 514 642 513 640 c 0
 510 632 501 626 495 620 c 0
 427 557 394 545 369 545 c 0
 366 545 364 545 361 545 c 0
 337 548 322 562 309 576 c 0
 295 591 283 606 265 606 c 0
 258 606 252 605 245 602 c 0
 226 595 208 578 192 565 c 0
 179 554 167 546 159 546 c 0
 158 546 157 547 156 547 c 0
 146 550 143 558 143 563 c 0
77 299 m 0
 77 323 130 456 230 456 c 0
 286 456 334 419 334 365 c 0
 334 355 329 338 322 316 c 4
 304 263 271 185 249 124 c 0
 236 89 227 60 227 45 c 0
 227 33 231 26 243 26 c 0
 257 26 276 35 295 62 c 0
 322 99 324 128 331 145 c 0
 335 156 342 162 357 162 c 2
 363 162 l 2
 372 162 387 162 387 146 c 0
 387 122 336 -11 235 -11 c 0
 185 -11 131 19 131 80 c 0
 131 93 139 118 150 150 c 0
 161 180 175 215 189 250 c 0
 202 283 215 315 224 342 c 0
 233 368 238 388 238 400 c 0
 238 412 233 418 221 418 c 0
 163 418 133 296 129 290 c 0
 124 284 119 282 108 282 c 2
 103 282 l 2
 93 282 77 282 77 299 c 0
EndSplineSet
EndChar
StartChar: Iogonek
Encoding: 302 302 370
Width: 472
Flags: MW
LayerCount: 2
Fore
SplineSet
59 20 m 0
 59 32 64 47 88 48 c 1
 105 48 l 2
 143 48 165 49 180 52 c 1
 325 636 l 1
 325 636 l 1
 305 638 285 638 264 638 c 2
 245 638 l 2
 226 638 219 648 219 659 c 0
 219 669 224 686 247 686 c 0
 262 686 306 683 395 683 c 0
 494 683 543 686 559 686 c 0
 580 686 583 673 583 666 c 0
 583 641 565 638 552 638 c 2
 533 638 l 2
 498 638 476 637 462 633 c 1
 317 50 l 1
 317 50 l 1
 337 49 358 48 378 48 c 2
 397 48 l 2
 417 48 424 38 424 28 c 0
 424 21 420 0 396 0 c 0
 383 0 348 2 284 3 c 1
 252 -9 214 -53 214 -96 c 0
 214 -121 228 -150 252 -150 c 0
 273 -150 283 -131 297 -131 c 0
 307 -131 322 -142 322 -154 c 0
 322 -172 270 -216 220 -216 c 0
 167 -216 131 -174 131 -124 c 0
 131 -73 168 -27 200 3 c 1
 121 2 98 0 86 0 c 0
 72 0 59 4 59 20 c 0
EndSplineSet
EndChar
StartChar: iogonek
Encoding: 303 303 388
Width: 355
Flags: MW
LayerCount: 2
Fore
SplineSet
77 299 m 0
 77 323 130 456 230 456 c 0
 286 456 334 419 334 365 c 0
 334 354 328 333 319 307 c 0
 300 252 267 175 246 117 c 0
 235 85 227 59 227 45 c 0
 227 33 231 26 243 26 c 0
 257 26 276 35 295 62 c 0
 323 101 325 130 332 147 c 0
 336 157 343 162 357 162 c 2
 363 162 l 2
 372 162 387 162 387 146 c 0
 387 124 345 9 259 -9 c 4
 255 -10 250 -11 245 -11 c 1
 219 -27 195 -61 195 -96 c 0
 195 -121 209 -150 233 -150 c 0
 254 -150 264 -131 278 -131 c 0
 288 -131 303 -142 303 -154 c 0
 303 -172 251 -216 201 -216 c 0
 148 -216 112 -174 112 -124 c 0
 112 -73 149 -28 181 1 c 1
 153 15 131 42 131 80 c 0
 131 93 139 120 151 153 c 0
 162 183 176 218 190 253 c 0
 202 284 214 315 223 341 c 0
 232 367 238 388 238 400 c 0
 238 412 233 418 221 418 c 0
 163 418 133 296 129 290 c 0
 124 284 119 282 108 282 c 2
 103 282 l 2
 93 282 77 282 77 299 c 0
251 625 m 0
 251 661 286 693 321 693 c 0
 351 693 370 672 370 645 c 0
 370 611 337 577 300 577 c 0
 273 577 251 596 251 625 c 0
EndSplineSet
EndChar
StartChar: Idotaccent
Encoding: 304 304 369
Width: 472
Flags: MW
LayerCount: 2
Fore
SplineSet
373 835 m 0
 373 876 412 921 462 921 c 0
 496 921 523 897 523 861 c 0
 523 815 479 774 435 774 c 0
 398 774 373 801 373 835 c 0
59 20 m 0
 59 32 64 47 88 48 c 1
 105 48 l 2
 143 48 165 49 180 52 c 1
 325 636 l 1
 325 636 l 1
 305 638 285 638 264 638 c 2
 245 638 l 2
 226 638 219 648 219 659 c 0
 219 669 224 686 247 686 c 0
 262 686 306 683 395 683 c 0
 494 683 543 686 559 686 c 0
 580 686 583 673 583 666 c 0
 583 641 565 638 552 638 c 2
 533 638 l 2
 498 638 476 637 462 633 c 1
 317 50 l 1
 317 50 l 1
 337 49 358 48 378 48 c 2
 397 48 l 2
 417 48 424 38 424 28 c 0
 424 21 420 0 396 0 c 0
 380 0 333 3 239 3 c 0
 128 3 100 0 86 0 c 0
 72 0 59 4 59 20 c 0
EndSplineSet
EndChar
StartChar: dotlessi
Encoding: 305 305 137
Width: 355
Flags: MW
LayerCount: 2
Fore
SplineSet
77 299 m 0
 77 323 130 456 230 456 c 0
 286 456 334 419 334 365 c 0
 334 355 329 338 322 316 c 4
 304 263 271 185 249 124 c 0
 236 89 227 60 227 45 c 0
 227 33 231 26 243 26 c 0
 257 26 276 35 295 62 c 0
 322 99 324 128 331 145 c 0
 335 156 342 162 357 162 c 2
 363 162 l 2
 372 162 387 162 387 146 c 0
 387 122 336 -11 235 -11 c 0
 185 -11 131 19 131 80 c 0
 131 93 139 118 150 150 c 0
 161 180 175 215 189 250 c 0
 202 283 215 315 224 342 c 0
 233 368 238 388 238 400 c 0
 238 412 233 418 221 418 c 0
 163 418 133 296 129 290 c 0
 124 284 119 282 108 282 c 2
 103 282 l 2
 93 282 77 282 77 299 c 0
EndSplineSet
EndChar
StartChar: IJ
Encoding: 306 306 355
Width: 1011
Flags: MW
LayerCount: 2
Fore
SplineSet
466 113 m 0
 478 162 523 191 562 191 c 0
 605 191 633 160 621 114 c 0
 616 94 602 64 562 46 c 0
 560 45 557 44 555 43 c 1
 577 34 601 26 634 26 c 0
 688 26 722 60 741 90 c 0
 755 113 760 136 766 160 c 2
 886 638 l 1
 745 638 l 1
 745 638 l 1
 757 686 l 1
 825 684 893 683 961 683 c 0
 1023 683 1070 684 1116 686 c 1
 1104 638 l 1
 1104 638 l 1
 1023 638 l 1
 901 153 l 2
 896 132 887 113 877 96 c 0
 824 14 716 -11 629 -11 c 0
 512 -11 447 39 466 113 c 0
33 0 m 1
 45 47 l 1
 45 47 l 1
 159 47 l 1
 307 639 l 1
 193 639 l 1
 193 639 l 1
 205 686 l 1
 245 683 343 683 389 683 c 0
 435 683 533 683 575 686 c 1
 563 639 l 1
 563 639 l 1
 449 639 l 1
 301 47 l 1
 415 47 l 1
 415 47 l 1
 403 0 l 1
 363 3 265 3 219 3 c 0
 173 3 75 3 33 0 c 1
EndSplineSet
EndChar
StartChar: ij
Encoding: 307 307 359
Width: 660
Flags: MW
LayerCount: 2
Fore
SplineSet
251 625 m 0
 251 661 286 693 321 693 c 0
 351 693 370 672 370 645 c 0
 370 611 337 577 300 577 c 0
 273 577 251 596 251 625 c 0
77 299 m 0
 77 323 130 456 230 456 c 0
 286 456 334 419 334 365 c 0
 334 354 328 333 319 307 c 0
 300 252 267 175 246 117 c 0
 235 85 227 59 227 45 c 0
 227 33 231 26 243 26 c 0
 257 26 276 35 295 62 c 0
 323 101 325 130 332 147 c 4
 336 157 343 162 357 162 c 2
 363 162 l 2
 372 162 387 162 387 146 c 0
 387 122 336 -11 235 -11 c 0
 185 -11 131 19 131 80 c 0
 131 93 139 120 151 153 c 0
 162 183 176 218 190 253 c 0
 202 284 214 315 223 341 c 0
 232 367 238 388 238 400 c 0
 238 412 233 418 221 418 c 0
 163 418 133 296 129 290 c 0
 124 284 119 282 108 282 c 2
 103 282 l 2
 93 282 77 282 77 299 c 0
275 -132 m 0
 275 -92 308 -58 346 -58 c 0
 375 -58 396 -77 396 -104 c 0
 396 -120 390 -146 356 -167 c 1
 359 -168 363 -168 368 -168 c 0
 414 -168 456 -128 482 -24 c 2
 568 321 l 2
 578 361 580 375 580 389 c 0
 580 410 572 418 558 418 c 0
 535 418 484 399 444 307 c 0
 433 283 430 282 412 282 c 2
 404 282 l 1
 388 283 384 289 384 297 c 0
 384 320 452 455 565 455 c 0
 629 455 681 416 681 356 c 0
 681 334 673 311 669 297 c 2
 587 -34 l 2
 580 -61 577 -76 563 -99 c 0
 521 -169 437 -206 369 -206 c 0
 314 -206 275 -176 275 -132 c 0
598 625 m 0
 598 661 633 693 668 693 c 0
 697 693 717 672 717 645 c 0
 717 612 684 577 647 577 c 0
 620 577 598 596 598 625 c 0
EndSplineSet
EndChar
StartChar: Jcircumflex
Encoding: 308 308 341
Width: 610
Flags: MW
LayerCount: 2
Fore
SplineSet
403 772 m 4
 403 781 409 787 420 795 c 4
 488 843 527 870 550 885 c 4
 579 904 582 904 586 904 c 6
 588 904 l 6
 593 904 596 903 615 883 c 4
 629 869 651 846 687 808 c 4
 711 783 713 780 713 772 c 4
 713 762 694 740 679 740 c 4
 668 740 650 758 623 781 c 4
 607 795 590 809 575 823 c 5
 522 795 443 740 428 740 c 4
 413 740 403 763 403 772 c 4
70 91 m 0
 70 148 112 188 160 188 c 0
 196 188 222 165 222 130 c 0
 222 101 203 59 157 45 c 0
 155 44 153 44 150 43 c 1
 169 26 194 15 221 15 c 0
 329 15 355 180 357 186 c 2
 469 636 l 1
 469 636 l 1
 456 637 443 637 430 637 c 0
 414 637 399 638 386 638 c 0
 379 638 372 638 366 638 c 0
 352 638 336 639 336 658 c 0
 336 672 341 686 365 686 c 0
 369 686 459 683 506 683 c 2
 560 683 l 2
 623 683 655 686 665 686 c 0
 677 686 689 682 689 666 c 0
 689 655 684 638 662 638 c 2
 648 638 l 2
 632 638 616 638 601 635 c 1
 486 174 l 2
 474 128 467 92 425 51 c 0
 371 -3 292 -22 228 -22 c 0
 131 -22 70 25 70 91 c 0
EndSplineSet
EndChar
StartChar: jcircumflex
Encoding: 309 309 347
Width: 355
Flags: MW
LayerCount: 2
Fore
SplineSet
146 496 m 0
 146 505 153 511 164 520 c 0
 326 651 329 651 337 651 c 0
 349 651 361 633 372 618 c 0
 451 513 458 506 458 496 c 0
 458 483 436 465 424 465 c 0
 412 465 395 487 360 527 c 0
 350 539 338 553 324 568 c 1
 323 568 l 1
 310 558 205 482 192 473 c 0
 188 470 181 464 173 464 c 0
 159 464 146 487 146 496 c 0
-30 -132 m 4
 -30 -92 3 -58 41 -58 c 4
 70 -58 91 -77 91 -104 c 4
 91 -120 85 -146 51 -167 c 5
 54 -168 58 -168 63 -168 c 4
 109 -168 151 -128 177 -24 c 6
 263 321 l 6
 273 361 275 375 275 389 c 4
 275 410 267 418 253 418 c 4
 230 418 179 399 139 307 c 4
 128 283 125 282 107 282 c 6
 99 282 l 5
 83 283 79 289 79 297 c 4
 79 320 147 455 260 455 c 4
 324 455 376 416 376 356 c 4
 376 334 368 311 364 297 c 6
 282 -34 l 6
 275 -61 272 -76 258 -99 c 4
 216 -169 132 -206 64 -206 c 4
 9 -206 -30 -176 -30 -132 c 4
EndSplineSet
EndChar
StartChar: kcommaaccent
Encoding: 311 311 389
Width: 532
Flags: MW
LayerCount: 2
Fore
SplineSet
186 -119 m 0
 193 -93 215 -73 243 -73 c 0
 278 -73 289 -107 279 -148 c 0
 258 -231 183 -283 174 -283 c 0
 169 -283 164 -277 166 -271 c 0
 167 -267 168 -265 173 -262 c 0
 189 -251 232 -221 254 -160 c 0
 254 -158 257 -156 257 -154 c 1
 256 -155 254 -156 252 -157 c 0
 246 -161 235 -166 221 -166 c 0
 190 -166 180 -143 186 -119 c 0
74 32 m 0
 74 40 76 48 78 57 c 2
 209 580 l 2
 214 599 219 617 223 636 c 1
 212 637 201 638 190 638 c 2
 186 638 l 2
 170 638 155 639 155 659 c 0
 155 677 163 684 186 687 c 0
 209 690 246 690 305 693 c 0
 308 694 312 694 315 694 c 0
 333 694 339 686 339 674 c 0
 339 670 338 665 336 659 c 2
 240 274 l 1
 281 302 315 341 350 376 c 0
 392 419 436 455 491 455 c 0
 547 455 561 408 561 376 c 0
 561 310 517 289 488 289 c 0
 460 289 439 307 439 335 c 0
 439 361 458 400 506 406 c 1
 500 415 495 419 487 419 c 0
 435 419 389 370 342 321 c 0
 317 295 292 269 266 251 c 1
 266 250 l 1
 322 245 424 227 424 144 c 0
 424 135 423 127 421 118 c 0
 417 100 412 81 412 58 c 0
 412 35 422 26 434 26 c 0
 489 26 502 143 513 155 c 0
 519 163 531 162 541 162 c 0
 553 162 564 159 564 146 c 0
 564 136 551 85 521 44 c 4
 499 14 468 -11 428 -11 c 0
 373 -11 312 24 312 92 c 0
 312 104 315 116 316 128 c 0
 316 132 317 137 317 141 c 0
 317 185 273 204 225 214 c 1
 191 66 177 25 170 15 c 0
 158 -1 139 -11 120 -11 c 0
 95 -11 74 6 74 32 c 0
EndSplineSet
EndChar
StartChar: kra
Encoding: 312 312 360
Width: 532
Flags: MW
LayerCount: 2
Fore
SplineSet
74 32 m 0
 74 40 76 48 78 57 c 2
 150 343 l 2
 155 362 160 380 164 399 c 1
 153 400 142 401 131 401 c 2
 127 401 l 2
 111 401 96 402 96 422 c 0
 96 440 104 447 127 450 c 0
 150 453 187 453 246 456 c 0
 249 457 253 457 256 457 c 0
 274 457 280 449 280 437 c 0
 280 433 279 428 277 422 c 2
 240 274 l 1
 281 302 315 341 350 376 c 0
 392 419 436 455 491 455 c 0
 547 455 561 408 561 376 c 0
 561 310 517 289 488 289 c 0
 460 289 439 307 439 335 c 0
 439 361 458 400 506 406 c 1
 500 415 495 419 487 419 c 0
 435 419 389 370 342 321 c 0
 317 295 292 269 266 251 c 1
 266 250 l 1
 322 245 424 227 424 144 c 0
 424 135 423 127 421 118 c 0
 417 100 412 81 412 58 c 0
 412 35 422 26 434 26 c 0
 489 26 502 143 513 155 c 0
 519 163 531 162 541 162 c 0
 553 162 564 159 564 146 c 0
 564 136 551 85 521 44 c 0
 499 14 468 -11 428 -11 c 0
 373 -11 312 24 312 92 c 0
 312 104 315 116 316 128 c 0
 316 132 317 137 317 141 c 0
 317 185 273 204 225 214 c 1
 191 66 177 25 170 15 c 0
 158 -1 139 -11 120 -11 c 0
 95 -11 74 6 74 32 c 0
EndSplineSet
EndChar
StartChar: Lacute
Encoding: 313 313 313
Width: 698
Flags: MW
LayerCount: 2
Fore
SplineSet
438 789 m 0
 438 806 452 811 464 817 c 0
 541 858 577 877 597 885 c 0
 613 892 618 892 623 892 c 0
 651 892 668 869 668 845 c 0
 668 828 659 811 646 800 c 0
 627 784 604 783 517 767 c 0
 505 765 492 762 478 759 c 0
 472 758 466 756 461 756 c 0
 442 756 438 775 438 789 c 0
64 20 m 0
 64 46 84 48 92 48 c 2
 113 48 l 2
 146 48 166 49 179 52 c 1
 325 636 l 1
 325 636 l 1
 306 638 286 638 267 638 c 2
 249 638 l 2
 230 638 223 649 223 659 c 0
 223 670 229 686 251 686 c 0
 286 686 286 683 427 683 c 0
 518 683 564 686 579 686 c 0
 598 686 604 676 604 666 c 0
 604 640 583 638 574 638 c 2
 554 638 l 2
 508 638 480 637 462 633 c 1
 316 49 l 1
 316 49 l 1
 328 48 340 48 352 48 c 2
 390 48 l 2
 532 48 586 145 627 253 c 0
 633 269 640 275 656 275 c 0
 671 275 684 271 684 255 c 0
 684 250 680 241 674 223 c 2
 601 22 l 2
 594 4 588 0 570 0 c 2
 88 0 l 2
 68 0 64 12 64 20 c 0
EndSplineSet
EndChar
StartChar: lacute
Encoding: 314 314 326
Width: 297
Flags: MW
LayerCount: 2
Fore
SplineSet
281 788 m 0
 281 798 284 803 294 810 c 0
 301 815 312 820 327 828 c 0
 381 856 412 871 430 880 c 0
 451 890 456 891 462 891 c 2
 466 891 l 2
 493 891 510 869 510 845 c 0
 510 787 442 782 429 779 c 0
 399 773 377 769 360 766 c 4
 312 757 307 756 303 756 c 2
 302 756 l 2
 283 756 281 778 281 788 c 0
90 88 m 0
 90 105 95 122 98 133 c 2
 209 576 l 2
 214 596 219 616 223 636 c 1
 202 638 184 636 172 639 c 0
 162 641 156 647 156 659 c 0
 156 686 178 686 185 687 c 0
 218 689 276 692 302 693 c 0
 309 693 314 694 315 694 c 0
 327 694 339 690 339 674 c 0
 339 670 338 665 337 661 c 2
 203 123 l 2
 193 83 191 69 191 56 c 0
 191 35 200 26 210 26 c 0
 241 26 258 91 268 129 c 0
 271 141 274 150 276 154 c 0
 281 161 290 162 299 162 c 0
 319 162 328 159 328 146 c 0
 328 143 328 139 327 135 c 0
 319 103 306 64 284 34 c 0
 265 8 239 -11 205 -11 c 0
 149 -11 90 23 90 88 c 0
EndSplineSet
EndChar
StartChar: Lcommaaccent
Encoding: 315 315 373
Width: 698
Flags: MW
LayerCount: 2
Fore
SplineSet
269 -119 m 0
 276 -93 298 -73 326 -73 c 0
 361 -73 372 -107 362 -148 c 0
 341 -231 266 -283 257 -283 c 0
 252 -283 247 -277 249 -271 c 0
 250 -267 251 -265 256 -262 c 0
 272 -251 315 -221 337 -160 c 0
 337 -158 340 -156 340 -154 c 1
 339 -155 337 -156 335 -157 c 0
 329 -161 318 -166 304 -166 c 0
 273 -166 263 -143 269 -119 c 0
64 20 m 0
 64 46 84 48 92 48 c 2
 113 48 l 2
 146 48 166 49 179 52 c 1
 325 636 l 1
 325 636 l 1
 306 638 286 638 267 638 c 2
 249 638 l 2
 230 638 223 649 223 659 c 0
 223 670 229 686 251 686 c 0
 286 686 286 683 427 683 c 0
 518 683 564 686 579 686 c 0
 598 686 604 676 604 666 c 0
 604 640 583 638 574 638 c 2
 554 638 l 2
 508 638 480 637 462 633 c 1
 316 49 l 1
 316 49 l 1
 328 48 340 48 352 48 c 2
 390 48 l 2
 532 48 586 145 627 253 c 0
 633 269 640 275 656 275 c 0
 671 275 684 271 684 255 c 0
 684 250 680 241 674 223 c 2
 601 22 l 2
 594 4 588 0 570 0 c 2
 88 0 l 2
 68 0 64 12 64 20 c 0
EndSplineSet
EndChar
StartChar: lcommaaccent
Encoding: 316 316 391
Width: 297
Flags: MW
LayerCount: 2
Fore
SplineSet
68 -119 m 0
 75 -93 98 -73 126 -73 c 0
 161 -73 172 -107 162 -148 c 0
 141 -231 65 -283 56 -283 c 0
 51 -283 46 -277 48 -271 c 0
 49 -267 50 -265 55 -262 c 0
 71 -251 115 -221 137 -160 c 0
 137 -158 139 -156 139 -154 c 1
 138 -155 137 -156 135 -157 c 0
 129 -161 117 -166 103 -166 c 0
 72 -166 62 -143 68 -119 c 0
90 88 m 0
 90 105 95 122 98 133 c 2
 209 576 l 2
 214 596 219 616 223 636 c 1
 202 638 184 636 172 639 c 4
 162 641 156 647 156 659 c 0
 156 686 178 686 185 687 c 0
 218 689 276 692 302 693 c 0
 309 693 314 694 315 694 c 0
 327 694 339 690 339 674 c 0
 339 670 338 665 337 661 c 2
 203 123 l 2
 193 83 191 69 191 56 c 0
 191 35 200 26 210 26 c 0
 241 26 258 91 268 129 c 0
 271 141 274 150 276 154 c 0
 281 161 290 162 299 162 c 0
 319 162 328 159 328 146 c 0
 328 143 328 139 327 135 c 0
 319 103 306 64 284 34 c 0
 265 8 239 -11 205 -11 c 0
 149 -11 90 23 90 88 c 0
EndSplineSet
EndChar
StartChar: lcaron
Encoding: 318 318 305
Width: 297
Flags: MW
LayerCount: 2
Fore
SplineSet
365 493 m 0
 365 517 436 517 487 615 c 1
 473 608 457 603 440 603 c 0
 404 603 380 626 380 661 c 0
 380 702 416 750 470 750 c 0
 512 750 540 718 540 674 c 0
 540 637 509 542 409 485 c 0
 401 481 391 475 383 475 c 0
 372 475 365 486 365 493 c 0
90 88 m 0
 90 105 95 122 98 133 c 2
 209 576 l 2
 214 596 219 616 223 636 c 1
 202 638 184 636 172 639 c 4
 162 641 156 647 156 659 c 0
 156 686 178 686 185 687 c 0
 218 689 276 692 302 693 c 0
 309 693 314 694 315 694 c 0
 327 694 339 690 339 674 c 0
 339 670 338 665 337 661 c 2
 203 123 l 2
 193 83 191 69 191 56 c 0
 191 35 200 26 210 26 c 0
 241 26 258 91 268 129 c 0
 271 141 274 150 276 154 c 0
 281 161 290 162 299 162 c 0
 319 162 328 159 328 146 c 0
 328 143 328 139 327 135 c 0
 319 103 306 64 284 34 c 0
 265 8 239 -11 205 -11 c 0
 149 -11 90 23 90 88 c 0
EndSplineSet
EndChar
StartChar: Ldot
Encoding: 319 319 356
Width: 690
Flags: MW
LayerCount: 2
Fore
SplineSet
39 0 m 1
 51 47 l 1
 51 47 l 1
 159 47 l 1
 307 639 l 1
 199 639 l 1
 199 639 l 1
 211 686 l 1
 248 683 349 683 393 683 c 0
 442 683 551 683 596 686 c 1
 584 639 l 1
 584 639 l 5
 449 639 l 1
 301 47 l 1
 301 47 l 1
 404 47 l 2
 583 47 640 205 665 274 c 1
 712 274 l 1
 612 0 l 1
 39 0 l 1
468 348 m 0
 480 395 528 426 566 426 c 0
 607 426 635 393 624 348 c 4
 614 309 573 270 527 270 c 0
 486 270 457 303 468 348 c 0
EndSplineSet
EndChar
StartChar: ldot
Encoding: 320 320 361
Width: 404
Flags: MW
LayerCount: 2
Fore
SplineSet
90 88 m 0
 90 105 95 122 98 133 c 2
 209 576 l 2
 214 596 219 616 223 636 c 1
 202 638 184 636 172 639 c 4
 162 641 156 647 156 659 c 0
 156 686 178 686 185 687 c 0
 218 689 276 692 302 693 c 0
 309 693 314 694 315 694 c 0
 327 694 339 690 339 674 c 0
 339 670 338 665 337 661 c 2
 203 123 l 2
 193 83 191 69 191 56 c 0
 191 35 200 26 210 26 c 0
 241 26 258 91 268 129 c 0
 271 141 274 150 276 154 c 0
 281 161 290 162 299 162 c 0
 319 162 328 159 328 146 c 0
 328 143 328 139 327 135 c 0
 319 103 306 64 284 34 c 0
 265 8 239 -11 205 -11 c 0
 149 -11 90 23 90 88 c 0
299 322 m 0
 299 368 343 410 389 410 c 0
 425 410 449 384 449 350 c 0
 449 306 407 262 359 262 c 0
 323 262 299 289 299 322 c 0
EndSplineSet
EndChar
StartChar: Lslash
Encoding: 321 321 132
Width: 698
Flags: MW
LayerCount: 2
Fore
SplineSet
64 20 m 0
 64 46 84 48 92 48 c 2
 113 48 l 2
 118 48 123 48 128 48 c 4
 152 48 168 49 179 52 c 1
 233 268 l 1
 166 223 163 221 154 221 c 0
 142 221 132 234 132 246 c 0
 132 267 180 285 250 335 c 1
 325 636 l 1
 306 638 286 638 267 638 c 2
 249 638 l 2
 242 638 236 639 232 642 c 0
 226 646 223 653 223 659 c 0
 223 665 225 673 231 679 c 0
 235 683 242 686 251 686 c 0
 256 686 261 685 266 685 c 0
 299 685 315 683 427 683 c 0
 518 683 564 686 579 686 c 0
 598 686 604 676 604 666 c 0
 604 640 583 638 574 638 c 2
 554 638 l 2
 508 638 480 637 462 633 c 1
 415 446 l 1
 507 507 547 534 567 546 c 0
 580 554 585 556 589 556 c 0
 602 556 611 540 611 531 c 0
 611 520 601 513 591 506 c 2
 417 390 l 2
 399 379 398 377 394 360 c 2
 316 49 l 1
 316 49 l 1
 328 48 340 48 352 48 c 2
 390 48 l 2
 532 48 586 145 627 253 c 0
 630 262 634 269 640 272 c 0
 644 274 649 275 656 275 c 0
 671 275 684 271 684 255 c 0
 684 246 601 22 601 22 c 2
 594 4 588 0 570 0 c 2
 88 0 l 1
 68 1 64 12 64 20 c 0
EndSplineSet
EndChar
StartChar: lslash
Encoding: 322 322 138
Width: 355
Flags: MW
LayerCount: 2
Fore
SplineSet
75 276 m 0
 75 289 87 295 106 308 c 0
 126 321 146 335 166 347 c 1
 166 347 l 1
 238 636 l 1
 200 640 170 632 170 659 c 0
 170 678 179 685 206 688 c 0
 229 691 266 691 322 694 c 1
 330 694 l 2
 349 694 353 686 353 675 c 0
 353 669 352 663 350 656 c 0
 323 545 305 478 295 433 c 1
 353 472 360 478 369 478 c 0
 372 478 375 477 377 476 c 0
 386 472 391 461 391 453 c 0
 391 445 388 440 375 431 c 0
 361 421 337 406 293 376 c 0
 275 364 276 359 272 341 c 0
 224 151 205 86 205 55 c 0
 205 32 216 26 224 26 c 0
 258 26 278 112 285 139 c 0
 291 160 294 162 318 162 c 0
 338 162 343 156 343 146 c 0
 343 141 341 136 340 130 c 0
 332 102 320 69 303 42 c 0
 284 12 257 -11 219 -11 c 0
 162 -11 105 24 105 88 c 0
 105 107 111 127 149 280 c 1
 123 263 108 251 97 251 c 0
 86 251 75 265 75 276 c 0
EndSplineSet
EndChar
StartChar: Ncommaaccent
Encoding: 325 325 374
Width: 896
Flags: MW
LayerCount: 2
Fore
SplineSet
368 -119 m 0
 375 -93 397 -73 425 -73 c 0
 460 -73 471 -107 461 -148 c 0
 440 -231 365 -283 356 -283 c 0
 351 -283 346 -277 348 -271 c 0
 349 -267 350 -265 355 -262 c 0
 371 -251 414 -221 436 -160 c 0
 436 -158 439 -156 439 -154 c 1
 438 -155 436 -156 434 -157 c 0
 428 -161 417 -166 403 -166 c 0
 372 -166 362 -143 368 -119 c 0
64 20 m 0
 64 48 87 48 97 48 c 0
 182 48 183 67 186 78 c 2
 326 637 l 1
 326 637 l 1
 307 637 289 638 271 638 c 2
 251 638 l 2
 236 638 224 642 224 659 c 0
 224 684 245 686 253 686 c 2
 446 686 l 2
 465 686 470 683 480 664 c 2
 716 207 l 1
 821 628 l 1
 821 628 l 1
 802 636 777 638 751 638 c 0
 738 638 722 641 722 658 c 0
 722 686 743 686 754 686 c 0
 765 686 799 683 867 683 c 0
 912 683 944 685 964 685 c 0
 991 685 1001 682 1001 666 c 0
 1001 640 980 638 971 638 c 0
 881 638 883 624 876 596 c 2
 733 24 l 2
 727 3 721 0 699 0 c 0
 679 0 675 3 665 21 c 2
 404 527 l 2
 394 546 385 565 375 583 c 1
 244 58 l 1
 244 58 l 1
 263 50 288 48 314 48 c 0
 330 48 343 45 343 27 c 0
 343 17 339 0 315 0 c 0
 302 0 274 3 198 3 c 0
 133 3 100 0 89 0 c 0
 76 0 64 4 64 20 c 0
EndSplineSet
EndChar
StartChar: ncommaaccent
Encoding: 326 326 392
Width: 650
Flags: MW
LayerCount: 2
Fore
SplineSet
245 -119 m 0
 252 -93 274 -73 302 -73 c 0
 337 -73 348 -107 338 -148 c 0
 317 -231 242 -283 233 -283 c 0
 228 -283 223 -277 225 -271 c 0
 226 -267 227 -265 232 -262 c 0
 248 -251 291 -221 313 -160 c 0
 313 -158 316 -156 316 -154 c 1
 315 -155 313 -156 311 -157 c 0
 305 -161 294 -166 280 -166 c 0
 249 -166 239 -143 245 -119 c 0
77 299 m 0
 77 307 89 349 104 379 c 0
 131 435 163 455 202 455 c 0
 232 455 292 443 312 385 c 1
 344 418 392 456 465 456 c 0
 545 456 604 423 604 342 c 0
 604 282 567 190 542 122 c 4
 530 88 521 61 521 45 c 0
 521 31 528 26 537 26 c 0
 554 26 595 42 624 140 c 0
 631 161 637 162 656 162 c 0
 668 162 682 161 682 146 c 0
 682 122 631 -11 530 -11 c 0
 473 -11 425 25 425 79 c 0
 425 93 433 118 444 148 c 0
 467 212 502 301 502 363 c 0
 502 408 481 419 456 419 c 0
 430 419 374 409 324 336 c 0
 312 318 311 323 293 252 c 0
 288 233 282 208 274 176 c 0
 266 145 258 107 246 61 c 0
 243 51 234 -11 178 -11 c 0
 153 -11 133 6 133 31 c 0
 133 41 136 51 138 60 c 2
 201 312 l 2
 208 337 215 368 215 389 c 0
 215 403 211 418 197 418 c 0
 155 418 137 302 129 290 c 0
 124 283 118 282 104 282 c 0
 89 282 77 284 77 299 c 0
EndSplineSet
EndChar
StartChar: Ncaron
Encoding: 327 327 319
Width: 896
Flags: MW
LayerCount: 2
Fore
SplineSet
510 877 m 0
 510 887 518 894 529 894 c 0
 542 894 644 869 660 869 c 0
 675 869 794 894 805 894 c 0
 817 894 824 887 824 877 c 0
 824 866 812 859 803 854 c 0
 725 814 687 795 668 786 c 0
 651 778 649 778 647 778 c 0
 636 778 621 791 610 798 c 0
 510 866 510 864 510 877 c 0
64 20 m 0
 64 48 87 48 97 48 c 0
 182 48 183 67 186 78 c 2
 326 637 l 1
 326 637 l 1
 307 637 289 638 271 638 c 2
 251 638 l 2
 236 638 224 642 224 659 c 0
 224 684 245 686 253 686 c 2
 446 686 l 2
 465 686 470 683 480 664 c 2
 716 207 l 1
 821 628 l 1
 821 628 l 1
 802 636 777 638 751 638 c 0
 738 638 722 641 722 658 c 0
 722 686 743 686 754 686 c 0
 765 686 799 683 867 683 c 0
 912 683 944 685 964 685 c 0
 991 685 1001 682 1001 666 c 0
 1001 640 980 638 971 638 c 0
 881 638 883 624 876 596 c 2
 733 24 l 2
 727 3 721 0 699 0 c 0
 679 0 675 3 665 21 c 2
 404 527 l 2
 394 546 385 565 375 583 c 1
 244 58 l 1
 244 58 l 1
 263 50 288 48 314 48 c 0
 330 48 343 45 343 27 c 0
 343 17 339 0 315 0 c 0
 302 0 274 3 198 3 c 0
 133 3 100 0 89 0 c 0
 76 0 64 4 64 20 c 0
EndSplineSet
EndChar
StartChar: napostrophe
Encoding: 329 329 362
Width: 765
VWidth: 0
Flags: MW
LayerCount: 2
Fore
SplineSet
192 299 m 0
 192 307 204 349 219 379 c 0
 246 435 278 455 317 455 c 0
 347 455 407 443 427 385 c 1
 459 418 507 456 580 456 c 0
 660 456 719 423 719 342 c 0
 719 282 682 190 657 122 c 0
 645 88 636 61 636 45 c 0
 636 31 643 26 652 26 c 0
 669 26 710 42 739 140 c 0
 746 161 752 162 771 162 c 0
 783 162 797 161 797 146 c 0
 797 122 746 -11 645 -11 c 0
 588 -11 540 25 540 79 c 0
 540 93 548 118 559 148 c 0
 582 212 617 301 617 363 c 0
 617 408 596 419 571 419 c 0
 545 419 489 409 439 336 c 0
 427 318 426 323 408 252 c 0
 403 233 397 208 389 176 c 0
 381 145 373 107 361 61 c 0
 358 51 349 -11 293 -11 c 0
 268 -11 248 6 248 31 c 0
 248 41 251 51 253 60 c 2
 316 312 l 2
 323 337 330 368 330 389 c 0
 330 403 326 418 312 418 c 0
 270 418 252 302 244 290 c 0
 239 283 233 282 219 282 c 0
 204 282 192 284 192 299 c 0
160 432 m 0
 160 443 176 450 182 453 c 0
 219 473 277 529 288 563 c 1
 275 555 258 547 237 547 c 0
 198 547 176 572 176 605 c 0
 176 645 211 694 266 694 c 0
 313 694 332 656 333 611 c 0
 335 540 274 484 212 431 c 1
 194 416 183 414 177 414 c 0
 167 414 160 425 160 432 c 0
EndSplineSet
EndChar
StartChar: Eng
Encoding: 330 330 357
Width: 899
Flags: MW
LayerCount: 2
Fore
SplineSet
39 0 m 1
 51 47 l 1
 76 47 l 2
 104 47 106 47 131 50 c 0
 160 53 160 54 166 76 c 2
 307 639 l 1
 307 639 l 1
 199 639 l 1
 199 639 l 1
 211 686 l 1
 440 686 l 2
 461 686 461 685 469 673 c 2
 750 205 l 1
 852 610 l 2
 858 632 856 633 828 636 c 0
 811 638 794 639 776 639 c 2
 751 639 l 1
 763 686 l 1
 803 683 855 683 897 683 c 0
 936 683 993 683 1032 686 c 1
 1020 639 l 1
 995 639 l 2
 967 639 965 639 940 636 c 0
 911 633 911 632 905 610 c 2
 760 32 l 1
 742 -39 l 2
 739 -51 734 -63 729 -74 c 0
 688 -156 590 -200 472 -200 c 0
 358 -200 291 -152 310 -75 c 0
 323 -23 369 2 406 2 c 0
 439 2 477 -21 463 -75 c 0
 450 -128 399 -147 399 -147 c 1
 426 -161 459 -164 476 -164 c 0
 575 -164 669 -121 689 -40 c 2
 702 12 l 2
 701 13 l 2
 350 599 l 1
 350 599 l 1
 219 76 l 2
 213 54 215 53 243 50 c 0
 260 48 277 47 295 47 c 2
 320 47 l 1
 308 0 l 1
 268 3 216 3 174 3 c 0
 135 3 78 3 39 0 c 1
EndSplineSet
EndChar
StartChar: omacron
Encoding: 333 333 235
Width: 591
Flags: MW
LayerCount: 2
Fore
SplineSet
246 566 m 0
 246 595 268 596 275 596 c 2
 602 596 l 2
 616 596 629 593 629 576 c 0
 629 561 623 546 599 546 c 2
 272 546 l 2
 257 546 246 551 246 566 c 0
106 159 m 0
 106 281 202 456 406 456 c 0
 519 456 595 395 595 286 c 0
 595 160 496 -11 296 -11 c 0
 181 -11 106 50 106 159 c 0
216 113 m 0
 216 53 253 25 298 25 c 0
 329 25 364 39 392 65 c 0
 469 136 485 325 485 332 c 0
 485 401 438 419 402 419 c 0
 352 419 316 393 291 360 c 4
 248 303 235 224 233 215 c 0
 227 191 216 149 216 113 c 0
EndSplineSet
EndChar
StartChar: Ohungarumlaut
Encoding: 336 336 320
Width: 855
Flags: MW
LayerCount: 2
Fore
SplineSet
472 788 m 0
 472 805 486 810 498 816 c 0
 575 857 611 876 631 884 c 0
 647 891 652 891 657 891 c 0
 685 891 702 868 702 844 c 0
 702 827 693 810 680 799 c 0
 661 783 638 782 551 766 c 0
 539 764 526 761 512 758 c 0
 506 757 500 755 495 755 c 0
 476 755 472 774 472 788 c 0
647 789 m 0
 647 806 661 811 673 817 c 0
 750 858 786 877 806 885 c 0
 822 892 827 892 832 892 c 0
 860 892 877 869 877 845 c 0
 877 828 868 811 855 800 c 0
 836 784 813 783 726 767 c 0
 714 765 701 762 687 759 c 0
 681 758 675 756 670 756 c 0
 651 756 647 775 647 789 c 0
159 226 m 0
 159 431 315 708 605 708 c 0
 715 708 865 658 865 457 c 0
 865 331 803 149 658 51 c 0
 592 6 510 -22 421 -22 c 0
 309 -22 159 28 159 226 c 0
296 187 m 0
 296 47 382 21 432 21 c 0
 494 21 549 55 586 93 c 0
 613 120 636 155 654 193 c 4
 714 317 733 472 733 506 c 0
 733 642 645 667 593 667 c 0
 565 667 486 659 417 573 c 0
 329 464 296 249 296 187 c 0
EndSplineSet
EndChar
StartChar: ohungarumlaut
Encoding: 337 337 334
Width: 591
Flags: MW
LayerCount: 2
Fore
SplineSet
469 548 m 0
 469 564 475 564 588 645 c 0
 599 653 625 675 649 675 c 0
 676 675 694 652 694 628 c 0
 694 581 643 568 627 562 c 0
 508 518 499 515 493 515 c 0
 478 515 469 536 469 548 c 0
293 548 m 0
 293 560 297 562 340 593 c 0
 422 652 447 675 473 675 c 0
 501 675 518 652 518 628 c 0
 518 581 468 568 452 562 c 0
 332 518 323 515 317 515 c 0
 298 515 293 544 293 548 c 0
106 159 m 0
 106 281 202 456 406 456 c 0
 519 456 595 395 595 286 c 0
 595 160 496 -11 296 -11 c 0
 181 -11 106 50 106 159 c 0
216 113 m 0
 216 53 253 25 298 25 c 0
 329 25 364 39 392 65 c 0
 469 136 485 325 485 332 c 0
 485 401 438 419 402 419 c 0
 352 419 316 393 291 360 c 4
 248 303 235 224 233 215 c 0
 227 191 216 149 216 113 c 0
EndSplineSet
EndChar
StartChar: OE
Encoding: 338 338 134
Width: 1140
Flags: MW
LayerCount: 2
Fore
SplineSet
179 231 m 0
 179 443 348 708 636 708 c 0
 709 708 734 686 831 686 c 2
 1160 686 l 2
 1177 686 1189 682 1189 663 c 0
 1189 657 1170 501 1167 475 c 1
 1166 455 1162 444 1138 444 c 2
 1137 444 l 2
 1116 444 1111 452 1111 468 c 0
 1111 483 1115 505 1115 535 c 0
 1115 621 1073 638 973 638 c 2
 908 638 l 2
 892 638 876 638 859 637 c 1
 796 380 l 1
 867 380 l 2
 896 380 931 381 955 398 c 0
 985 419 991 447 997 468 c 0
 1002 485 1008 497 1029 497 c 0
 1042 497 1055 492 1055 476 c 0
 1055 475 1053 466 1050 454 c 0
 1036 396 998 242 997 238 c 0
 995 231 992 226 988 222 c 4
 983 218 977 216 968 216 c 0
 946 216 940 223 940 235 c 0
 940 248 948 267 948 287 c 0
 948 331 910 332 857 332 c 2
 783 332 l 1
 712 49 l 1
 726 48 739 48 752 48 c 2
 815 48 l 2
 979 48 1015 101 1080 242 c 0
 1089 262 1090 275 1115 275 c 0
 1135 275 1142 268 1142 257 c 0
 1142 252 1140 246 1138 239 c 2
 1045 21 l 2
 1036 1 1028 0 1013 0 c 2
 656 0 l 2
 563 0 526 -22 454 -22 c 0
 338 -22 179 28 179 231 c 0
316 209 m 1
 317 107 358 14 468 14 c 0
 565 14 593 57 630 205 c 2
 665 346 l 25
 695 465 l 2
 716 547 720 575 720 603 c 0
 720 643 706 672 631 672 c 0
 432 672 317 401 316 209 c 1
EndSplineSet
EndChar
StartChar: oe
Encoding: 339 339 140
Width: 826
Flags: MW
LayerCount: 2
Fore
SplineSet
104 148 m 0
 104 273 195 460 377 460 c 0
 400 460 473 456 511 390 c 1
 550 419 607 456 697 456 c 0
 773 456 826 417 826 358 c 0
 826 326 810 295 793 277 c 0
 768 251 733 237 694 229 c 0
 645 219 590 218 545 218 c 2
 521 218 l 1
 514 189 506 157 506 124 c 0
 506 45 554 25 594 25 c 0
 608 25 675 28 739 92 c 0
 756 108 760 116 770 116 c 0
 781 116 799 96 799 86 c 0
 799 67 722 -11 591 -11 c 0
 518 -11 465 16 437 60 c 9
 437 60 l 21
 392 18 338 -16 264 -16 c 0
 180 -16 104 34 104 148 c 0
211 93 m 0
 211 43 237 21 268 21 c 0
 281 21 296 25 310 33 c 0
 372 66 394 139 412 213 c 0
 422 251 436 305 436 344 c 0
 436 409 399 423 374 423 c 0
 355 423 314 412 282 360 c 0
 252 310 211 152 211 93 c 0
530 254 m 1
 613 254 760 259 760 359 c 0
 760 395 735 419 696 419 c 0
 660 419 568 404 530 254 c 1
EndSplineSet
EndChar
StartChar: Racute
Encoding: 340 340 311
Width: 859
Flags: MW
LayerCount: 2
Fore
SplineSet
518 789 m 0
 518 806 532 811 544 817 c 0
 621 858 657 877 677 885 c 0
 693 892 698 892 703 892 c 0
 731 892 748 869 748 845 c 0
 748 828 739 811 726 800 c 0
 707 784 684 783 597 767 c 0
 585 765 572 762 558 759 c 0
 552 758 546 756 541 756 c 0
 522 756 518 775 518 789 c 0
65 20 m 0
 65 33 71 48 94 48 c 2
 111 48 l 2
 145 48 167 49 180 52 c 1
 326 636 l 1
 326 636 l 1
 307 638 289 638 271 638 c 2
 251 638 l 2
 231 638 225 649 225 659 c 0
 225 672 231 686 255 686 c 2
 565 686 l 2
 653 686 790 675 820 570 c 0
 823 559 825 547 825 535 c 0
 825 496 807 390 622 339 c 1
 666 321 702 285 702 231 c 0
 702 216 697 184 692 152 c 0
 687 122 682 90 682 70 c 0
 682 38 690 15 720 15 c 0
 752 15 777 50 791 95 c 0
 797 112 802 117 823 117 c 0
 845 117 848 105 848 98 c 0
 848 78 809 -22 716 -22 c 0
 636 -22 539 1 539 94 c 0
 539 117 548 149 556 179 c 0
 563 205 569 229 569 246 c 0
 569 283 552 325 485 325 c 2
 380 325 l 1
 311 50 l 1
 311 50 l 1
 331 48 350 48 370 48 c 2
 388 48 l 2
 406 48 413 38 413 27 c 0
 413 16 408 0 385 0 c 0
 371 0 339 3 236 3 c 0
 131 3 104 0 91 0 c 0
 68 0 65 12 65 20 c 0
389 361 m 1
 475 361 l 2
 562 361 608 381 635 410 c 0
 658 435 667 467 676 501 c 0
 681 521 686 541 686 562 c 0
 686 636 604 638 543 638 c 2
 504 638 l 2
 488 638 473 638 458 637 c 1
 458 637 l 1
 389 361 l 1
EndSplineSet
EndChar
StartChar: racute
Encoding: 341 341 324
Width: 502
Flags: MW
LayerCount: 2
Fore
SplineSet
285 548 m 0
 285 557 287 560 304 573 c 0
 311 578 319 584 331 593 c 0
 416 654 438 675 464 675 c 0
 492 675 510 653 510 628 c 0
 510 607 500 593 488 583 c 0
 472 570 451 565 443 562 c 0
 324 518 315 515 309 515 c 0
 290 515 285 544 285 548 c 0
77 299 m 0
 77 304 89 359 117 402 c 0
 128 419 142 435 158 444 c 0
 172 452 187 455 202 455 c 0
 219 455 274 452 306 400 c 1
 344 437 383 456 435 456 c 0
 493 456 560 429 560 365 c 0
 560 323 527 289 488 289 c 0
 456 289 440 311 440 336 c 0
 440 354 449 385 487 401 c 1
 469 414 454 419 433 419 c 0
 362 419 320 343 314 331 c 0
 310 322 308 311 306 301 c 2
 243 51 l 2
 241 42 230 -11 178 -11 c 0
 153 -11 133 5 133 31 c 0
 133 39 135 48 137 56 c 2
 204 321 l 2
 206 330 215 362 215 387 c 0
 215 404 211 418 196 418 c 0
 166 418 149 358 139 320 c 0
 135 306 132 294 130 291 c 0
 126 285 120 283 109 282 c 1
 102 282 l 2
 93 282 77 282 77 299 c 0
EndSplineSet
EndChar
StartChar: Rcommaaccent
Encoding: 342 342 375
Width: 859
Flags: MW
LayerCount: 2
Fore
SplineSet
349 -119 m 0
 356 -93 379 -73 407 -73 c 0
 442 -73 453 -107 443 -148 c 0
 422 -231 346 -283 337 -283 c 0
 332 -283 327 -277 329 -271 c 0
 330 -267 331 -265 336 -262 c 0
 352 -251 396 -221 418 -160 c 0
 418 -158 420 -156 420 -154 c 1
 419 -155 418 -156 416 -157 c 0
 410 -161 398 -166 384 -166 c 0
 353 -166 343 -143 349 -119 c 0
65 20 m 0
 65 33 71 48 94 48 c 2
 111 48 l 2
 145 48 167 49 180 52 c 1
 326 636 l 1
 326 636 l 1
 307 638 289 638 271 638 c 2
 251 638 l 2
 231 638 225 649 225 659 c 0
 225 672 231 686 255 686 c 2
 565 686 l 2
 653 686 790 675 820 570 c 0
 823 559 825 547 825 535 c 0
 825 496 807 390 622 339 c 1
 666 321 702 285 702 231 c 0
 702 216 697 184 692 152 c 0
 687 122 682 90 682 70 c 0
 682 38 690 15 720 15 c 0
 752 15 777 50 791 95 c 0
 797 112 802 117 823 117 c 0
 845 117 848 105 848 98 c 0
 848 78 809 -22 716 -22 c 0
 636 -22 539 1 539 94 c 0
 539 117 548 149 556 179 c 0
 563 205 569 229 569 246 c 0
 569 283 552 325 485 325 c 2
 380 325 l 1
 311 50 l 1
 311 50 l 1
 331 48 350 48 370 48 c 2
 388 48 l 2
 406 48 413 38 413 27 c 0
 413 16 408 0 385 0 c 0
 371 0 339 3 236 3 c 0
 131 3 104 0 91 0 c 0
 68 0 65 12 65 20 c 0
389 361 m 1
 475 361 l 2
 562 361 608 381 635 410 c 0
 658 435 667 467 676 501 c 0
 681 521 686 541 686 562 c 0
 686 636 604 638 543 638 c 2
 504 638 l 2
 488 638 473 638 458 637 c 1
 458 637 l 1
 389 361 l 1
EndSplineSet
EndChar
StartChar: rcommaaccent
Encoding: 343 343 393
Width: 502
Flags: MW
LayerCount: 2
Fore
SplineSet
171 -119 m 0
 178 -93 200 -73 228 -73 c 0
 263 -73 274 -107 264 -148 c 0
 243 -231 168 -283 159 -283 c 0
 154 -283 149 -277 151 -271 c 0
 152 -267 153 -265 158 -262 c 0
 174 -251 217 -221 239 -160 c 0
 239 -158 242 -156 242 -154 c 1
 241 -155 239 -156 237 -157 c 0
 231 -161 220 -166 206 -166 c 0
 175 -166 165 -143 171 -119 c 0
77 299 m 0
 77 304 89 359 117 402 c 4
 128 419 142 435 158 444 c 0
 172 452 187 455 202 455 c 0
 219 455 274 452 306 400 c 1
 344 437 383 456 435 456 c 0
 493 456 560 429 560 365 c 0
 560 323 527 289 488 289 c 0
 456 289 440 311 440 336 c 0
 440 354 449 385 487 401 c 1
 469 414 454 419 433 419 c 0
 362 419 320 343 314 331 c 0
 310 322 308 311 306 301 c 2
 243 51 l 2
 241 42 230 -11 178 -11 c 0
 153 -11 133 5 133 31 c 0
 133 39 135 48 137 56 c 2
 204 321 l 2
 206 330 215 362 215 387 c 0
 215 404 211 418 196 418 c 0
 166 418 149 358 139 320 c 0
 135 306 132 294 130 291 c 0
 126 285 120 283 109 282 c 1
 102 282 l 2
 93 282 77 282 77 299 c 0
EndSplineSet
EndChar
StartChar: Rcaron
Encoding: 344 344 321
Width: 859
Flags: MW
LayerCount: 2
Fore
SplineSet
492 877 m 0
 492 887 500 894 511 894 c 0
 524 894 626 869 642 869 c 0
 657 869 776 894 787 894 c 0
 799 894 806 887 806 877 c 0
 806 866 794 859 785 854 c 0
 707 814 669 795 650 786 c 0
 633 778 631 778 629 778 c 0
 618 778 603 791 592 798 c 0
 492 866 492 864 492 877 c 0
65 20 m 0
 65 33 71 48 94 48 c 2
 111 48 l 2
 145 48 167 49 180 52 c 1
 326 636 l 1
 326 636 l 1
 307 638 289 638 271 638 c 2
 251 638 l 2
 231 638 225 649 225 659 c 0
 225 672 231 686 255 686 c 2
 565 686 l 2
 653 686 790 675 820 570 c 0
 823 559 825 547 825 535 c 0
 825 496 807 390 622 339 c 1
 666 321 702 285 702 231 c 0
 702 216 697 184 692 152 c 0
 687 122 682 90 682 70 c 0
 682 38 690 15 720 15 c 0
 752 15 777 50 791 95 c 0
 797 112 802 117 823 117 c 0
 845 117 848 105 848 98 c 0
 848 78 809 -22 716 -22 c 0
 636 -22 539 1 539 94 c 0
 539 117 548 149 556 179 c 0
 563 205 569 229 569 246 c 0
 569 283 552 325 485 325 c 2
 380 325 l 1
 311 50 l 1
 311 50 l 1
 331 48 350 48 370 48 c 2
 388 48 l 2
 406 48 413 38 413 27 c 0
 413 16 408 0 385 0 c 0
 371 0 339 3 236 3 c 0
 131 3 104 0 91 0 c 0
 68 0 65 12 65 20 c 0
389 361 m 1
 475 361 l 2
 562 361 608 381 635 410 c 0
 658 435 667 467 676 501 c 0
 681 521 686 541 686 562 c 0
 686 636 604 638 543 638 c 2
 504 638 l 2
 488 638 473 638 458 637 c 1
 458 637 l 1
 389 361 l 1
EndSplineSet
EndChar
StartChar: rcaron
Encoding: 345 345 335
Width: 502
Flags: MW
LayerCount: 2
Fore
SplineSet
253 635 m 0
 253 644 260 651 270 651 c 0
 284 651 391 576 391 576 c 1
 472 614 536 651 550 651 c 0
 559 651 567 644 567 635 c 0
 567 623 555 615 548 609 c 2
 548 609 399 488 391 482 c 0
 386 479 381 475 374 475 c 0
 362 475 351 494 340 508 c 0
 257 620 253 624 253 635 c 0
77 299 m 0
 77 304 89 359 117 402 c 4
 128 419 142 435 158 444 c 0
 172 452 187 455 202 455 c 0
 219 455 274 452 306 400 c 1
 344 437 383 456 435 456 c 0
 493 456 560 429 560 365 c 0
 560 323 527 289 488 289 c 0
 456 289 440 311 440 336 c 0
 440 354 449 385 487 401 c 1
 469 414 454 419 433 419 c 0
 362 419 320 343 314 331 c 0
 310 322 308 311 306 301 c 2
 243 51 l 2
 241 42 230 -11 178 -11 c 0
 153 -11 133 5 133 31 c 0
 133 39 135 48 137 56 c 2
 204 321 l 2
 206 330 215 362 215 387 c 0
 215 404 211 418 196 418 c 0
 166 418 149 358 139 320 c 0
 135 306 132 294 130 291 c 0
 126 285 120 283 109 282 c 1
 102 282 l 2
 93 282 77 282 77 299 c 0
EndSplineSet
EndChar
StartChar: Sacute
Encoding: 346 346 299
Width: 650
Flags: MW
LayerCount: 2
Fore
SplineSet
414 789 m 0
 414 806 428 811 440 817 c 0
 517 858 553 877 573 885 c 0
 589 892 594 892 599 892 c 0
 627 892 644 869 644 845 c 0
 644 828 635 811 622 800 c 0
 603 784 580 783 493 767 c 0
 481 765 468 762 454 759 c 0
 448 758 442 756 437 756 c 0
 418 756 414 775 414 789 c 0
87 -6 m 0
 87 -5 88 1 90 9 c 0
 101 56 136 196 139 204 c 0
 144 226 147 228 173 228 c 0
 192 228 197 223 197 212 c 0
 197 209 197 205 196 200 c 0
 194 189 190 175 190 157 c 0
 190 52 284 26 352 26 c 0
 459 26 508 126 508 188 c 0
 508 220 497 241 480 255 c 0
 462 270 436 278 408 284 c 0
 388 289 366 292 345 298 c 0
 332 301 319 305 306 310 c 0
 276 322 249 341 231 372 c 0
 215 398 208 427 208 457 c 0
 208 558 294 708 469 708 c 0
 554 708 593 673 611 652 c 1
 640 679 656 694 667 702 c 0
 673 706 679 708 684 708 c 0
 693 708 702 703 702 692 c 0
 702 691 701 686 699 678 c 0
 688 632 652 489 650 480 c 0
 644 458 636 458 623 458 c 2
 621 458 l 2
 598 458 593 462 593 475 c 0
 593 479 593 484 594 490 c 4
 595 499 596 510 596 525 c 0
 596 637 527 665 466 665 c 0
 361 665 316 574 316 520 c 0
 316 475 340 455 375 442 c 0
 393 436 413 431 435 426 c 0
 489 415 548 403 584 353 c 0
 608 320 615 282 615 251 c 0
 615 144 530 -22 348 -22 c 0
 246 -22 201 16 179 34 c 1
 152 10 137 -5 126 -13 c 0
 117 -20 111 -22 105 -22 c 0
 98 -22 87 -19 87 -6 c 0
EndSplineSet
EndChar
StartChar: sacute
Encoding: 347 347 306
Width: 487
Flags: MW
LayerCount: 2
Fore
SplineSet
278 548 m 0
 278 557 280 560 297 573 c 0
 304 578 312 584 324 593 c 0
 409 654 431 675 457 675 c 0
 485 675 503 653 503 628 c 0
 503 607 493 593 481 583 c 0
 465 570 444 565 436 562 c 0
 317 518 308 515 302 515 c 0
 283 515 278 544 278 548 c 0
84 90 m 0
 84 136 117 169 156 169 c 0
 185 169 205 150 205 123 c 0
 205 105 194 69 155 56 c 1
 168 44 192 25 248 25 c 0
 365 25 387 96 387 123 c 0
 387 169 335 180 290 189 c 4
 272 192 254 196 242 200 c 0
 213 210 166 240 166 299 c 0
 166 338 195 456 351 456 c 0
 432 456 485 419 485 365 c 0
 485 327 459 296 423 296 c 0
 398 296 380 313 380 337 c 0
 380 351 387 377 419 393 c 1
 409 402 391 419 348 419 c 0
 259 419 243 360 243 340 c 0
 243 301 282 294 324 286 c 0
 341 283 358 279 374 274 c 0
 407 262 463 230 463 164 c 0
 463 99 414 -11 245 -11 c 0
 146 -11 84 29 84 90 c 0
EndSplineSet
EndChar
StartChar: Scircumflex
Encoding: 348 348 342
Width: 650
Flags: MW
LayerCount: 2
Fore
SplineSet
363 772 m 0
 363 781 369 787 380 795 c 0
 448 843 487 870 510 885 c 0
 539 904 542 904 546 904 c 2
 548 904 l 2
 553 904 556 903 575 883 c 0
 589 869 611 846 647 808 c 0
 671 783 673 780 673 772 c 0
 673 762 654 740 639 740 c 0
 628 740 610 758 583 781 c 0
 567 795 550 809 535 823 c 1
 482 795 403 740 388 740 c 0
 373 740 363 763 363 772 c 0
87 -6 m 0
 87 -5 88 1 90 9 c 0
 101 56 136 196 139 204 c 0
 144 226 147 228 173 228 c 0
 192 228 197 223 197 212 c 0
 197 209 197 205 196 200 c 0
 194 189 190 175 190 157 c 0
 190 52 284 26 352 26 c 0
 459 26 508 126 508 188 c 0
 508 220 497 241 480 255 c 0
 462 270 436 278 408 284 c 0
 388 289 366 292 345 298 c 0
 332 301 319 305 306 310 c 0
 276 322 249 341 231 372 c 0
 215 398 208 427 208 457 c 0
 208 558 294 708 469 708 c 0
 554 708 593 673 611 652 c 1
 640 679 656 694 667 702 c 0
 673 706 679 708 684 708 c 0
 693 708 702 703 702 692 c 0
 702 691 701 686 699 678 c 0
 688 632 652 489 650 480 c 0
 644 458 636 458 623 458 c 2
 621 458 l 2
 598 458 593 462 593 475 c 0
 593 479 593 484 594 490 c 4
 595 499 596 510 596 525 c 0
 596 637 527 665 466 665 c 0
 361 665 316 574 316 520 c 0
 316 475 340 455 375 442 c 0
 393 436 413 431 435 426 c 0
 489 415 548 403 584 353 c 0
 608 320 615 282 615 251 c 0
 615 144 530 -22 348 -22 c 0
 246 -22 201 16 179 34 c 1
 152 10 137 -5 126 -13 c 0
 117 -20 111 -22 105 -22 c 0
 98 -22 87 -19 87 -6 c 0
EndSplineSet
EndChar
StartChar: scircumflex
Encoding: 349 349 348
Width: 487
Flags: MW
LayerCount: 2
Fore
SplineSet
212 496 m 0
 212 505 219 511 230 520 c 0
 392 651 395 651 403 651 c 0
 415 651 427 633 438 618 c 0
 517 513 524 506 524 496 c 0
 524 483 502 465 490 465 c 0
 478 465 461 487 426 527 c 0
 416 539 404 553 390 568 c 1
 389 568 l 1
 376 558 271 482 258 473 c 0
 254 470 247 464 239 464 c 0
 225 464 212 487 212 496 c 0
84 90 m 0
 84 136 117 169 156 169 c 0
 185 169 205 150 205 123 c 0
 205 105 194 69 155 56 c 1
 168 44 192 25 248 25 c 0
 365 25 387 96 387 123 c 0
 387 169 335 180 290 189 c 4
 272 192 254 196 242 200 c 0
 213 210 166 240 166 299 c 0
 166 338 195 456 351 456 c 0
 432 456 485 419 485 365 c 0
 485 327 459 296 423 296 c 0
 398 296 380 313 380 337 c 0
 380 351 387 377 419 393 c 1
 409 402 391 419 348 419 c 0
 259 419 243 360 243 340 c 0
 243 301 282 294 324 286 c 0
 341 283 358 279 374 274 c 0
 407 262 463 230 463 164 c 0
 463 99 414 -11 245 -11 c 0
 146 -11 84 29 84 90 c 0
EndSplineSet
EndChar
StartChar: Scedilla
Encoding: 350 350 300
Width: 650
Flags: MW
LayerCount: 2
Fore
SplineSet
87 -6 m 0
 87 2 136 195 139 204 c 0
 144 226 147 228 173 228 c 0
 192 228 196 223 196 212 c 0
 196 200 190 182 190 157 c 0
 190 52 284 26 352 26 c 0
 459 26 508 126 508 188 c 0
 508 228 491 250 465 264 c 4
 426 285 367 288 315 307 c 0
 282 319 251 338 231 372 c 0
 215 398 208 427 208 457 c 0
 208 557 294 708 469 708 c 0
 554 708 593 673 611 652 c 1
 657 694 669 708 684 708 c 0
 693 708 702 703 702 692 c 0
 702 684 653 490 650 481 c 0
 644 459 639 458 616 458 c 0
 597 458 593 463 593 477 c 0
 593 487 596 503 596 525 c 0
 596 637 527 665 466 665 c 0
 361 665 316 574 316 520 c 0
 316 393 509 460 585 352 c 0
 606 322 615 286 615 250 c 0
 615 165 557 17 402 -17 c 1
 397 -39 l 1
 413 -42 467 -51 467 -101 c 0
 467 -174 368 -192 225 -192 c 2
 197 -192 l 2
 176 -192 169 -184 169 -176 c 0
 169 -159 185 -156 196 -156 c 2
 215 -156 l 2
 332 -156 360 -129 360 -103 c 0
 360 -85 340 -76 325 -73 c 0
 312 -70 288 -74 288 -51 c 0
 288 -47 288 -44 295 -18 c 1
 238 -10 208 10 179 34 c 1
 129 -10 120 -22 105 -22 c 0
 96 -22 87 -16 87 -6 c 0
EndSplineSet
EndChar
